<svg width="43" height="42" viewBox="0 0 43 42" fill="none" xmlns="http://www.w3.org/2000/svg">
<g opacity="0.5">
<rect x="6.71875" y="6.5625" width="29.5625" height="28.875" fill="#EEEEEE"/>
<path d="M17.9104 19.2866C17.5763 19.5197 17.1466 19.6596 16.6215 19.6596H13.6619V16.6289H16.4306C16.717 16.6289 16.9557 16.6289 17.1944 16.6755C17.4331 16.7222 17.624 16.8154 17.8149 16.9087C18.0059 17.0486 18.1491 17.1884 18.2446 17.3749C18.34 17.5614 18.3878 17.8412 18.3878 18.121C18.3878 18.6338 18.2446 19.0535 17.9104 19.2866Z" fill="#111111"/>
<path d="M17.5763 25.0682C17.3376 25.1149 17.0512 25.1615 16.7648 25.1615H13.6619V21.5713H16.8125C17.4331 21.5713 17.9582 21.7112 18.34 21.9909C18.7219 22.3173 18.9129 22.7836 18.9129 23.4363C18.9129 23.7627 18.8174 24.0425 18.7219 24.2756C18.5787 24.5087 18.4355 24.6486 18.2446 24.7885C18.0536 24.9284 17.815 25.0216 17.5763 25.0682Z" fill="#111111"/>
<path d="M27.5054 19.7062C28.126 19.7062 28.6511 19.8927 28.9852 20.2191C29.3194 20.5455 29.558 21.0118 29.6535 21.7112H25.3573C25.3573 21.5567 25.39 21.4022 25.4284 21.2211C25.4364 21.1836 25.4445 21.145 25.4527 21.105C25.5005 20.8719 25.5959 20.6388 25.7869 20.4523C25.9778 20.2658 26.1688 20.0792 26.4552 19.9394C26.7416 19.7995 27.0758 19.7062 27.5054 19.7062Z" fill="#111111"/>
<path fill-rule="evenodd" clip-rule="evenodd" d="M43 0H0V42H43V0ZM18.7219 14.624C18.1968 14.4841 17.624 14.4375 17.0034 14.4375H10.75V27.3063H17.1466C17.7195 27.3063 18.2923 27.213 18.8651 27.0732C19.438 26.9333 19.9631 26.7001 20.3927 26.4204C20.8223 26.1406 21.2042 25.721 21.4429 25.2547C21.6816 24.7885 21.8248 24.229 21.8248 23.5762C21.8248 22.7836 21.5861 22.0842 21.2042 21.5247C20.8223 20.9651 20.2018 20.5455 19.3902 20.3124C19.9631 20.0326 20.4404 19.6596 20.7269 19.24C21.061 18.8203 21.2042 18.2608 21.2042 17.6081C21.2042 17.0486 21.1087 16.5357 20.9178 16.116C20.7269 15.6964 20.4404 15.37 20.0586 15.1369C19.6767 14.9038 19.247 14.7173 18.7219 14.624ZM27.6963 25.6744C26.9326 25.6744 26.3597 25.4879 25.9778 25.1149C25.5959 24.7418 25.3095 24.0425 25.3095 23.2964H32.2313C32.279 22.5504 32.2313 21.8977 32.1358 21.2449C31.9449 20.5921 31.6584 19.986 31.2765 19.4731C30.8947 18.9136 30.4173 18.5406 29.7967 18.2142C29.1762 17.8878 28.4601 17.7479 27.6486 17.7479C26.8848 17.7479 26.2643 17.8878 25.6437 18.121C25.0708 18.3541 24.5458 18.7271 24.1161 19.1467C23.6865 19.613 23.3523 20.1259 23.1137 20.732C22.875 21.3382 22.7795 21.9909 22.7795 22.6903C22.7795 23.4363 22.875 24.0891 23.1137 24.6952C23.3046 25.3014 23.6388 25.8142 24.0684 26.2339C24.498 26.7001 24.9754 27.0265 25.5959 27.2597C26.2165 27.4928 26.8848 27.6327 27.6486 27.6327C28.7465 27.6327 29.6535 27.3529 30.4173 26.8866C31.1811 26.3738 31.7539 25.5811 32.1358 24.4621H29.7967C29.7013 24.7418 29.4626 25.0216 29.0807 25.3014C28.6988 25.5345 28.2214 25.6744 27.6963 25.6744ZM30.1309 15.3234H24.7844V16.5823H30.1309V15.3234Z" fill="#111111"/>
</g>
</svg>
