<svg width="729" height="340" viewBox="0 0 729 340" fill="none" xmlns="http://www.w3.org/2000/svg">
<path d="M85.498 160.521C87.0496 160.521 88.3074 161.779 88.3074 163.33V187.912C88.3074 189.463 87.0496 190.721 85.498 190.721V160.521Z" stroke="#111111" stroke-width="1.03"/>
<rect x="85.498" y="109.952" width="148.193" height="146.788" rx="5.6187" stroke="#111111" stroke-width="1.03"/>
<rect x="225.263" y="140.153" width="8.42805" height="67.4244" stroke="#111111" stroke-width="1.03"/>
<rect x="85.498" y="109.952" width="139.765" height="146.788" rx="5.6187" stroke="#111111" stroke-width="1.03"/>
<rect x="85.498" y="109.952" width="139.765" height="141.17" rx="5.6187" stroke="#111111" stroke-width="1.03"/>
<rect x="85.498" y="109.952" width="139.765" height="136.253" rx="5.6187" stroke="#111111" stroke-width="1.03"/>
<rect x="85.498" y="109.952" width="139.765" height="131.337" rx="5.6187" stroke="#111111" stroke-width="1.03"/>
<path d="M225.263 190.721C223.712 190.721 222.454 189.463 222.454 187.912L222.454 163.33C222.454 161.778 223.712 160.52 225.263 160.52L225.263 190.721Z" stroke="#111111" stroke-width="1.03"/>
<path d="M88.3071 175.621H222.454" stroke="#111111" stroke-width="1.03"/>
<path d="M152.22 4.63489C152.22 2.35948 154.065 0.514893 156.34 0.514893H202.883C205.158 0.514893 207.003 2.35948 207.003 4.63489V28.4814H152.22V4.63489Z" stroke="#111111" stroke-width="1.03"/>
<path d="M521.649 4.63489C521.649 2.35948 523.494 0.514893 525.769 0.514893H572.312C574.587 0.514893 576.432 2.35948 576.432 4.63489V28.4814H521.649V4.63489Z" stroke="#111111" stroke-width="1.03"/>
<rect x="0.515137" y="28.4812" width="727.621" height="310.433" rx="155.216" stroke="#111111" stroke-width="1.03"/>
<rect x="11.7529" y="39.7185" width="705.146" height="287.958" rx="143.979" stroke="#111111" stroke-width="1.03"/>
<rect x="636.833" y="140.153" width="8.42805" height="67.4244" stroke="#111111" stroke-width="1.03"/>
<rect x="497.067" y="109.952" width="148.193" height="146.788" rx="5.6187" stroke="#111111" stroke-width="1.03"/>
<rect x="497.067" y="109.952" width="139.765" height="146.788" rx="5.6187" stroke="#111111" stroke-width="1.03"/>
<rect x="497.067" y="109.952" width="139.765" height="141.17" rx="5.6187" stroke="#111111" stroke-width="1.03"/>
<rect x="497.067" y="109.952" width="139.765" height="136.253" rx="5.6187" stroke="#111111" stroke-width="1.03"/>
<rect x="497.067" y="109.952" width="139.765" height="131.337" rx="5.6187" stroke="#111111" stroke-width="1.03"/>
<path d="M497.067 160.521C498.619 160.521 499.877 161.779 499.877 163.33V187.912C499.877 189.463 498.619 190.721 497.067 190.721V160.521Z" stroke="#111111" stroke-width="1.03"/>
<path d="M636.833 190.721C635.281 190.721 634.023 189.463 634.023 187.912L634.023 163.33C634.023 161.778 635.281 160.52 636.833 160.52L636.833 190.721Z" stroke="#111111" stroke-width="1.03"/>
<path d="M499.877 175.621H634.024" stroke="#111111" stroke-width="1.03"/>
<circle cx="364.326" cy="183.698" r="80.9561" stroke="#111111" stroke-width="1.03"/>
<path d="M364.326 76.9426V94.8522" stroke="#111111" stroke-width="1.03"/>
<path d="M364.326 272.895V290.804" stroke="#111111" stroke-width="1.03"/>
<path d="M352.459 85.4065L353.66 95.1848" stroke="#111111" stroke-width="1.03"/>
<path d="M375.4 272.249L376.601 282.027" stroke="#111111" stroke-width="1.03"/>
<path d="M340.568 87.6104L342.952 97.1694" stroke="#111111" stroke-width="1.03"/>
<path d="M386.109 270.264L388.493 279.823" stroke="#111111" stroke-width="1.03"/>
<path d="M329.035 91.2468L332.565 100.444" stroke="#111111" stroke-width="1.03"/>
<path d="M396.496 266.989L400.027 276.186" stroke="#111111" stroke-width="1.03"/>
<path d="M403.232 92.542L399.383 101.611" stroke="#111111" stroke-width="1.03"/>
<path d="M329.678 265.823L325.829 274.891" stroke="#111111" stroke-width="1.03"/>
<path d="M391.832 88.5054L389.116 97.9754" stroke="#111111" stroke-width="1.03"/>
<path d="M339.944 269.458L337.228 278.929" stroke="#111111" stroke-width="1.03"/>
<path d="M380.024 85.8877L378.483 95.6181" stroke="#111111" stroke-width="1.03"/>
<path d="M350.577 271.815L349.036 281.546" stroke="#111111" stroke-width="1.03"/>
<path d="M273.355 145.016L282.424 148.865" stroke="#111111" stroke-width="1.03"/>
<path d="M446.637 218.569L455.705 222.418" stroke="#111111" stroke-width="1.03"/>
<path d="M269.318 156.416L278.788 159.131" stroke="#111111" stroke-width="1.03"/>
<path d="M450.272 208.303L459.742 211.018" stroke="#111111" stroke-width="1.03"/>
<path d="M266.701 168.222L276.432 169.763" stroke="#111111" stroke-width="1.03"/>
<path d="M452.628 197.67L462.359 199.211" stroke="#111111" stroke-width="1.03"/>
<path d="M266.22 195.788L275.998 194.587" stroke="#111111" stroke-width="1.03"/>
<path d="M453.062 172.846L462.84 171.646" stroke="#111111" stroke-width="1.03"/>
<path d="M268.424 207.679L277.983 205.296" stroke="#111111" stroke-width="1.03"/>
<path d="M451.078 162.138L460.637 159.755" stroke="#111111" stroke-width="1.03"/>
<path d="M272.06 219.213L281.257 215.682" stroke="#111111" stroke-width="1.03"/>
<path d="M447.803 151.751L457 148.221" stroke="#111111" stroke-width="1.03"/>
<path d="M285.428 243.325L293.296 237.397" stroke="#111111" stroke-width="1.03"/>
<path d="M435.768 130.037L443.636 124.108" stroke="#111111" stroke-width="1.03"/>
<path d="M293.282 252.521L300.368 245.678" stroke="#111111" stroke-width="1.03"/>
<path d="M428.694 121.755L435.781 114.912" stroke="#111111" stroke-width="1.03"/>
<path d="M302.198 260.692L308.398 253.035" stroke="#111111" stroke-width="1.03"/>
<path d="M420.664 114.397L426.864 106.741" stroke="#111111" stroke-width="1.03"/>
<path d="M304.921 104.613L310.85 112.481" stroke="#111111" stroke-width="1.03"/>
<path d="M418.209 254.953L424.138 262.821" stroke="#111111" stroke-width="1.03"/>
<path d="M295.725 112.467L302.569 119.554" stroke="#111111" stroke-width="1.03"/>
<path d="M426.491 247.88L433.335 254.967" stroke="#111111" stroke-width="1.03"/>
<path d="M287.555 121.383L295.211 127.583" stroke="#111111" stroke-width="1.03"/>
<path d="M433.849 239.85L441.505 246.05" stroke="#111111" stroke-width="1.03"/>
<path d="M417.792 91.2666L408.837 106.777" stroke="#111111" stroke-width="1.03"/>
<path d="M319.815 260.966L310.861 276.476" stroke="#111111" stroke-width="1.03"/>
<path d="M417.797 276.476L408.843 260.966" stroke="#111111" stroke-width="1.03"/>
<path d="M319.821 106.777L310.866 91.2669" stroke="#111111" stroke-width="1.03"/>
<path d="M456.936 237.336L441.425 228.381" stroke="#111111" stroke-width="1.03"/>
<path d="M287.236 139.36L271.726 130.405" stroke="#111111" stroke-width="1.03"/>
<path d="M471.26 183.87L453.351 183.87" stroke="#111111" stroke-width="1.03"/>
<path d="M275.308 183.87L257.399 183.87" stroke="#111111" stroke-width="1.03"/>
<path d="M456.932 130.405L441.422 139.36" stroke="#111111" stroke-width="1.03"/>
<path d="M287.232 228.381L271.722 237.335" stroke="#111111" stroke-width="1.03"/>
</svg>
