<svg width="381" height="381" viewBox="0 0 381 381" fill="none" xmlns="http://www.w3.org/2000/svg">
<mask id="path-1-outside-1_159_1902" maskUnits="userSpaceOnUse" x="149.34" y="241.812" width="85" height="33" fill="black">
<rect fill="white" x="149.34" y="241.812" width="85" height="33"/>
<path d="M151.241 272.812V243.521H156.893L166.992 262.21C167.207 262.626 167.401 263.055 167.576 263.497C167.763 263.926 167.924 264.342 168.059 264.745H168.179C168.166 264.302 168.152 263.846 168.139 263.377C168.139 262.907 168.139 262.451 168.139 262.009V243.521H172.907V272.812H167.294L157.115 254.082C156.9 253.667 156.706 253.251 156.531 252.835C156.357 252.406 156.203 251.984 156.069 251.568H155.928C155.955 252.024 155.968 252.486 155.968 252.956C155.982 253.412 155.988 253.868 155.988 254.324V272.812H151.241ZM176.237 263.256V262.612C176.237 259.595 177.135 257.167 178.932 255.33C180.743 253.492 183.117 252.574 186.054 252.574C188.977 252.574 191.237 253.439 192.833 255.169C194.429 256.899 195.227 259.286 195.227 262.33V264.04H179.355V260.882H190.057V260.6C190.057 259.447 189.722 258.461 189.051 257.643C188.394 256.825 187.395 256.416 186.054 256.416C184.552 256.416 183.418 256.966 182.654 258.066C181.89 259.152 181.507 260.547 181.507 262.25V263.377C181.507 265.227 181.916 266.703 182.734 267.802C183.553 268.902 184.76 269.452 186.356 269.452C187.455 269.452 188.387 269.217 189.152 268.748C189.93 268.265 190.54 267.662 190.982 266.937L195.026 268.848C194.409 270.149 193.376 271.222 191.928 272.067C190.493 272.912 188.656 273.335 186.416 273.335C183.197 273.335 180.696 272.423 178.912 270.599C177.128 268.761 176.237 266.314 176.237 263.256ZM196.012 253.137H201.242L205.487 265.087C205.648 265.543 205.782 265.972 205.889 266.374C206.01 266.763 206.097 267.092 206.151 267.36H206.251C206.305 267.092 206.392 266.763 206.513 266.374C206.634 265.972 206.768 265.543 206.915 265.087L211.22 253.137H216.048L208.505 272.812H203.596L196.012 253.137ZM212.099 253.137H217.33L221.574 265.087C221.735 265.543 221.869 265.972 221.977 266.374C222.097 266.763 222.184 267.092 222.238 267.36H222.339C222.392 267.092 222.48 266.763 222.6 266.374C222.721 265.972 222.855 265.543 223.003 265.087L227.308 253.137H232.136L224.592 272.812H219.683L212.099 253.137Z"/>
</mask>
<path d="M151.241 272.812V243.521H156.893L166.992 262.21C167.207 262.626 167.401 263.055 167.576 263.497C167.763 263.926 167.924 264.342 168.059 264.745H168.179C168.166 264.302 168.152 263.846 168.139 263.377C168.139 262.907 168.139 262.451 168.139 262.009V243.521H172.907V272.812H167.294L157.115 254.082C156.9 253.667 156.706 253.251 156.531 252.835C156.357 252.406 156.203 251.984 156.069 251.568H155.928C155.955 252.024 155.968 252.486 155.968 252.956C155.982 253.412 155.988 253.868 155.988 254.324V272.812H151.241ZM176.237 263.256V262.612C176.237 259.595 177.135 257.167 178.932 255.33C180.743 253.492 183.117 252.574 186.054 252.574C188.977 252.574 191.237 253.439 192.833 255.169C194.429 256.899 195.227 259.286 195.227 262.33V264.04H179.355V260.882H190.057V260.6C190.057 259.447 189.722 258.461 189.051 257.643C188.394 256.825 187.395 256.416 186.054 256.416C184.552 256.416 183.418 256.966 182.654 258.066C181.89 259.152 181.507 260.547 181.507 262.25V263.377C181.507 265.227 181.916 266.703 182.734 267.802C183.553 268.902 184.76 269.452 186.356 269.452C187.455 269.452 188.387 269.217 189.152 268.748C189.93 268.265 190.54 267.662 190.982 266.937L195.026 268.848C194.409 270.149 193.376 271.222 191.928 272.067C190.493 272.912 188.656 273.335 186.416 273.335C183.197 273.335 180.696 272.423 178.912 270.599C177.128 268.761 176.237 266.314 176.237 263.256ZM196.012 253.137H201.242L205.487 265.087C205.648 265.543 205.782 265.972 205.889 266.374C206.01 266.763 206.097 267.092 206.151 267.36H206.251C206.305 267.092 206.392 266.763 206.513 266.374C206.634 265.972 206.768 265.543 206.915 265.087L211.22 253.137H216.048L208.505 272.812H203.596L196.012 253.137ZM212.099 253.137H217.33L221.574 265.087C221.735 265.543 221.869 265.972 221.977 266.374C222.097 266.763 222.184 267.092 222.238 267.36H222.339C222.392 267.092 222.48 266.763 222.6 266.374C222.721 265.972 222.855 265.543 223.003 265.087L227.308 253.137H232.136L224.592 272.812H219.683L212.099 253.137Z" fill="#EEEEEE"/>
<path d="M151.241 272.812H150.211V273.842H151.241V272.812ZM151.241 243.521V242.491H150.211V243.521H151.241ZM156.893 243.521L157.8 243.031L157.508 242.491H156.893V243.521ZM166.992 262.21L167.908 261.737L167.903 261.729L167.898 261.72L166.992 262.21ZM167.576 263.497L166.617 263.875L166.624 263.893L166.632 263.91L167.576 263.497ZM168.059 264.745L167.081 265.07L167.316 265.775H168.059V264.745ZM168.179 264.745V265.775H169.241L169.209 264.713L168.179 264.745ZM168.139 263.377H167.109V263.391L167.109 263.406L168.139 263.377ZM168.139 243.521V242.491H167.109V243.521H168.139ZM172.907 243.521H173.937V242.491H172.907V243.521ZM172.907 272.812V273.842H173.937V272.812H172.907ZM167.294 272.812L166.389 273.303L166.682 273.842H167.294V272.812ZM157.115 254.082L156.2 254.555L156.205 254.565L156.21 254.574L157.115 254.082ZM156.531 252.835L155.577 253.223L155.582 253.233L156.531 252.835ZM156.069 251.568L157.049 251.252L156.819 250.538H156.069V251.568ZM155.928 251.568V250.538H154.836L154.9 251.628L155.928 251.568ZM155.968 252.956H154.938V252.971L154.939 252.986L155.968 252.956ZM155.988 272.812V273.842H157.018V272.812H155.988ZM151.241 272.812H152.271V243.521H151.241H150.211V272.812H151.241ZM151.241 243.521V244.551H156.893V243.521V242.491H151.241V243.521ZM156.893 243.521L155.987 244.011L166.086 262.699L166.992 262.21L167.898 261.72L157.8 243.031L156.893 243.521ZM166.992 262.21L166.077 262.682C166.275 263.067 166.456 263.464 166.617 263.875L167.576 263.497L168.534 263.12C168.347 262.645 168.138 262.185 167.908 261.737L166.992 262.21ZM167.576 263.497L166.632 263.91C166.809 264.314 166.958 264.7 167.081 265.07L168.059 264.745L169.036 264.419C168.891 263.984 168.718 263.539 168.519 263.084L167.576 263.497ZM168.059 264.745V265.775H168.179V264.745V263.715H168.059V264.745ZM168.179 264.745L169.209 264.713C169.195 264.271 169.182 263.816 169.169 263.347L168.139 263.377L167.109 263.406C167.123 263.876 167.136 264.333 167.15 264.776L168.179 264.745ZM168.139 263.377H169.169C169.169 263.376 169.169 263.375 169.169 263.374C169.169 263.373 169.169 263.372 169.169 263.371C169.169 263.37 169.169 263.369 169.169 263.368C169.169 263.367 169.169 263.366 169.169 263.366C169.169 263.365 169.169 263.364 169.169 263.363C169.169 263.362 169.169 263.361 169.169 263.36C169.169 263.359 169.169 263.358 169.169 263.357C169.169 263.356 169.169 263.355 169.169 263.355C169.169 263.354 169.169 263.353 169.169 263.352C169.169 263.351 169.169 263.35 169.169 263.349C169.169 263.348 169.169 263.347 169.169 263.346C169.169 263.345 169.169 263.344 169.169 263.344C169.169 263.343 169.169 263.342 169.169 263.341C169.169 263.34 169.169 263.339 169.169 263.338C169.169 263.337 169.169 263.336 169.169 263.335C169.169 263.334 169.169 263.334 169.169 263.333C169.169 263.332 169.169 263.331 169.169 263.33C169.169 263.329 169.169 263.328 169.169 263.327C169.169 263.326 169.169 263.325 169.169 263.324C169.169 263.323 169.169 263.323 169.169 263.322C169.169 263.321 169.169 263.32 169.169 263.319C169.169 263.318 169.169 263.317 169.169 263.316C169.169 263.315 169.169 263.314 169.169 263.313C169.169 263.312 169.169 263.312 169.169 263.311C169.169 263.31 169.169 263.309 169.169 263.308C169.169 263.307 169.169 263.306 169.169 263.305C169.169 263.304 169.169 263.303 169.169 263.302C169.169 263.302 169.169 263.301 169.169 263.3C169.169 263.299 169.169 263.298 169.169 263.297C169.169 263.296 169.169 263.295 169.169 263.294C169.169 263.293 169.169 263.292 169.169 263.291C169.169 263.291 169.169 263.29 169.169 263.289C169.169 263.288 169.169 263.287 169.169 263.286C169.169 263.285 169.169 263.284 169.169 263.283C169.169 263.282 169.169 263.281 169.169 263.28C169.169 263.28 169.169 263.279 169.169 263.278C169.169 263.277 169.169 263.276 169.169 263.275C169.169 263.274 169.169 263.273 169.169 263.272C169.169 263.271 169.169 263.27 169.169 263.27C169.169 263.269 169.169 263.268 169.169 263.267C169.169 263.266 169.169 263.265 169.169 263.264C169.169 263.263 169.169 263.262 169.169 263.261C169.169 263.26 169.169 263.259 169.169 263.259C169.169 263.258 169.169 263.257 169.169 263.256C169.169 263.255 169.169 263.254 169.169 263.253C169.169 263.252 169.169 263.251 169.169 263.25C169.169 263.249 169.169 263.249 169.169 263.248C169.169 263.247 169.169 263.246 169.169 263.245C169.169 263.244 169.169 263.243 169.169 263.242C169.169 263.241 169.169 263.24 169.169 263.239C169.169 263.239 169.169 263.238 169.169 263.237C169.169 263.236 169.169 263.235 169.169 263.234C169.169 263.233 169.169 263.232 169.169 263.231C169.169 263.23 169.169 263.229 169.169 263.228C169.169 263.228 169.169 263.227 169.169 263.226C169.169 263.225 169.169 263.224 169.169 263.223C169.169 263.222 169.169 263.221 169.169 263.22C169.169 263.219 169.169 263.218 169.169 263.218C169.169 263.217 169.169 263.216 169.169 263.215C169.169 263.214 169.169 263.213 169.169 263.212C169.169 263.211 169.169 263.21 169.169 263.209C169.169 263.208 169.169 263.208 169.169 263.207C169.169 263.206 169.169 263.205 169.169 263.204C169.169 263.203 169.169 263.202 169.169 263.201C169.169 263.2 169.169 263.199 169.169 263.198C169.169 263.198 169.169 263.197 169.169 263.196C169.169 263.195 169.169 263.194 169.169 263.193C169.169 263.192 169.169 263.191 169.169 263.19C169.169 263.189 169.169 263.188 169.169 263.188C169.169 263.187 169.169 263.186 169.169 263.185C169.169 263.184 169.169 263.183 169.169 263.182C169.169 263.181 169.169 263.18 169.169 263.179C169.169 263.178 169.169 263.178 169.169 263.177C169.169 263.176 169.169 263.175 169.169 263.174C169.169 263.173 169.169 263.172 169.169 263.171C169.169 263.17 169.169 263.169 169.169 263.168C169.169 263.168 169.169 263.167 169.169 263.166C169.169 263.165 169.169 263.164 169.169 263.163C169.169 263.162 169.169 263.161 169.169 263.16C169.169 263.159 169.169 263.158 169.169 263.158C169.169 263.157 169.169 263.156 169.169 263.155C169.169 263.154 169.169 263.153 169.169 263.152C169.169 263.151 169.169 263.15 169.169 263.149C169.169 263.148 169.169 263.148 169.169 263.147C169.169 263.146 169.169 263.145 169.169 263.144C169.169 263.143 169.169 263.142 169.169 263.141C169.169 263.14 169.169 263.139 169.169 263.138C169.169 263.138 169.169 263.137 169.169 263.136C169.169 263.135 169.169 263.134 169.169 263.133C169.169 263.132 169.169 263.131 169.169 263.13C169.169 263.129 169.169 263.128 169.169 263.128C169.169 263.127 169.169 263.126 169.169 263.125C169.169 263.124 169.169 263.123 169.169 263.122C169.169 263.121 169.169 263.12 169.169 263.119C169.169 263.118 169.169 263.118 169.169 263.117C169.169 263.116 169.169 263.115 169.169 263.114C169.169 263.113 169.169 263.112 169.169 263.111C169.169 263.11 169.169 263.109 169.169 263.108C169.169 263.108 169.169 263.107 169.169 263.106C169.169 263.105 169.169 263.104 169.169 263.103C169.169 263.102 169.169 263.101 169.169 263.1C169.169 263.099 169.169 263.099 169.169 263.098C169.169 263.097 169.169 263.096 169.169 263.095C169.169 263.094 169.169 263.093 169.169 263.092C169.169 263.091 169.169 263.09 169.169 263.089C169.169 263.089 169.169 263.088 169.169 263.087C169.169 263.086 169.169 263.085 169.169 263.084C169.169 263.083 169.169 263.082 169.169 263.081C169.169 263.08 169.169 263.079 169.169 263.079C169.169 263.078 169.169 263.077 169.169 263.076C169.169 263.075 169.169 263.074 169.169 263.073C169.169 263.072 169.169 263.071 169.169 263.07C169.169 263.07 169.169 263.069 169.169 263.068C169.169 263.067 169.169 263.066 169.169 263.065C169.169 263.064 169.169 263.063 169.169 263.062C169.169 263.061 169.169 263.06 169.169 263.06C169.169 263.059 169.169 263.058 169.169 263.057C169.169 263.056 169.169 263.055 169.169 263.054C169.169 263.053 169.169 263.052 169.169 263.051C169.169 263.051 169.169 263.05 169.169 263.049C169.169 263.048 169.169 263.047 169.169 263.046C169.169 263.045 169.169 263.044 169.169 263.043C169.169 263.042 169.169 263.041 169.169 263.041C169.169 263.04 169.169 263.039 169.169 263.038C169.169 263.037 169.169 263.036 169.169 263.035C169.169 263.034 169.169 263.033 169.169 263.032C169.169 263.032 169.169 263.031 169.169 263.03C169.169 263.029 169.169 263.028 169.169 263.027C169.169 263.026 169.169 263.025 169.169 263.024C169.169 263.023 169.169 263.023 169.169 263.022C169.169 263.021 169.169 263.02 169.169 263.019C169.169 263.018 169.169 263.017 169.169 263.016C169.169 263.015 169.169 263.014 169.169 263.013C169.169 263.013 169.169 263.012 169.169 263.011C169.169 263.01 169.169 263.009 169.169 263.008C169.169 263.007 169.169 263.006 169.169 263.005C169.169 263.004 169.169 263.004 169.169 263.003C169.169 263.002 169.169 263.001 169.169 263C169.169 262.999 169.169 262.998 169.169 262.997C169.169 262.996 169.169 262.995 169.169 262.995C169.169 262.994 169.169 262.993 169.169 262.992C169.169 262.991 169.169 262.99 169.169 262.989C169.169 262.988 169.169 262.987 169.169 262.986C169.169 262.985 169.169 262.985 169.169 262.984C169.169 262.983 169.169 262.982 169.169 262.981C169.169 262.98 169.169 262.979 169.169 262.978C169.169 262.977 169.169 262.976 169.169 262.976C169.169 262.975 169.169 262.974 169.169 262.973C169.169 262.972 169.169 262.971 169.169 262.97C169.169 262.969 169.169 262.968 169.169 262.967C169.169 262.967 169.169 262.966 169.169 262.965C169.169 262.964 169.169 262.963 169.169 262.962C169.169 262.961 169.169 262.96 169.169 262.959C169.169 262.958 169.169 262.958 169.169 262.957C169.169 262.956 169.169 262.955 169.169 262.954C169.169 262.953 169.169 262.952 169.169 262.951C169.169 262.95 169.169 262.949 169.169 262.949C169.169 262.948 169.169 262.947 169.169 262.946C169.169 262.945 169.169 262.944 169.169 262.943C169.169 262.942 169.169 262.941 169.169 262.94C169.169 262.94 169.169 262.939 169.169 262.938C169.169 262.937 169.169 262.936 169.169 262.935C169.169 262.934 169.169 262.933 169.169 262.932C169.169 262.931 169.169 262.931 169.169 262.93C169.169 262.929 169.169 262.928 169.169 262.927C169.169 262.926 169.169 262.925 169.169 262.924C169.169 262.923 169.169 262.922 169.169 262.922C169.169 262.921 169.169 262.92 169.169 262.919C169.169 262.918 169.169 262.917 169.169 262.916C169.169 262.915 169.169 262.914 169.169 262.913C169.169 262.913 169.169 262.912 169.169 262.911C169.169 262.91 169.169 262.909 169.169 262.908C169.169 262.907 169.169 262.906 169.169 262.905C169.169 262.904 169.169 262.904 169.169 262.903C169.169 262.902 169.169 262.901 169.169 262.9C169.169 262.899 169.169 262.898 169.169 262.897C169.169 262.896 169.169 262.895 169.169 262.895C169.169 262.894 169.169 262.893 169.169 262.892C169.169 262.891 169.169 262.89 169.169 262.889C169.169 262.888 169.169 262.887 169.169 262.886C169.169 262.886 169.169 262.885 169.169 262.884C169.169 262.883 169.169 262.882 169.169 262.881C169.169 262.88 169.169 262.879 169.169 262.878C169.169 262.877 169.169 262.877 169.169 262.876C169.169 262.875 169.169 262.874 169.169 262.873C169.169 262.872 169.169 262.871 169.169 262.87C169.169 262.869 169.169 262.869 169.169 262.868C169.169 262.867 169.169 262.866 169.169 262.865C169.169 262.864 169.169 262.863 169.169 262.862C169.169 262.861 169.169 262.86 169.169 262.86C169.169 262.859 169.169 262.858 169.169 262.857C169.169 262.856 169.169 262.855 169.169 262.854C169.169 262.853 169.169 262.852 169.169 262.851C169.169 262.851 169.169 262.85 169.169 262.849C169.169 262.848 169.169 262.847 169.169 262.846C169.169 262.845 169.169 262.844 169.169 262.843C169.169 262.842 169.169 262.842 169.169 262.841C169.169 262.84 169.169 262.839 169.169 262.838C169.169 262.837 169.169 262.836 169.169 262.835C169.169 262.834 169.169 262.834 169.169 262.833C169.169 262.832 169.169 262.831 169.169 262.83C169.169 262.829 169.169 262.828 169.169 262.827C169.169 262.826 169.169 262.825 169.169 262.825C169.169 262.824 169.169 262.823 169.169 262.822C169.169 262.821 169.169 262.82 169.169 262.819C169.169 262.818 169.169 262.817 169.169 262.816C169.169 262.816 169.169 262.815 169.169 262.814C169.169 262.813 169.169 262.812 169.169 262.811C169.169 262.81 169.169 262.809 169.169 262.808C169.169 262.808 169.169 262.807 169.169 262.806C169.169 262.805 169.169 262.804 169.169 262.803C169.169 262.802 169.169 262.801 169.169 262.8C169.169 262.799 169.169 262.799 169.169 262.798C169.169 262.797 169.169 262.796 169.169 262.795C169.169 262.794 169.169 262.793 169.169 262.792C169.169 262.791 169.169 262.791 169.169 262.79C169.169 262.789 169.169 262.788 169.169 262.787C169.169 262.786 169.169 262.785 169.169 262.784C169.169 262.783 169.169 262.782 169.169 262.782C169.169 262.781 169.169 262.78 169.169 262.779C169.169 262.778 169.169 262.777 169.169 262.776C169.169 262.775 169.169 262.774 169.169 262.774C169.169 262.773 169.169 262.772 169.169 262.771C169.169 262.77 169.169 262.769 169.169 262.768C169.169 262.767 169.169 262.766 169.169 262.765C169.169 262.765 169.169 262.764 169.169 262.763C169.169 262.762 169.169 262.761 169.169 262.76C169.169 262.759 169.169 262.758 169.169 262.757C169.169 262.757 169.169 262.756 169.169 262.755C169.169 262.754 169.169 262.753 169.169 262.752C169.169 262.751 169.169 262.75 169.169 262.749C169.169 262.749 169.169 262.748 169.169 262.747C169.169 262.746 169.169 262.745 169.169 262.744C169.169 262.743 169.169 262.742 169.169 262.741C169.169 262.74 169.169 262.74 169.169 262.739C169.169 262.738 169.169 262.737 169.169 262.736C169.169 262.735 169.169 262.734 169.169 262.733C169.169 262.732 169.169 262.732 169.169 262.731C169.169 262.73 169.169 262.729 169.169 262.728C169.169 262.727 169.169 262.726 169.169 262.725C169.169 262.724 169.169 262.724 169.169 262.723C169.169 262.722 169.169 262.721 169.169 262.72C169.169 262.719 169.169 262.718 169.169 262.717C169.169 262.716 169.169 262.715 169.169 262.715C169.169 262.714 169.169 262.713 169.169 262.712C169.169 262.711 169.169 262.71 169.169 262.709C169.169 262.708 169.169 262.707 169.169 262.707C169.169 262.706 169.169 262.705 169.169 262.704C169.169 262.703 169.169 262.702 169.169 262.701C169.169 262.7 169.169 262.699 169.169 262.699C169.169 262.698 169.169 262.697 169.169 262.696C169.169 262.695 169.169 262.694 169.169 262.693C169.169 262.692 169.169 262.691 169.169 262.691C169.169 262.69 169.169 262.689 169.169 262.688C169.169 262.687 169.169 262.686 169.169 262.685C169.169 262.684 169.169 262.683 169.169 262.683C169.169 262.682 169.169 262.681 169.169 262.68C169.169 262.679 169.169 262.678 169.169 262.677C169.169 262.676 169.169 262.675 169.169 262.675C169.169 262.674 169.169 262.673 169.169 262.672C169.169 262.671 169.169 262.67 169.169 262.669C169.169 262.668 169.169 262.667 169.169 262.666C169.169 262.666 169.169 262.665 169.169 262.664C169.169 262.663 169.169 262.662 169.169 262.661C169.169 262.66 169.169 262.659 169.169 262.658C169.169 262.658 169.169 262.657 169.169 262.656C169.169 262.655 169.169 262.654 169.169 262.653C169.169 262.652 169.169 262.651 169.169 262.65C169.169 262.65 169.169 262.649 169.169 262.648C169.169 262.647 169.169 262.646 169.169 262.645C169.169 262.644 169.169 262.643 169.169 262.642C169.169 262.642 169.169 262.641 169.169 262.64C169.169 262.639 169.169 262.638 169.169 262.637C169.169 262.636 169.169 262.635 169.169 262.634C169.169 262.634 169.169 262.633 169.169 262.632C169.169 262.631 169.169 262.63 169.169 262.629C169.169 262.628 169.169 262.627 169.169 262.626C169.169 262.626 169.169 262.625 169.169 262.624C169.169 262.623 169.169 262.622 169.169 262.621C169.169 262.62 169.169 262.619 169.169 262.618C169.169 262.618 169.169 262.617 169.169 262.616C169.169 262.615 169.169 262.614 169.169 262.613C169.169 262.612 169.169 262.611 169.169 262.61C169.169 262.61 169.169 262.609 169.169 262.608C169.169 262.607 169.169 262.606 169.169 262.605C169.169 262.604 169.169 262.603 169.169 262.603C169.169 262.602 169.169 262.601 169.169 262.6C169.169 262.599 169.169 262.598 169.169 262.597C169.169 262.596 169.169 262.595 169.169 262.595C169.169 262.594 169.169 262.593 169.169 262.592C169.169 262.591 169.169 262.59 169.169 262.589C169.169 262.588 169.169 262.587 169.169 262.587C169.169 262.586 169.169 262.585 169.169 262.584C169.169 262.583 169.169 262.582 169.169 262.581C169.169 262.58 169.169 262.579 169.169 262.579C169.169 262.578 169.169 262.577 169.169 262.576C169.169 262.575 169.169 262.574 169.169 262.573C169.169 262.572 169.169 262.571 169.169 262.571C169.169 262.57 169.169 262.569 169.169 262.568C169.169 262.567 169.169 262.566 169.169 262.565C169.169 262.564 169.169 262.563 169.169 262.563C169.169 262.562 169.169 262.561 169.169 262.56C169.169 262.559 169.169 262.558 169.169 262.557C169.169 262.556 169.169 262.556 169.169 262.555C169.169 262.554 169.169 262.553 169.169 262.552C169.169 262.551 169.169 262.55 169.169 262.549C169.169 262.548 169.169 262.548 169.169 262.547C169.169 262.546 169.169 262.545 169.169 262.544C169.169 262.543 169.169 262.542 169.169 262.541C169.169 262.54 169.169 262.54 169.169 262.539C169.169 262.538 169.169 262.537 169.169 262.536C169.169 262.535 169.169 262.534 169.169 262.533C169.169 262.532 169.169 262.532 169.169 262.531C169.169 262.53 169.169 262.529 169.169 262.528C169.169 262.527 169.169 262.526 169.169 262.525C169.169 262.525 169.169 262.524 169.169 262.523C169.169 262.522 169.169 262.521 169.169 262.52C169.169 262.519 169.169 262.518 169.169 262.517C169.169 262.517 169.169 262.516 169.169 262.515C169.169 262.514 169.169 262.513 169.169 262.512C169.169 262.511 169.169 262.51 169.169 262.51C169.169 262.509 169.169 262.508 169.169 262.507C169.169 262.506 169.169 262.505 169.169 262.504C169.169 262.503 169.169 262.502 169.169 262.502C169.169 262.501 169.169 262.5 169.169 262.499C169.169 262.498 169.169 262.497 169.169 262.496C169.169 262.495 169.169 262.494 169.169 262.494C169.169 262.493 169.169 262.492 169.169 262.491C169.169 262.49 169.169 262.489 169.169 262.488C169.169 262.487 169.169 262.487 169.169 262.486C169.169 262.485 169.169 262.484 169.169 262.483C169.169 262.482 169.169 262.481 169.169 262.48C169.169 262.479 169.169 262.479 169.169 262.478C169.169 262.477 169.169 262.476 169.169 262.475C169.169 262.474 169.169 262.473 169.169 262.472C169.169 262.472 169.169 262.471 169.169 262.47C169.169 262.469 169.169 262.468 169.169 262.467C169.169 262.466 169.169 262.465 169.169 262.464C169.169 262.464 169.169 262.463 169.169 262.462C169.169 262.461 169.169 262.46 169.169 262.459C169.169 262.458 169.169 262.457 169.169 262.457C169.169 262.456 169.169 262.455 169.169 262.454C169.169 262.453 169.169 262.452 169.169 262.451C169.169 262.45 169.169 262.449 169.169 262.449C169.169 262.448 169.169 262.447 169.169 262.446C169.169 262.445 169.169 262.444 169.169 262.443C169.169 262.442 169.169 262.442 169.169 262.441C169.169 262.44 169.169 262.439 169.169 262.438C169.169 262.437 169.169 262.436 169.169 262.435C169.169 262.434 169.169 262.434 169.169 262.433C169.169 262.432 169.169 262.431 169.169 262.43C169.169 262.429 169.169 262.428 169.169 262.427C169.169 262.427 169.169 262.426 169.169 262.425C169.169 262.424 169.169 262.423 169.169 262.422C169.169 262.421 169.169 262.42 169.169 262.42C169.169 262.419 169.169 262.418 169.169 262.417C169.169 262.416 169.169 262.415 169.169 262.414C169.169 262.413 169.169 262.412 169.169 262.412C169.169 262.411 169.169 262.41 169.169 262.409C169.169 262.408 169.169 262.407 169.169 262.406C169.169 262.405 169.169 262.405 169.169 262.404C169.169 262.403 169.169 262.402 169.169 262.401C169.169 262.4 169.169 262.399 169.169 262.398C169.169 262.398 169.169 262.397 169.169 262.396C169.169 262.395 169.169 262.394 169.169 262.393C169.169 262.392 169.169 262.391 169.169 262.39C169.169 262.39 169.169 262.389 169.169 262.388C169.169 262.387 169.169 262.386 169.169 262.385C169.169 262.384 169.169 262.383 169.169 262.383C169.169 262.382 169.169 262.381 169.169 262.38C169.169 262.379 169.169 262.378 169.169 262.377C169.169 262.376 169.169 262.376 169.169 262.375C169.169 262.374 169.169 262.373 169.169 262.372C169.169 262.371 169.169 262.37 169.169 262.369C169.169 262.369 169.169 262.368 169.169 262.367C169.169 262.366 169.169 262.365 169.169 262.364C169.169 262.363 169.169 262.362 169.169 262.361C169.169 262.361 169.169 262.36 169.169 262.359C169.169 262.358 169.169 262.357 169.169 262.356C169.169 262.355 169.169 262.354 169.169 262.354C169.169 262.353 169.169 262.352 169.169 262.351C169.169 262.35 169.169 262.349 169.169 262.348C169.169 262.347 169.169 262.347 169.169 262.346C169.169 262.345 169.169 262.344 169.169 262.343C169.169 262.342 169.169 262.341 169.169 262.34C169.169 262.34 169.169 262.339 169.169 262.338C169.169 262.337 169.169 262.336 169.169 262.335C169.169 262.334 169.169 262.333 169.169 262.333C169.169 262.332 169.169 262.331 169.169 262.33C169.169 262.329 169.169 262.328 169.169 262.327C169.169 262.326 169.169 262.326 169.169 262.325C169.169 262.324 169.169 262.323 169.169 262.322C169.169 262.321 169.169 262.32 169.169 262.319C169.169 262.318 169.169 262.318 169.169 262.317C169.169 262.316 169.169 262.315 169.169 262.314C169.169 262.313 169.169 262.312 169.169 262.311C169.169 262.311 169.169 262.31 169.169 262.309C169.169 262.308 169.169 262.307 169.169 262.306C169.169 262.305 169.169 262.304 169.169 262.304C169.169 262.303 169.169 262.302 169.169 262.301C169.169 262.3 169.169 262.299 169.169 262.298C169.169 262.297 169.169 262.297 169.169 262.296C169.169 262.295 169.169 262.294 169.169 262.293C169.169 262.292 169.169 262.291 169.169 262.29C169.169 262.29 169.169 262.289 169.169 262.288C169.169 262.287 169.169 262.286 169.169 262.285C169.169 262.284 169.169 262.283 169.169 262.283C169.169 262.282 169.169 262.281 169.169 262.28C169.169 262.279 169.169 262.278 169.169 262.277C169.169 262.276 169.169 262.276 169.169 262.275C169.169 262.274 169.169 262.273 169.169 262.272C169.169 262.271 169.169 262.27 169.169 262.269C169.169 262.269 169.169 262.268 169.169 262.267C169.169 262.266 169.169 262.265 169.169 262.264C169.169 262.263 169.169 262.262 169.169 262.262C169.169 262.261 169.169 262.26 169.169 262.259C169.169 262.258 169.169 262.257 169.169 262.256C169.169 262.255 169.169 262.255 169.169 262.254C169.169 262.253 169.169 262.252 169.169 262.251C169.169 262.25 169.169 262.249 169.169 262.248C169.169 262.248 169.169 262.247 169.169 262.246C169.169 262.245 169.169 262.244 169.169 262.243C169.169 262.242 169.169 262.241 169.169 262.241C169.169 262.24 169.169 262.239 169.169 262.238C169.169 262.237 169.169 262.236 169.169 262.235C169.169 262.234 169.169 262.234 169.169 262.233C169.169 262.232 169.169 262.231 169.169 262.23C169.169 262.229 169.169 262.228 169.169 262.228C169.169 262.227 169.169 262.226 169.169 262.225C169.169 262.224 169.169 262.223 169.169 262.222C169.169 262.221 169.169 262.221 169.169 262.22C169.169 262.219 169.169 262.218 169.169 262.217C169.169 262.216 169.169 262.215 169.169 262.214C169.169 262.214 169.169 262.213 169.169 262.212C169.169 262.211 169.169 262.21 169.169 262.209C169.169 262.208 169.169 262.207 169.169 262.207C169.169 262.206 169.169 262.205 169.169 262.204C169.169 262.203 169.169 262.202 169.169 262.201C169.169 262.2 169.169 262.2 169.169 262.199C169.169 262.198 169.169 262.197 169.169 262.196C169.169 262.195 169.169 262.194 169.169 262.193C169.169 262.193 169.169 262.192 169.169 262.191C169.169 262.19 169.169 262.189 169.169 262.188C169.169 262.187 169.169 262.187 169.169 262.186C169.169 262.185 169.169 262.184 169.169 262.183C169.169 262.182 169.169 262.181 169.169 262.18C169.169 262.18 169.169 262.179 169.169 262.178C169.169 262.177 169.169 262.176 169.169 262.175C169.169 262.174 169.169 262.173 169.169 262.173C169.169 262.172 169.169 262.171 169.169 262.17C169.169 262.169 169.169 262.168 169.169 262.167C169.169 262.166 169.169 262.166 169.169 262.165C169.169 262.164 169.169 262.163 169.169 262.162C169.169 262.161 169.169 262.16 169.169 262.16C169.169 262.159 169.169 262.158 169.169 262.157C169.169 262.156 169.169 262.155 169.169 262.154C169.169 262.153 169.169 262.153 169.169 262.152C169.169 262.151 169.169 262.15 169.169 262.149C169.169 262.148 169.169 262.147 169.169 262.146C169.169 262.146 169.169 262.145 169.169 262.144C169.169 262.143 169.169 262.142 169.169 262.141C169.169 262.14 169.169 262.14 169.169 262.139C169.169 262.138 169.169 262.137 169.169 262.136C169.169 262.135 169.169 262.134 169.169 262.133C169.169 262.133 169.169 262.132 169.169 262.131C169.169 262.13 169.169 262.129 169.169 262.128C169.169 262.127 169.169 262.126 169.169 262.126C169.169 262.125 169.169 262.124 169.169 262.123C169.169 262.122 169.169 262.121 169.169 262.12C169.169 262.12 169.169 262.119 169.169 262.118C169.169 262.117 169.169 262.116 169.169 262.115C169.169 262.114 169.169 262.113 169.169 262.113C169.169 262.112 169.169 262.111 169.169 262.11C169.169 262.109 169.169 262.108 169.169 262.107C169.169 262.106 169.169 262.106 169.169 262.105C169.169 262.104 169.169 262.103 169.169 262.102C169.169 262.101 169.169 262.1 169.169 262.1C169.169 262.099 169.169 262.098 169.169 262.097C169.169 262.096 169.169 262.095 169.169 262.094C169.169 262.093 169.169 262.093 169.169 262.092C169.169 262.091 169.169 262.09 169.169 262.089C169.169 262.088 169.169 262.087 169.169 262.087C169.169 262.086 169.169 262.085 169.169 262.084C169.169 262.083 169.169 262.082 169.169 262.081C169.169 262.08 169.169 262.08 169.169 262.079C169.169 262.078 169.169 262.077 169.169 262.076C169.169 262.075 169.169 262.074 169.169 262.074C169.169 262.073 169.169 262.072 169.169 262.071C169.169 262.07 169.169 262.069 169.169 262.068C169.169 262.067 169.169 262.067 169.169 262.066C169.169 262.065 169.169 262.064 169.169 262.063C169.169 262.062 169.169 262.061 169.169 262.061C169.169 262.06 169.169 262.059 169.169 262.058C169.169 262.057 169.169 262.056 169.169 262.055C169.169 262.054 169.169 262.054 169.169 262.053C169.169 262.052 169.169 262.051 169.169 262.05C169.169 262.049 169.169 262.048 169.169 262.048C169.169 262.047 169.169 262.046 169.169 262.045C169.169 262.044 169.169 262.043 169.169 262.042C169.169 262.041 169.169 262.041 169.169 262.04C169.169 262.039 169.169 262.038 169.169 262.037C169.169 262.036 169.169 262.035 169.169 262.035C169.169 262.034 169.169 262.033 169.169 262.032C169.169 262.031 169.169 262.03 169.169 262.029C169.169 262.028 169.169 262.028 169.169 262.027C169.169 262.026 169.169 262.025 169.169 262.024C169.169 262.023 169.169 262.022 169.169 262.022C169.169 262.021 169.169 262.02 169.169 262.019C169.169 262.018 169.169 262.017 169.169 262.016C169.169 262.016 169.169 262.015 169.169 262.014C169.169 262.013 169.169 262.012 169.169 262.011C169.169 262.01 169.169 262.009 169.169 262.009H168.139H167.109C167.109 262.009 167.109 262.01 167.109 262.011C167.109 262.012 167.109 262.013 167.109 262.014C167.109 262.015 167.109 262.016 167.109 262.016C167.109 262.017 167.109 262.018 167.109 262.019C167.109 262.02 167.109 262.021 167.109 262.022C167.109 262.022 167.109 262.023 167.109 262.024C167.109 262.025 167.109 262.026 167.109 262.027C167.109 262.028 167.109 262.028 167.109 262.029C167.109 262.03 167.109 262.031 167.109 262.032C167.109 262.033 167.109 262.034 167.109 262.035C167.109 262.035 167.109 262.036 167.109 262.037C167.109 262.038 167.109 262.039 167.109 262.04C167.109 262.041 167.109 262.041 167.109 262.042C167.109 262.043 167.109 262.044 167.109 262.045C167.109 262.046 167.109 262.047 167.109 262.048C167.109 262.048 167.109 262.049 167.109 262.05C167.109 262.051 167.109 262.052 167.109 262.053C167.109 262.054 167.109 262.054 167.109 262.055C167.109 262.056 167.109 262.057 167.109 262.058C167.109 262.059 167.109 262.06 167.109 262.061C167.109 262.061 167.109 262.062 167.109 262.063C167.109 262.064 167.109 262.065 167.109 262.066C167.109 262.067 167.109 262.067 167.109 262.068C167.109 262.069 167.109 262.07 167.109 262.071C167.109 262.072 167.109 262.073 167.109 262.074C167.109 262.074 167.109 262.075 167.109 262.076C167.109 262.077 167.109 262.078 167.109 262.079C167.109 262.08 167.109 262.08 167.109 262.081C167.109 262.082 167.109 262.083 167.109 262.084C167.109 262.085 167.109 262.086 167.109 262.087C167.109 262.087 167.109 262.088 167.109 262.089C167.109 262.09 167.109 262.091 167.109 262.092C167.109 262.093 167.109 262.093 167.109 262.094C167.109 262.095 167.109 262.096 167.109 262.097C167.109 262.098 167.109 262.099 167.109 262.1C167.109 262.1 167.109 262.101 167.109 262.102C167.109 262.103 167.109 262.104 167.109 262.105C167.109 262.106 167.109 262.106 167.109 262.107C167.109 262.108 167.109 262.109 167.109 262.11C167.109 262.111 167.109 262.112 167.109 262.113C167.109 262.113 167.109 262.114 167.109 262.115C167.109 262.116 167.109 262.117 167.109 262.118C167.109 262.119 167.109 262.12 167.109 262.12C167.109 262.121 167.109 262.122 167.109 262.123C167.109 262.124 167.109 262.125 167.109 262.126C167.109 262.126 167.109 262.127 167.109 262.128C167.109 262.129 167.109 262.13 167.109 262.131C167.109 262.132 167.109 262.133 167.109 262.133C167.109 262.134 167.109 262.135 167.109 262.136C167.109 262.137 167.109 262.138 167.109 262.139C167.109 262.14 167.109 262.14 167.109 262.141C167.109 262.142 167.109 262.143 167.109 262.144C167.109 262.145 167.109 262.146 167.109 262.146C167.109 262.147 167.109 262.148 167.109 262.149C167.109 262.15 167.109 262.151 167.109 262.152C167.109 262.153 167.109 262.153 167.109 262.154C167.109 262.155 167.109 262.156 167.109 262.157C167.109 262.158 167.109 262.159 167.109 262.16C167.109 262.16 167.109 262.161 167.109 262.162C167.109 262.163 167.109 262.164 167.109 262.165C167.109 262.166 167.109 262.166 167.109 262.167C167.109 262.168 167.109 262.169 167.109 262.17C167.109 262.171 167.109 262.172 167.109 262.173C167.109 262.173 167.109 262.174 167.109 262.175C167.109 262.176 167.109 262.177 167.109 262.178C167.109 262.179 167.109 262.18 167.109 262.18C167.109 262.181 167.109 262.182 167.109 262.183C167.109 262.184 167.109 262.185 167.109 262.186C167.109 262.187 167.109 262.187 167.109 262.188C167.109 262.189 167.109 262.19 167.109 262.191C167.109 262.192 167.109 262.193 167.109 262.193C167.109 262.194 167.109 262.195 167.109 262.196C167.109 262.197 167.109 262.198 167.109 262.199C167.109 262.2 167.109 262.2 167.109 262.201C167.109 262.202 167.109 262.203 167.109 262.204C167.109 262.205 167.109 262.206 167.109 262.207C167.109 262.207 167.109 262.208 167.109 262.209C167.109 262.21 167.109 262.211 167.109 262.212C167.109 262.213 167.109 262.214 167.109 262.214C167.109 262.215 167.109 262.216 167.109 262.217C167.109 262.218 167.109 262.219 167.109 262.22C167.109 262.221 167.109 262.221 167.109 262.222C167.109 262.223 167.109 262.224 167.109 262.225C167.109 262.226 167.109 262.227 167.109 262.228C167.109 262.228 167.109 262.229 167.109 262.23C167.109 262.231 167.109 262.232 167.109 262.233C167.109 262.234 167.109 262.234 167.109 262.235C167.109 262.236 167.109 262.237 167.109 262.238C167.109 262.239 167.109 262.24 167.109 262.241C167.109 262.241 167.109 262.242 167.109 262.243C167.109 262.244 167.109 262.245 167.109 262.246C167.109 262.247 167.109 262.248 167.109 262.248C167.109 262.249 167.109 262.25 167.109 262.251C167.109 262.252 167.109 262.253 167.109 262.254C167.109 262.255 167.109 262.255 167.109 262.256C167.109 262.257 167.109 262.258 167.109 262.259C167.109 262.26 167.109 262.261 167.109 262.262C167.109 262.262 167.109 262.263 167.109 262.264C167.109 262.265 167.109 262.266 167.109 262.267C167.109 262.268 167.109 262.269 167.109 262.269C167.109 262.27 167.109 262.271 167.109 262.272C167.109 262.273 167.109 262.274 167.109 262.275C167.109 262.276 167.109 262.276 167.109 262.277C167.109 262.278 167.109 262.279 167.109 262.28C167.109 262.281 167.109 262.282 167.109 262.283C167.109 262.283 167.109 262.284 167.109 262.285C167.109 262.286 167.109 262.287 167.109 262.288C167.109 262.289 167.109 262.29 167.109 262.29C167.109 262.291 167.109 262.292 167.109 262.293C167.109 262.294 167.109 262.295 167.109 262.296C167.109 262.297 167.109 262.297 167.109 262.298C167.109 262.299 167.109 262.3 167.109 262.301C167.109 262.302 167.109 262.303 167.109 262.304C167.109 262.304 167.109 262.305 167.109 262.306C167.109 262.307 167.109 262.308 167.109 262.309C167.109 262.31 167.109 262.311 167.109 262.311C167.109 262.312 167.109 262.313 167.109 262.314C167.109 262.315 167.109 262.316 167.109 262.317C167.109 262.318 167.109 262.318 167.109 262.319C167.109 262.32 167.109 262.321 167.109 262.322C167.109 262.323 167.109 262.324 167.109 262.325C167.109 262.326 167.109 262.326 167.109 262.327C167.109 262.328 167.109 262.329 167.109 262.33C167.109 262.331 167.109 262.332 167.109 262.333C167.109 262.333 167.109 262.334 167.109 262.335C167.109 262.336 167.109 262.337 167.109 262.338C167.109 262.339 167.109 262.34 167.109 262.34C167.109 262.341 167.109 262.342 167.109 262.343C167.109 262.344 167.109 262.345 167.109 262.346C167.109 262.347 167.109 262.347 167.109 262.348C167.109 262.349 167.109 262.35 167.109 262.351C167.109 262.352 167.109 262.353 167.109 262.354C167.109 262.354 167.109 262.355 167.109 262.356C167.109 262.357 167.109 262.358 167.109 262.359C167.109 262.36 167.109 262.361 167.109 262.361C167.109 262.362 167.109 262.363 167.109 262.364C167.109 262.365 167.109 262.366 167.109 262.367C167.109 262.368 167.109 262.369 167.109 262.369C167.109 262.37 167.109 262.371 167.109 262.372C167.109 262.373 167.109 262.374 167.109 262.375C167.109 262.376 167.109 262.376 167.109 262.377C167.109 262.378 167.109 262.379 167.109 262.38C167.109 262.381 167.109 262.382 167.109 262.383C167.109 262.383 167.109 262.384 167.109 262.385C167.109 262.386 167.109 262.387 167.109 262.388C167.109 262.389 167.109 262.39 167.109 262.39C167.109 262.391 167.109 262.392 167.109 262.393C167.109 262.394 167.109 262.395 167.109 262.396C167.109 262.397 167.109 262.398 167.109 262.398C167.109 262.399 167.109 262.4 167.109 262.401C167.109 262.402 167.109 262.403 167.109 262.404C167.109 262.405 167.109 262.405 167.109 262.406C167.109 262.407 167.109 262.408 167.109 262.409C167.109 262.41 167.109 262.411 167.109 262.412C167.109 262.412 167.109 262.413 167.109 262.414C167.109 262.415 167.109 262.416 167.109 262.417C167.109 262.418 167.109 262.419 167.109 262.42C167.109 262.42 167.109 262.421 167.109 262.422C167.109 262.423 167.109 262.424 167.109 262.425C167.109 262.426 167.109 262.427 167.109 262.427C167.109 262.428 167.109 262.429 167.109 262.43C167.109 262.431 167.109 262.432 167.109 262.433C167.109 262.434 167.109 262.434 167.109 262.435C167.109 262.436 167.109 262.437 167.109 262.438C167.109 262.439 167.109 262.44 167.109 262.441C167.109 262.442 167.109 262.442 167.109 262.443C167.109 262.444 167.109 262.445 167.109 262.446C167.109 262.447 167.109 262.448 167.109 262.449C167.109 262.449 167.109 262.45 167.109 262.451C167.109 262.452 167.109 262.453 167.109 262.454C167.109 262.455 167.109 262.456 167.109 262.457C167.109 262.457 167.109 262.458 167.109 262.459C167.109 262.46 167.109 262.461 167.109 262.462C167.109 262.463 167.109 262.464 167.109 262.464C167.109 262.465 167.109 262.466 167.109 262.467C167.109 262.468 167.109 262.469 167.109 262.47C167.109 262.471 167.109 262.472 167.109 262.472C167.109 262.473 167.109 262.474 167.109 262.475C167.109 262.476 167.109 262.477 167.109 262.478C167.109 262.479 167.109 262.479 167.109 262.48C167.109 262.481 167.109 262.482 167.109 262.483C167.109 262.484 167.109 262.485 167.109 262.486C167.109 262.487 167.109 262.487 167.109 262.488C167.109 262.489 167.109 262.49 167.109 262.491C167.109 262.492 167.109 262.493 167.109 262.494C167.109 262.494 167.109 262.495 167.109 262.496C167.109 262.497 167.109 262.498 167.109 262.499C167.109 262.5 167.109 262.501 167.109 262.502C167.109 262.502 167.109 262.503 167.109 262.504C167.109 262.505 167.109 262.506 167.109 262.507C167.109 262.508 167.109 262.509 167.109 262.51C167.109 262.51 167.109 262.511 167.109 262.512C167.109 262.513 167.109 262.514 167.109 262.515C167.109 262.516 167.109 262.517 167.109 262.517C167.109 262.518 167.109 262.519 167.109 262.52C167.109 262.521 167.109 262.522 167.109 262.523C167.109 262.524 167.109 262.525 167.109 262.525C167.109 262.526 167.109 262.527 167.109 262.528C167.109 262.529 167.109 262.53 167.109 262.531C167.109 262.532 167.109 262.532 167.109 262.533C167.109 262.534 167.109 262.535 167.109 262.536C167.109 262.537 167.109 262.538 167.109 262.539C167.109 262.54 167.109 262.54 167.109 262.541C167.109 262.542 167.109 262.543 167.109 262.544C167.109 262.545 167.109 262.546 167.109 262.547C167.109 262.548 167.109 262.548 167.109 262.549C167.109 262.55 167.109 262.551 167.109 262.552C167.109 262.553 167.109 262.554 167.109 262.555C167.109 262.556 167.109 262.556 167.109 262.557C167.109 262.558 167.109 262.559 167.109 262.56C167.109 262.561 167.109 262.562 167.109 262.563C167.109 262.563 167.109 262.564 167.109 262.565C167.109 262.566 167.109 262.567 167.109 262.568C167.109 262.569 167.109 262.57 167.109 262.571C167.109 262.571 167.109 262.572 167.109 262.573C167.109 262.574 167.109 262.575 167.109 262.576C167.109 262.577 167.109 262.578 167.109 262.579C167.109 262.579 167.109 262.58 167.109 262.581C167.109 262.582 167.109 262.583 167.109 262.584C167.109 262.585 167.109 262.586 167.109 262.587C167.109 262.587 167.109 262.588 167.109 262.589C167.109 262.59 167.109 262.591 167.109 262.592C167.109 262.593 167.109 262.594 167.109 262.595C167.109 262.595 167.109 262.596 167.109 262.597C167.109 262.598 167.109 262.599 167.109 262.6C167.109 262.601 167.109 262.602 167.109 262.603C167.109 262.603 167.109 262.604 167.109 262.605C167.109 262.606 167.109 262.607 167.109 262.608C167.109 262.609 167.109 262.61 167.109 262.61C167.109 262.611 167.109 262.612 167.109 262.613C167.109 262.614 167.109 262.615 167.109 262.616C167.109 262.617 167.109 262.618 167.109 262.618C167.109 262.619 167.109 262.62 167.109 262.621C167.109 262.622 167.109 262.623 167.109 262.624C167.109 262.625 167.109 262.626 167.109 262.626C167.109 262.627 167.109 262.628 167.109 262.629C167.109 262.63 167.109 262.631 167.109 262.632C167.109 262.633 167.109 262.634 167.109 262.634C167.109 262.635 167.109 262.636 167.109 262.637C167.109 262.638 167.109 262.639 167.109 262.64C167.109 262.641 167.109 262.642 167.109 262.642C167.109 262.643 167.109 262.644 167.109 262.645C167.109 262.646 167.109 262.647 167.109 262.648C167.109 262.649 167.109 262.65 167.109 262.65C167.109 262.651 167.109 262.652 167.109 262.653C167.109 262.654 167.109 262.655 167.109 262.656C167.109 262.657 167.109 262.658 167.109 262.658C167.109 262.659 167.109 262.66 167.109 262.661C167.109 262.662 167.109 262.663 167.109 262.664C167.109 262.665 167.109 262.666 167.109 262.666C167.109 262.667 167.109 262.668 167.109 262.669C167.109 262.67 167.109 262.671 167.109 262.672C167.109 262.673 167.109 262.674 167.109 262.675C167.109 262.675 167.109 262.676 167.109 262.677C167.109 262.678 167.109 262.679 167.109 262.68C167.109 262.681 167.109 262.682 167.109 262.683C167.109 262.683 167.109 262.684 167.109 262.685C167.109 262.686 167.109 262.687 167.109 262.688C167.109 262.689 167.109 262.69 167.109 262.691C167.109 262.691 167.109 262.692 167.109 262.693C167.109 262.694 167.109 262.695 167.109 262.696C167.109 262.697 167.109 262.698 167.109 262.699C167.109 262.699 167.109 262.7 167.109 262.701C167.109 262.702 167.109 262.703 167.109 262.704C167.109 262.705 167.109 262.706 167.109 262.707C167.109 262.707 167.109 262.708 167.109 262.709C167.109 262.71 167.109 262.711 167.109 262.712C167.109 262.713 167.109 262.714 167.109 262.715C167.109 262.715 167.109 262.716 167.109 262.717C167.109 262.718 167.109 262.719 167.109 262.72C167.109 262.721 167.109 262.722 167.109 262.723C167.109 262.724 167.109 262.724 167.109 262.725C167.109 262.726 167.109 262.727 167.109 262.728C167.109 262.729 167.109 262.73 167.109 262.731C167.109 262.732 167.109 262.732 167.109 262.733C167.109 262.734 167.109 262.735 167.109 262.736C167.109 262.737 167.109 262.738 167.109 262.739C167.109 262.74 167.109 262.74 167.109 262.741C167.109 262.742 167.109 262.743 167.109 262.744C167.109 262.745 167.109 262.746 167.109 262.747C167.109 262.748 167.109 262.749 167.109 262.749C167.109 262.75 167.109 262.751 167.109 262.752C167.109 262.753 167.109 262.754 167.109 262.755C167.109 262.756 167.109 262.757 167.109 262.757C167.109 262.758 167.109 262.759 167.109 262.76C167.109 262.761 167.109 262.762 167.109 262.763C167.109 262.764 167.109 262.765 167.109 262.765C167.109 262.766 167.109 262.767 167.109 262.768C167.109 262.769 167.109 262.77 167.109 262.771C167.109 262.772 167.109 262.773 167.109 262.774C167.109 262.774 167.109 262.775 167.109 262.776C167.109 262.777 167.109 262.778 167.109 262.779C167.109 262.78 167.109 262.781 167.109 262.782C167.109 262.782 167.109 262.783 167.109 262.784C167.109 262.785 167.109 262.786 167.109 262.787C167.109 262.788 167.109 262.789 167.109 262.79C167.109 262.791 167.109 262.791 167.109 262.792C167.109 262.793 167.109 262.794 167.109 262.795C167.109 262.796 167.109 262.797 167.109 262.798C167.109 262.799 167.109 262.799 167.109 262.8C167.109 262.801 167.109 262.802 167.109 262.803C167.109 262.804 167.109 262.805 167.109 262.806C167.109 262.807 167.109 262.808 167.109 262.808C167.109 262.809 167.109 262.81 167.109 262.811C167.109 262.812 167.109 262.813 167.109 262.814C167.109 262.815 167.109 262.816 167.109 262.816C167.109 262.817 167.109 262.818 167.109 262.819C167.109 262.82 167.109 262.821 167.109 262.822C167.109 262.823 167.109 262.824 167.109 262.825C167.109 262.825 167.109 262.826 167.109 262.827C167.109 262.828 167.109 262.829 167.109 262.83C167.109 262.831 167.109 262.832 167.109 262.833C167.109 262.834 167.109 262.834 167.109 262.835C167.109 262.836 167.109 262.837 167.109 262.838C167.109 262.839 167.109 262.84 167.109 262.841C167.109 262.842 167.109 262.842 167.109 262.843C167.109 262.844 167.109 262.845 167.109 262.846C167.109 262.847 167.109 262.848 167.109 262.849C167.109 262.85 167.109 262.851 167.109 262.851C167.109 262.852 167.109 262.853 167.109 262.854C167.109 262.855 167.109 262.856 167.109 262.857C167.109 262.858 167.109 262.859 167.109 262.86C167.109 262.86 167.109 262.861 167.109 262.862C167.109 262.863 167.109 262.864 167.109 262.865C167.109 262.866 167.109 262.867 167.109 262.868C167.109 262.869 167.109 262.869 167.109 262.87C167.109 262.871 167.109 262.872 167.109 262.873C167.109 262.874 167.109 262.875 167.109 262.876C167.109 262.877 167.109 262.877 167.109 262.878C167.109 262.879 167.109 262.88 167.109 262.881C167.109 262.882 167.109 262.883 167.109 262.884C167.109 262.885 167.109 262.886 167.109 262.886C167.109 262.887 167.109 262.888 167.109 262.889C167.109 262.89 167.109 262.891 167.109 262.892C167.109 262.893 167.109 262.894 167.109 262.895C167.109 262.895 167.109 262.896 167.109 262.897C167.109 262.898 167.109 262.899 167.109 262.9C167.109 262.901 167.109 262.902 167.109 262.903C167.109 262.904 167.109 262.904 167.109 262.905C167.109 262.906 167.109 262.907 167.109 262.908C167.109 262.909 167.109 262.91 167.109 262.911C167.109 262.912 167.109 262.913 167.109 262.913C167.109 262.914 167.109 262.915 167.109 262.916C167.109 262.917 167.109 262.918 167.109 262.919C167.109 262.92 167.109 262.921 167.109 262.922C167.109 262.922 167.109 262.923 167.109 262.924C167.109 262.925 167.109 262.926 167.109 262.927C167.109 262.928 167.109 262.929 167.109 262.93C167.109 262.931 167.109 262.931 167.109 262.932C167.109 262.933 167.109 262.934 167.109 262.935C167.109 262.936 167.109 262.937 167.109 262.938C167.109 262.939 167.109 262.94 167.109 262.94C167.109 262.941 167.109 262.942 167.109 262.943C167.109 262.944 167.109 262.945 167.109 262.946C167.109 262.947 167.109 262.948 167.109 262.949C167.109 262.949 167.109 262.95 167.109 262.951C167.109 262.952 167.109 262.953 167.109 262.954C167.109 262.955 167.109 262.956 167.109 262.957C167.109 262.958 167.109 262.958 167.109 262.959C167.109 262.96 167.109 262.961 167.109 262.962C167.109 262.963 167.109 262.964 167.109 262.965C167.109 262.966 167.109 262.967 167.109 262.967C167.109 262.968 167.109 262.969 167.109 262.97C167.109 262.971 167.109 262.972 167.109 262.973C167.109 262.974 167.109 262.975 167.109 262.976C167.109 262.976 167.109 262.977 167.109 262.978C167.109 262.979 167.109 262.98 167.109 262.981C167.109 262.982 167.109 262.983 167.109 262.984C167.109 262.985 167.109 262.985 167.109 262.986C167.109 262.987 167.109 262.988 167.109 262.989C167.109 262.99 167.109 262.991 167.109 262.992C167.109 262.993 167.109 262.994 167.109 262.995C167.109 262.995 167.109 262.996 167.109 262.997C167.109 262.998 167.109 262.999 167.109 263C167.109 263.001 167.109 263.002 167.109 263.003C167.109 263.004 167.109 263.004 167.109 263.005C167.109 263.006 167.109 263.007 167.109 263.008C167.109 263.009 167.109 263.01 167.109 263.011C167.109 263.012 167.109 263.013 167.109 263.013C167.109 263.014 167.109 263.015 167.109 263.016C167.109 263.017 167.109 263.018 167.109 263.019C167.109 263.02 167.109 263.021 167.109 263.022C167.109 263.023 167.109 263.023 167.109 263.024C167.109 263.025 167.109 263.026 167.109 263.027C167.109 263.028 167.109 263.029 167.109 263.03C167.109 263.031 167.109 263.032 167.109 263.032C167.109 263.033 167.109 263.034 167.109 263.035C167.109 263.036 167.109 263.037 167.109 263.038C167.109 263.039 167.109 263.04 167.109 263.041C167.109 263.041 167.109 263.042 167.109 263.043C167.109 263.044 167.109 263.045 167.109 263.046C167.109 263.047 167.109 263.048 167.109 263.049C167.109 263.05 167.109 263.051 167.109 263.051C167.109 263.052 167.109 263.053 167.109 263.054C167.109 263.055 167.109 263.056 167.109 263.057C167.109 263.058 167.109 263.059 167.109 263.06C167.109 263.06 167.109 263.061 167.109 263.062C167.109 263.063 167.109 263.064 167.109 263.065C167.109 263.066 167.109 263.067 167.109 263.068C167.109 263.069 167.109 263.07 167.109 263.07C167.109 263.071 167.109 263.072 167.109 263.073C167.109 263.074 167.109 263.075 167.109 263.076C167.109 263.077 167.109 263.078 167.109 263.079C167.109 263.079 167.109 263.08 167.109 263.081C167.109 263.082 167.109 263.083 167.109 263.084C167.109 263.085 167.109 263.086 167.109 263.087C167.109 263.088 167.109 263.089 167.109 263.089C167.109 263.09 167.109 263.091 167.109 263.092C167.109 263.093 167.109 263.094 167.109 263.095C167.109 263.096 167.109 263.097 167.109 263.098C167.109 263.099 167.109 263.099 167.109 263.1C167.109 263.101 167.109 263.102 167.109 263.103C167.109 263.104 167.109 263.105 167.109 263.106C167.109 263.107 167.109 263.108 167.109 263.108C167.109 263.109 167.109 263.11 167.109 263.111C167.109 263.112 167.109 263.113 167.109 263.114C167.109 263.115 167.109 263.116 167.109 263.117C167.109 263.118 167.109 263.118 167.109 263.119C167.109 263.12 167.109 263.121 167.109 263.122C167.109 263.123 167.109 263.124 167.109 263.125C167.109 263.126 167.109 263.127 167.109 263.128C167.109 263.128 167.109 263.129 167.109 263.13C167.109 263.131 167.109 263.132 167.109 263.133C167.109 263.134 167.109 263.135 167.109 263.136C167.109 263.137 167.109 263.138 167.109 263.138C167.109 263.139 167.109 263.14 167.109 263.141C167.109 263.142 167.109 263.143 167.109 263.144C167.109 263.145 167.109 263.146 167.109 263.147C167.109 263.148 167.109 263.148 167.109 263.149C167.109 263.15 167.109 263.151 167.109 263.152C167.109 263.153 167.109 263.154 167.109 263.155C167.109 263.156 167.109 263.157 167.109 263.158C167.109 263.158 167.109 263.159 167.109 263.16C167.109 263.161 167.109 263.162 167.109 263.163C167.109 263.164 167.109 263.165 167.109 263.166C167.109 263.167 167.109 263.168 167.109 263.168C167.109 263.169 167.109 263.17 167.109 263.171C167.109 263.172 167.109 263.173 167.109 263.174C167.109 263.175 167.109 263.176 167.109 263.177C167.109 263.178 167.109 263.178 167.109 263.179C167.109 263.18 167.109 263.181 167.109 263.182C167.109 263.183 167.109 263.184 167.109 263.185C167.109 263.186 167.109 263.187 167.109 263.188C167.109 263.188 167.109 263.189 167.109 263.19C167.109 263.191 167.109 263.192 167.109 263.193C167.109 263.194 167.109 263.195 167.109 263.196C167.109 263.197 167.109 263.198 167.109 263.198C167.109 263.199 167.109 263.2 167.109 263.201C167.109 263.202 167.109 263.203 167.109 263.204C167.109 263.205 167.109 263.206 167.109 263.207C167.109 263.208 167.109 263.208 167.109 263.209C167.109 263.21 167.109 263.211 167.109 263.212C167.109 263.213 167.109 263.214 167.109 263.215C167.109 263.216 167.109 263.217 167.109 263.218C167.109 263.218 167.109 263.219 167.109 263.22C167.109 263.221 167.109 263.222 167.109 263.223C167.109 263.224 167.109 263.225 167.109 263.226C167.109 263.227 167.109 263.228 167.109 263.228C167.109 263.229 167.109 263.23 167.109 263.231C167.109 263.232 167.109 263.233 167.109 263.234C167.109 263.235 167.109 263.236 167.109 263.237C167.109 263.238 167.109 263.239 167.109 263.239C167.109 263.24 167.109 263.241 167.109 263.242C167.109 263.243 167.109 263.244 167.109 263.245C167.109 263.246 167.109 263.247 167.109 263.248C167.109 263.249 167.109 263.249 167.109 263.25C167.109 263.251 167.109 263.252 167.109 263.253C167.109 263.254 167.109 263.255 167.109 263.256C167.109 263.257 167.109 263.258 167.109 263.259C167.109 263.259 167.109 263.26 167.109 263.261C167.109 263.262 167.109 263.263 167.109 263.264C167.109 263.265 167.109 263.266 167.109 263.267C167.109 263.268 167.109 263.269 167.109 263.27C167.109 263.27 167.109 263.271 167.109 263.272C167.109 263.273 167.109 263.274 167.109 263.275C167.109 263.276 167.109 263.277 167.109 263.278C167.109 263.279 167.109 263.28 167.109 263.28C167.109 263.281 167.109 263.282 167.109 263.283C167.109 263.284 167.109 263.285 167.109 263.286C167.109 263.287 167.109 263.288 167.109 263.289C167.109 263.29 167.109 263.291 167.109 263.291C167.109 263.292 167.109 263.293 167.109 263.294C167.109 263.295 167.109 263.296 167.109 263.297C167.109 263.298 167.109 263.299 167.109 263.3C167.109 263.301 167.109 263.302 167.109 263.302C167.109 263.303 167.109 263.304 167.109 263.305C167.109 263.306 167.109 263.307 167.109 263.308C167.109 263.309 167.109 263.31 167.109 263.311C167.109 263.312 167.109 263.312 167.109 263.313C167.109 263.314 167.109 263.315 167.109 263.316C167.109 263.317 167.109 263.318 167.109 263.319C167.109 263.32 167.109 263.321 167.109 263.322C167.109 263.323 167.109 263.323 167.109 263.324C167.109 263.325 167.109 263.326 167.109 263.327C167.109 263.328 167.109 263.329 167.109 263.33C167.109 263.331 167.109 263.332 167.109 263.333C167.109 263.334 167.109 263.334 167.109 263.335C167.109 263.336 167.109 263.337 167.109 263.338C167.109 263.339 167.109 263.34 167.109 263.341C167.109 263.342 167.109 263.343 167.109 263.344C167.109 263.344 167.109 263.345 167.109 263.346C167.109 263.347 167.109 263.348 167.109 263.349C167.109 263.35 167.109 263.351 167.109 263.352C167.109 263.353 167.109 263.354 167.109 263.355C167.109 263.355 167.109 263.356 167.109 263.357C167.109 263.358 167.109 263.359 167.109 263.36C167.109 263.361 167.109 263.362 167.109 263.363C167.109 263.364 167.109 263.365 167.109 263.366C167.109 263.366 167.109 263.367 167.109 263.368C167.109 263.369 167.109 263.37 167.109 263.371C167.109 263.372 167.109 263.373 167.109 263.374C167.109 263.375 167.109 263.376 167.109 263.377H168.139ZM168.139 262.009H169.169V243.521H168.139H167.109V262.009H168.139ZM168.139 243.521V244.551H172.907V243.521V242.491H168.139V243.521ZM172.907 243.521H171.877V272.812H172.907H173.937V243.521H172.907ZM172.907 272.812V271.782H167.294V272.812V273.842H172.907V272.812ZM167.294 272.812L168.199 272.32L158.02 253.591L157.115 254.082L156.21 254.574L166.389 273.303L167.294 272.812ZM157.115 254.082L158.03 253.61C157.828 253.218 157.645 252.827 157.481 252.437L156.531 252.835L155.582 253.233C155.767 253.675 155.973 254.116 156.2 254.555L157.115 254.082ZM156.531 252.835L157.486 252.447C157.32 252.04 157.175 251.642 157.049 251.252L156.069 251.568L155.088 251.884C155.231 252.325 155.394 252.772 155.577 253.223L156.531 252.835ZM156.069 251.568V250.538H155.928V251.568V252.598H156.069V251.568ZM155.928 251.568L154.9 251.628C154.925 252.064 154.938 252.506 154.938 252.956H155.968H156.998C156.998 252.467 156.984 251.984 156.956 251.507L155.928 251.568ZM155.968 252.956L154.939 252.986C154.952 253.432 154.958 253.878 154.958 254.324H155.988H157.018C157.018 253.858 157.011 253.392 156.998 252.926L155.968 252.956ZM155.988 254.324H154.958V272.812H155.988H157.018V254.324H155.988ZM155.988 272.812V271.782H151.241V272.812V273.842H155.988V272.812ZM178.932 255.33L178.199 254.607L178.196 254.609L178.932 255.33ZM195.227 264.04V265.07H196.257V264.04H195.227ZM179.355 264.04H178.325V265.07H179.355V264.04ZM179.355 260.882V259.852H178.325V260.882H179.355ZM190.057 260.882V261.912H191.087V260.882H190.057ZM189.051 257.643L188.248 258.288L188.255 258.296L189.051 257.643ZM182.654 258.066L183.496 258.658L183.5 258.654L182.654 258.066ZM182.734 267.802L181.908 268.417L182.734 267.802ZM189.152 268.748L189.691 269.626L189.695 269.623L189.152 268.748ZM190.982 266.937L191.423 266.006L190.586 265.611L190.104 266.4L190.982 266.937ZM195.026 268.848L195.957 269.29L196.399 268.358L195.466 267.917L195.026 268.848ZM191.928 272.067L191.409 271.177L191.405 271.18L191.928 272.067ZM178.912 270.599L178.173 271.316L178.176 271.319L178.912 270.599ZM176.237 263.256H177.267V262.612H176.237H175.207V263.256H176.237ZM176.237 262.612H177.267C177.267 259.813 178.092 257.662 179.669 256.05L178.932 255.33L178.196 254.609C176.178 256.673 175.207 259.376 175.207 262.612H176.237ZM178.932 255.33L179.666 256.053C181.255 254.44 183.351 253.604 186.054 253.604V252.574V251.544C182.883 251.544 180.23 252.545 178.199 254.607L178.932 255.33ZM186.054 252.574V253.604C188.765 253.604 190.721 254.398 192.076 255.867L192.833 255.169L193.59 254.47C191.754 252.48 189.19 251.544 186.054 251.544V252.574ZM192.833 255.169L192.076 255.867C193.45 257.356 194.197 259.467 194.197 262.33H195.227H196.257C196.257 259.106 195.409 256.441 193.59 254.47L192.833 255.169ZM195.227 262.33H194.197V264.04H195.227H196.257V262.33H195.227ZM195.227 264.04V263.01H179.355V264.04V265.07H195.227V264.04ZM179.355 264.04H180.385V260.882H179.355H178.325V264.04H179.355ZM179.355 260.882V261.912H190.057V260.882V259.852H179.355V260.882ZM190.057 260.882H191.087V260.6H190.057H189.027V260.882H190.057ZM190.057 260.6H191.087C191.087 259.232 190.683 258.009 189.848 256.99L189.051 257.643L188.255 258.296C188.76 258.913 189.027 259.662 189.027 260.6H190.057ZM189.051 257.643L189.854 256.998C188.949 255.872 187.613 255.386 186.054 255.386V256.416V257.446C187.177 257.446 187.839 257.779 188.248 258.288L189.051 257.643ZM186.054 256.416V255.386C184.262 255.386 182.791 256.064 181.808 257.478L182.654 258.066L183.5 258.654C184.046 257.868 184.841 257.446 186.054 257.446V256.416ZM182.654 258.066L181.812 257.473C180.895 258.776 180.477 260.394 180.477 262.25H181.507H182.537C182.537 260.699 182.884 259.528 183.496 258.658L182.654 258.066ZM181.507 262.25H180.477V263.377H181.507H182.537V262.25H181.507ZM181.507 263.377H180.477C180.477 265.372 180.918 267.087 181.908 268.417L182.734 267.802L183.561 267.188C182.914 266.318 182.537 265.082 182.537 263.377H181.507ZM182.734 267.802L181.908 268.417C182.954 269.823 184.495 270.482 186.356 270.482V269.452V268.422C185.024 268.422 184.151 267.981 183.561 267.188L182.734 267.802ZM186.356 269.452V270.482C187.603 270.482 188.731 270.215 189.691 269.626L189.152 268.748L188.613 267.87C188.044 268.22 187.308 268.422 186.356 268.422V269.452ZM189.152 268.748L189.695 269.623C190.599 269.062 191.328 268.347 191.861 267.474L190.982 266.937L190.104 266.4C189.751 266.976 189.261 267.468 188.609 267.873L189.152 268.748ZM190.982 266.937L190.542 267.869L194.586 269.78L195.026 268.848L195.466 267.917L191.423 266.006L190.982 266.937ZM195.026 268.848L194.095 268.407C193.581 269.491 192.708 270.419 191.409 271.177L191.928 272.067L192.447 272.957C194.044 272.025 195.237 270.808 195.957 269.29L195.026 268.848ZM191.928 272.067L191.405 271.18C190.174 271.904 188.533 272.305 186.416 272.305V273.335V274.365C188.778 274.365 190.812 273.92 192.451 272.955L191.928 272.067ZM186.416 273.335V272.305C183.398 272.305 181.191 271.455 179.649 269.878L178.912 270.599L178.176 271.319C180.201 273.39 182.997 274.365 186.416 274.365V273.335ZM178.912 270.599L179.651 269.881C178.089 268.272 177.267 266.101 177.267 263.256H176.237H175.207C175.207 266.526 176.167 269.25 178.173 271.316L178.912 270.599ZM196.012 253.137V252.107H194.511L195.051 253.507L196.012 253.137ZM201.242 253.137L202.213 252.792L201.969 252.107H201.242V253.137ZM205.487 265.087L206.458 264.744L206.458 264.742L205.487 265.087ZM205.889 266.374L204.894 266.639L204.899 266.659L204.906 266.679L205.889 266.374ZM206.151 267.36L205.141 267.562L205.306 268.39H206.151V267.36ZM206.251 267.36V268.39H207.096L207.261 267.562L206.251 267.36ZM206.513 266.374L207.497 266.679L207.5 266.67L206.513 266.374ZM206.915 265.087L205.946 264.737L205.941 264.753L205.935 264.769L206.915 265.087ZM211.22 253.137V252.107H210.497L210.251 252.788L211.22 253.137ZM216.048 253.137L217.01 253.506L217.547 252.107H216.048V253.137ZM208.505 272.812V273.842H209.213L209.466 273.18L208.505 272.812ZM203.596 272.812L202.635 273.182L202.889 273.842H203.596V272.812ZM196.012 253.137V254.167H201.242V253.137V252.107H196.012V253.137ZM201.242 253.137L200.272 253.482L204.516 265.431L205.487 265.087L206.458 264.742L202.213 252.792L201.242 253.137ZM205.487 265.087L204.516 265.429C204.669 265.864 204.795 266.267 204.894 266.639L205.889 266.374L206.885 266.109C206.769 265.676 206.627 265.221 206.458 264.744L205.487 265.087ZM205.889 266.374L204.906 266.679C205.02 267.049 205.097 267.341 205.141 267.562L206.151 267.36L207.161 267.158C207.098 266.842 207 266.477 206.873 266.069L205.889 266.374ZM206.151 267.36V268.39H206.251V267.36V266.33H206.151V267.36ZM206.251 267.36L207.261 267.562C207.306 267.341 207.382 267.049 207.497 266.679L206.513 266.374L205.529 266.069C205.403 266.477 205.305 266.842 205.241 267.158L206.251 267.36ZM206.513 266.374L207.5 266.67C207.618 266.276 207.75 265.854 207.895 265.404L206.915 265.087L205.935 264.769C205.786 265.232 205.649 265.668 205.526 266.078L206.513 266.374ZM206.915 265.087L207.884 265.436L212.189 253.486L211.22 253.137L210.251 252.788L205.946 264.737L206.915 265.087ZM211.22 253.137V254.167H216.048V253.137V252.107H211.22V253.137ZM216.048 253.137L215.087 252.768L207.543 272.443L208.505 272.812L209.466 273.18L217.01 253.506L216.048 253.137ZM208.505 272.812V271.782H203.596V272.812V273.842H208.505V272.812ZM203.596 272.812L204.557 272.441L196.973 252.766L196.012 253.137L195.051 253.507L202.635 273.182L203.596 272.812ZM212.099 253.137V252.107H210.598L211.138 253.507L212.099 253.137ZM217.33 253.137L218.3 252.792L218.057 252.107H217.33V253.137ZM221.574 265.087L222.546 264.744L222.545 264.742L221.574 265.087ZM221.977 266.374L220.981 266.639L220.987 266.659L220.993 266.679L221.977 266.374ZM222.238 267.36L221.228 267.562L221.394 268.39H222.238V267.36ZM222.339 267.36V268.39H223.183L223.349 267.562L222.339 267.36ZM222.6 266.374L223.584 266.679L223.587 266.67L222.6 266.374ZM223.003 265.087L222.034 264.737L222.028 264.753L222.023 264.769L223.003 265.087ZM227.308 253.137V252.107H226.584L226.339 252.788L227.308 253.137ZM232.136 253.137L233.098 253.506L233.634 252.107H232.136V253.137ZM224.592 272.812V273.842H225.3L225.554 273.18L224.592 272.812ZM219.683 272.812L218.722 273.182L218.976 273.842H219.683V272.812ZM212.099 253.137V254.167H217.33V253.137V252.107H212.099V253.137ZM217.33 253.137L216.359 253.482L220.604 265.431L221.574 265.087L222.545 264.742L218.3 252.792L217.33 253.137ZM221.574 265.087L220.603 265.429C220.756 265.864 220.882 266.267 220.981 266.639L221.977 266.374L222.972 266.109C222.857 265.676 222.714 265.221 222.546 264.744L221.574 265.087ZM221.977 266.374L220.993 266.679C221.108 267.049 221.184 267.341 221.228 267.562L222.238 267.36L223.248 267.158C223.185 266.842 223.087 266.477 222.96 266.069L221.977 266.374ZM222.238 267.36V268.39H222.339V267.36V266.33H222.238V267.36ZM222.339 267.36L223.349 267.562C223.393 267.341 223.469 267.049 223.584 266.679L222.6 266.374L221.617 266.069C221.49 266.477 221.392 266.842 221.329 267.158L222.339 267.36ZM222.6 266.374L223.587 266.67C223.705 266.276 223.837 265.854 223.983 265.404L223.003 265.087L222.023 264.769C221.873 265.232 221.737 265.668 221.614 266.078L222.6 266.374ZM223.003 265.087L223.972 265.436L228.277 253.486L227.308 253.137L226.339 252.788L222.034 264.737L223.003 265.087ZM227.308 253.137V254.167H232.136V253.137V252.107H227.308V253.137ZM232.136 253.137L231.174 252.768L223.63 272.443L224.592 272.812L225.554 273.18L233.098 253.506L232.136 253.137ZM224.592 272.812V271.782H219.683V272.812V273.842H224.592V272.812ZM219.683 272.812L220.644 272.441L213.06 252.766L212.099 253.137L211.138 253.507L218.722 273.182L219.683 272.812Z" fill="#111111" mask="url(#path-1-outside-1_159_1902)"/>
<path d="M174.233 293.92C173.544 293.92 172.999 293.704 172.598 293.273C172.202 292.841 172.003 292.253 172.003 291.507V291.501C172.003 290.756 172.202 290.167 172.598 289.736C172.999 289.304 173.542 289.088 174.226 289.088C174.597 289.088 174.93 289.16 175.226 289.304C175.523 289.448 175.765 289.646 175.952 289.899C176.14 290.148 176.251 290.435 176.286 290.762V290.801H175.403V290.782C175.346 290.525 175.211 290.318 174.998 290.161C174.784 289.999 174.527 289.919 174.226 289.919C173.825 289.919 173.507 290.06 173.272 290.344C173.041 290.623 172.925 291.008 172.925 291.501V291.507C172.925 291.996 173.041 292.381 173.272 292.665C173.507 292.948 173.827 293.09 174.233 293.09C174.533 293.09 174.788 293.016 174.998 292.867C175.207 292.719 175.34 292.523 175.396 292.279L175.403 292.253H176.286V292.292C176.246 292.615 176.135 292.898 175.952 293.142C175.769 293.386 175.529 293.578 175.233 293.717C174.941 293.852 174.608 293.92 174.233 293.92ZM178.43 291.481C178.43 290.884 178.321 290.328 178.103 289.814C177.885 289.295 177.582 288.842 177.194 288.454C176.807 288.066 176.353 287.763 175.835 287.545C175.32 287.327 174.764 287.218 174.167 287.218H174.122C173.524 287.218 172.966 287.327 172.448 287.545C171.933 287.763 171.482 288.066 171.094 288.454C170.706 288.842 170.404 289.295 170.186 289.814C169.968 290.328 169.859 290.884 169.859 291.481V291.527C169.859 292.124 169.968 292.682 170.186 293.201C170.404 293.715 170.706 294.166 171.094 294.554C171.482 294.942 171.933 295.245 172.448 295.463C172.966 295.681 173.524 295.79 174.122 295.79H174.167C174.764 295.79 175.32 295.681 175.835 295.463C176.353 295.245 176.807 294.942 177.194 294.554C177.582 294.166 177.885 293.715 178.103 293.201C178.321 292.682 178.43 292.124 178.43 291.527V291.481ZM179.293 291.481V291.527C179.293 292.246 179.162 292.915 178.901 293.534C178.639 294.153 178.273 294.698 177.802 295.169C177.336 295.635 176.793 295.999 176.175 296.261C175.556 296.522 174.887 296.653 174.167 296.653H174.122C173.402 296.653 172.733 296.522 172.114 296.261C171.495 295.999 170.951 295.635 170.48 295.169C170.013 294.698 169.649 294.153 169.388 293.534C169.126 292.915 168.996 292.246 168.996 291.527V291.481C168.996 290.762 169.126 290.093 169.388 289.474C169.649 288.855 170.013 288.313 170.48 287.846C170.951 287.375 171.495 287.009 172.114 286.748C172.733 286.486 173.402 286.355 174.122 286.355H174.167C174.887 286.355 175.556 286.486 176.175 286.748C176.793 287.009 177.336 287.375 177.802 287.846C178.273 288.313 178.639 288.855 178.901 289.474C179.162 290.093 179.293 290.762 179.293 291.481ZM180.788 296.221V295.411L183.978 291.959C184.379 291.523 184.693 291.163 184.92 290.88C185.146 290.592 185.305 290.333 185.397 290.102C185.488 289.871 185.534 289.618 185.534 289.343V289.33C185.534 288.999 185.462 288.703 185.318 288.441C185.175 288.18 184.97 287.973 184.704 287.82C184.438 287.667 184.12 287.591 183.749 287.591C183.374 287.591 183.045 287.67 182.762 287.827C182.479 287.979 182.259 288.195 182.102 288.474C181.945 288.748 181.866 289.071 181.866 289.441L181.86 289.455L180.735 289.448L180.722 289.441C180.726 288.884 180.862 288.389 181.128 287.957C181.393 287.521 181.76 287.181 182.226 286.937C182.692 286.689 183.226 286.565 183.828 286.565C184.377 286.565 184.872 286.68 185.312 286.911C185.752 287.138 186.099 287.45 186.351 287.846C186.609 288.243 186.737 288.696 186.737 289.206V289.219C186.737 289.577 186.674 289.921 186.548 290.252C186.426 290.583 186.208 290.952 185.894 291.357C185.58 291.758 185.138 292.253 184.567 292.841L182.128 295.358L182.422 294.816V295.358L182.134 295.162H186.894V296.221H180.788ZM191.625 296.444C190.927 296.444 190.33 296.243 189.833 295.842C189.341 295.441 188.962 294.872 188.696 294.136C188.43 293.395 188.297 292.519 188.297 291.507V291.494C188.297 290.483 188.43 289.609 188.696 288.873C188.962 288.136 189.341 287.567 189.833 287.166C190.33 286.765 190.927 286.565 191.625 286.565C192.322 286.565 192.919 286.765 193.416 287.166C193.913 287.567 194.295 288.136 194.56 288.873C194.831 289.609 194.966 290.483 194.966 291.494V291.507C194.966 292.519 194.831 293.395 194.56 294.136C194.295 294.872 193.913 295.441 193.416 295.842C192.919 296.243 192.322 296.444 191.625 296.444ZM191.625 295.417C192.078 295.417 192.464 295.258 192.782 294.94C193.105 294.622 193.351 294.171 193.521 293.587C193.695 293.003 193.782 292.309 193.782 291.507V291.494C193.782 290.692 193.695 290.002 193.521 289.422C193.351 288.838 193.105 288.389 192.782 288.075C192.464 287.757 192.078 287.598 191.625 287.598C191.176 287.598 190.79 287.757 190.468 288.075C190.149 288.389 189.905 288.838 189.735 289.422C189.565 290.002 189.48 290.692 189.48 291.494V291.507C189.48 292.309 189.565 293.003 189.735 293.587C189.905 294.171 190.149 294.622 190.468 294.94C190.79 295.258 191.176 295.417 191.625 295.417ZM196.499 296.221V295.411L199.69 291.959C200.091 291.523 200.405 291.163 200.631 290.88C200.858 290.592 201.017 290.333 201.109 290.102C201.2 289.871 201.246 289.618 201.246 289.343V289.33C201.246 288.999 201.174 288.703 201.03 288.441C200.886 288.18 200.682 287.973 200.416 287.82C200.15 287.667 199.832 287.591 199.461 287.591C199.086 287.591 198.757 287.67 198.474 287.827C198.191 287.979 197.97 288.195 197.813 288.474C197.657 288.748 197.578 289.071 197.578 289.441L197.572 289.455L196.447 289.448L196.434 289.441C196.438 288.884 196.573 288.389 196.839 287.957C197.105 287.521 197.471 287.181 197.938 286.937C198.404 286.689 198.938 286.565 199.54 286.565C200.089 286.565 200.583 286.68 201.024 286.911C201.464 287.138 201.81 287.45 202.063 287.846C202.32 288.243 202.449 288.696 202.449 289.206V289.219C202.449 289.577 202.386 289.921 202.259 290.252C202.137 290.583 201.919 290.952 201.606 291.357C201.292 291.758 200.849 292.253 200.278 292.841L197.84 295.358L198.134 294.816V295.358L197.846 295.162H202.606V296.221H196.499ZM207.513 296.444C207.082 296.444 206.654 296.361 206.232 296.195C205.813 296.03 205.432 295.762 205.087 295.391C204.748 295.021 204.475 294.532 204.27 293.927C204.065 293.316 203.963 292.567 203.963 291.677V291.664C203.963 290.592 204.107 289.677 204.394 288.918C204.682 288.156 205.096 287.574 205.637 287.173C206.177 286.767 206.829 286.565 207.592 286.565C208.119 286.565 208.594 286.663 209.017 286.859C209.444 287.051 209.799 287.321 210.083 287.67C210.37 288.014 210.566 288.419 210.671 288.886L210.691 288.971H209.507L209.481 288.899C209.385 288.633 209.248 288.406 209.069 288.219C208.895 288.027 208.681 287.879 208.428 287.774C208.18 287.67 207.897 287.617 207.579 287.617C207.008 287.617 206.543 287.785 206.186 288.121C205.828 288.452 205.563 288.894 205.388 289.448C205.218 289.997 205.12 290.601 205.094 291.259C205.09 291.316 205.087 291.375 205.087 291.436C205.087 291.492 205.087 291.551 205.087 291.612L205.369 293.181C205.369 293.595 205.462 293.97 205.65 294.306C205.842 294.641 206.099 294.909 206.421 295.11C206.744 295.306 207.103 295.404 207.5 295.404C207.897 295.404 208.256 295.308 208.579 295.116C208.901 294.92 209.156 294.657 209.344 294.325C209.536 293.994 209.631 293.626 209.631 293.22V293.207C209.631 292.789 209.54 292.418 209.357 292.096C209.178 291.769 208.93 291.514 208.612 291.331C208.293 291.144 207.929 291.05 207.52 291.05C207.114 291.05 206.748 291.141 206.421 291.324C206.099 291.507 205.842 291.76 205.65 292.083C205.462 292.401 205.369 292.765 205.369 293.175V293.181H204.983V291.481H205.212C205.329 291.224 205.504 290.984 205.735 290.762C205.966 290.54 206.249 290.361 206.585 290.226C206.92 290.091 207.3 290.023 207.722 290.023C208.315 290.023 208.845 290.161 209.311 290.435C209.777 290.71 210.144 291.085 210.409 291.56C210.68 292.035 210.815 292.575 210.815 293.181V293.194C210.815 293.822 210.671 294.38 210.383 294.868C210.1 295.356 209.71 295.742 209.213 296.025C208.716 296.304 208.149 296.444 207.513 296.444Z" fill="#111111"/>
<rect x="0.515137" y="0.514893" width="379.606" height="379.606" stroke="#111111" stroke-width="1.03"/>
<rect x="10.084" y="10.0835" width="360.469" height="360.469" stroke="#111111" stroke-width="1.03"/>
<path d="M104.688 33.3203L275.949 33.3203L347.316 104.687L347.316 275.948L275.949 347.315L104.688 347.315L33.3213 275.948L33.3213 104.687L104.688 33.3203Z" stroke="black" stroke-width="1.03"/>
<path d="M189.901 33.0525L189.901 18.8694" stroke="#111111" stroke-width="1.03"/>
<path d="M189.901 360.932L189.901 346.749" stroke="#111111" stroke-width="1.03"/>
<path d="M311.454 69.6146L321.326 59.7422" stroke="#111111" stroke-width="1.03"/>
<path d="M59.3297 321.739L69.2021 311.867" stroke="#111111" stroke-width="1.03"/>
<path d="M311.454 311.849L321.326 321.722" stroke="#111111" stroke-width="1.03"/>
<path d="M59.3297 59.3314L69.2021 69.2039" stroke="#111111" stroke-width="1.03"/>
<path d="M346.753 192.78L360.937 192.78" stroke="#111111" stroke-width="1.03"/>
<path d="M18.8735 196.783L33.0566 196.783" stroke="#111111" stroke-width="1.03"/>
<path d="M190.05 42.3284V50.9431" stroke="black" stroke-width="1.03"/>
<path d="M190.05 329.157V337.772" stroke="black" stroke-width="1.03"/>
<path d="M202.925 42.8899L202.174 51.4719" stroke="black" stroke-width="1.03"/>
<path d="M177.927 328.627L177.176 337.209" stroke="black" stroke-width="1.03"/>
<path d="M215.702 44.5723L214.206 53.0561" stroke="black" stroke-width="1.03"/>
<path d="M165.895 327.043L164.399 335.527" stroke="black" stroke-width="1.03"/>
<path d="M228.283 47.3616L226.054 55.6828" stroke="black" stroke-width="1.03"/>
<path d="M154.047 324.417L151.817 332.738" stroke="black" stroke-width="1.03"/>
<path d="M240.574 51.2366L237.628 59.3318" stroke="black" stroke-width="1.03"/>
<path d="M142.473 320.767L139.527 328.862" stroke="black" stroke-width="1.03"/>
<path d="M252.48 56.1682L248.84 63.9758" stroke="black" stroke-width="1.03"/>
<path d="M131.261 316.123L127.62 323.931" stroke="black" stroke-width="1.03"/>
<path d="M263.911 62.1191L259.604 69.5797" stroke="black" stroke-width="1.03"/>
<path d="M120.496 310.52L116.189 317.98" stroke="black" stroke-width="1.03"/>
<path d="M274.781 69.043L269.84 76.0998" stroke="black" stroke-width="1.03"/>
<path d="M110.263 303.999L105.321 311.056" stroke="black" stroke-width="1.03"/>
<path d="M285.004 76.8882L279.467 83.4875" stroke="black" stroke-width="1.03"/>
<path d="M100.634 296.612L95.0968 303.211" stroke="black" stroke-width="1.03"/>
<path d="M294.505 85.5947L288.413 91.6863" stroke="black" stroke-width="1.03"/>
<path d="M91.6865 288.413L85.595 294.505" stroke="black" stroke-width="1.03"/>
<path d="M303.212 95.0959L296.613 100.633" stroke="black" stroke-width="1.03"/>
<path d="M83.4888 279.466L76.8895 285.003" stroke="black" stroke-width="1.03"/>
<path d="M311.057 105.32L304 110.261" stroke="black" stroke-width="1.03"/>
<path d="M76.1011 269.838L69.0443 274.779" stroke="black" stroke-width="1.03"/>
<path d="M317.981 116.189L310.52 120.496" stroke="black" stroke-width="1.03"/>
<path d="M69.5801 259.603L62.1195 263.91" stroke="black" stroke-width="1.03"/>
<path d="M323.932 127.62L316.125 131.261" stroke="black" stroke-width="1.03"/>
<path d="M63.9771 248.839L56.1694 252.48" stroke="black" stroke-width="1.03"/>
<path d="M328.864 139.526L320.769 142.472" stroke="black" stroke-width="1.03"/>
<path d="M59.333 237.627L51.2378 240.573" stroke="black" stroke-width="1.03"/>
<path d="M332.738 151.816L324.417 154.046" stroke="black" stroke-width="1.03"/>
<path d="M55.6836 226.053L47.3624 228.282" stroke="black" stroke-width="1.03"/>
<path d="M335.528 164.398L327.044 165.894" stroke="black" stroke-width="1.03"/>
<path d="M53.0566 214.205L44.5728 215.701" stroke="black" stroke-width="1.03"/>
<path d="M337.21 177.175L328.628 177.925" stroke="black" stroke-width="1.03"/>
<path d="M51.4736 202.173L42.8917 202.924" stroke="black" stroke-width="1.03"/>
<path d="M337.777 190.045L329.163 190.045" stroke="black" stroke-width="1.03"/>
<path d="M50.9487 190.045L42.334 190.045" stroke="black" stroke-width="1.03"/>
<path d="M337.777 190.045L329.162 190.045" stroke="black" stroke-width="1.03"/>
<path d="M50.9482 190.045L42.3335 190.045" stroke="black" stroke-width="1.03"/>
<path d="M337.215 202.92L328.633 202.169" stroke="black" stroke-width="1.03"/>
<path d="M51.478 177.921L42.8961 177.17" stroke="black" stroke-width="1.03"/>
<path d="M335.533 215.697L327.049 214.201" stroke="black" stroke-width="1.03"/>
<path d="M53.062 165.889L44.5781 164.393" stroke="black" stroke-width="1.03"/>
<path d="M332.743 228.278L324.422 226.048" stroke="black" stroke-width="1.03"/>
<path d="M55.6885 154.041L47.3673 151.811" stroke="black" stroke-width="1.03"/>
<path d="M328.868 240.569L320.773 237.622" stroke="black" stroke-width="1.03"/>
<path d="M59.3379 142.468L51.2427 139.521" stroke="black" stroke-width="1.03"/>
<path d="M323.937 252.475L316.129 248.834" stroke="black" stroke-width="1.03"/>
<path d="M63.9819 131.256L56.1743 127.615" stroke="black" stroke-width="1.03"/>
<path d="M317.986 263.905L310.525 259.598" stroke="black" stroke-width="1.03"/>
<path d="M69.585 120.491L62.1244 116.184" stroke="black" stroke-width="1.03"/>
<path d="M311.062 274.775L304.005 269.834" stroke="black" stroke-width="1.03"/>
<path d="M76.106 110.257L69.0492 105.316" stroke="black" stroke-width="1.03"/>
<path d="M303.217 284.999L296.618 279.461" stroke="black" stroke-width="1.03"/>
<path d="M83.4937 100.629L76.8944 95.0915" stroke="black" stroke-width="1.03"/>
<path d="M294.51 294.5L288.419 288.408" stroke="black" stroke-width="1.03"/>
<path d="M91.6919 91.6812L85.6004 85.5896" stroke="black" stroke-width="1.03"/>
<path d="M285.009 303.207L279.471 296.608" stroke="black" stroke-width="1.03"/>
<path d="M100.639 83.4834L95.1012 76.8841" stroke="black" stroke-width="1.03"/>
<path d="M274.785 311.052L269.844 303.995" stroke="black" stroke-width="1.03"/>
<path d="M110.268 76.0952L105.326 69.0384" stroke="black" stroke-width="1.03"/>
<path d="M263.917 317.975L259.609 310.515" stroke="black" stroke-width="1.03"/>
<path d="M120.502 69.5745L116.195 62.1139" stroke="black" stroke-width="1.03"/>
<path d="M252.485 323.927L248.845 316.119" stroke="black" stroke-width="1.03"/>
<path d="M131.266 63.9717L127.625 56.1641" stroke="black" stroke-width="1.03"/>
<path d="M240.58 328.858L237.633 320.763" stroke="black" stroke-width="1.03"/>
<path d="M142.479 59.3276L139.532 51.2324" stroke="black" stroke-width="1.03"/>
<path d="M228.289 332.733L226.059 324.411" stroke="black" stroke-width="1.03"/>
<path d="M154.052 55.6777L151.823 47.3565" stroke="black" stroke-width="1.03"/>
<path d="M215.707 335.522L214.211 327.039" stroke="black" stroke-width="1.03"/>
<path d="M165.9 53.0515L164.404 44.5676" stroke="black" stroke-width="1.03"/>
<path d="M202.93 337.205L202.179 328.623" stroke="black" stroke-width="1.03"/>
<path d="M177.932 51.4678L177.181 42.8858" stroke="black" stroke-width="1.03"/>
<path d="M190.06 337.772L190.06 329.157" stroke="black" stroke-width="1.03"/>
<path d="M190.06 50.9431L190.06 42.3284" stroke="black" stroke-width="1.03"/>
</svg>
