<svg width="625" height="344" viewBox="0 0 625 344" fill="none" xmlns="http://www.w3.org/2000/svg">
<path d="M45.9346 171.789H61.5364" stroke="#111111" stroke-width="1.03"/>
<path d="M128.104 171.789H174.563" stroke="#111111" stroke-width="1.03"/>
<path d="M562.444 171.796L546.842 171.796" stroke="#111111" stroke-width="1.03"/>
<path d="M482.44 171.796L435.981 171.796" stroke="#111111" stroke-width="1.03"/>
<path d="M193.286 99.6733L210.151 110.626" stroke="#111111" stroke-width="1.03"/>
<path d="M422.335 99.6733L405.471 110.626" stroke="#111111" stroke-width="1.03"/>
<path d="M422.335 248.615L405.471 237.663" stroke="#111111" stroke-width="1.03"/>
<path d="M193.286 248.615L210.151 237.663" stroke="#111111" stroke-width="1.03"/>
<path d="M228.649 306.557L231.051 307.944L256.014 264.706L253.612 263.32L228.649 306.557Z" stroke="#111111" stroke-width="1.03"/>
<path d="M381.844 306.557L379.442 307.944L354.479 264.706L356.881 263.32L381.844 306.557Z" stroke="#111111" stroke-width="1.03"/>
<path d="M381.845 36.5727L379.443 35.1858L354.48 78.423L356.882 79.8098L381.845 36.5727Z" stroke="#111111" stroke-width="1.03"/>
<path d="M228.649 36.5727L231.051 35.1858L256.014 78.423L253.612 79.8098L228.649 36.5727Z" stroke="#111111" stroke-width="1.03"/>
<mask id="path-13-outside-1_159_1553" maskUnits="userSpaceOnUse" x="274.188" y="39.1711" width="63" height="40" fill="black">
<rect fill="white" x="274.188" y="39.1711" width="63" height="40"/>
<path d="M288.499 77.1711V48.3639L284.355 53.3565H277.266L287.451 41.2244H293.891V77.1711H288.499ZM299.564 77.1711V63.5414C299.564 62.3098 299.847 61.2115 300.413 60.2462C301.012 59.281 301.794 58.5155 302.759 57.9496C303.758 57.3505 304.856 57.051 306.055 57.051H328.871C329.204 57.051 329.486 56.9345 329.719 56.7015C329.986 56.4352 330.119 56.1357 330.119 55.8028V47.8646C330.119 47.5318 329.986 47.2488 329.719 47.0159C329.486 46.7496 329.204 46.6164 328.871 46.6164H306.204C305.872 46.6164 305.572 46.7496 305.306 47.0159C305.073 47.2488 304.956 47.5318 304.956 47.8646V49.8117H299.564V47.7148C299.564 46.4833 299.847 45.3849 300.413 44.4197C301.012 43.4545 301.794 42.6723 302.759 42.0732C303.758 41.4741 304.856 41.1745 306.055 41.1745H329.021C330.185 41.1745 331.251 41.4741 332.216 42.0732C333.214 42.6723 334.013 43.4545 334.612 44.4197C335.211 45.3849 335.511 46.4833 335.511 47.7148V55.9526C335.511 57.1508 335.211 58.2492 334.612 59.2477C334.013 60.213 333.214 60.9951 332.216 61.5942C331.251 62.1601 330.185 62.443 329.021 62.443H306.204C305.872 62.443 305.572 62.5761 305.306 62.8424C305.073 63.0754 304.956 63.3583 304.956 63.6911V70.531C304.956 70.8638 305.073 71.1634 305.306 71.4297C305.572 71.6626 305.872 71.7791 306.204 71.7791H335.511V77.1711H299.564Z"/>
</mask>
<path d="M288.499 77.1711H287.469V78.2011H288.499V77.1711ZM288.499 48.3639H289.529V45.5102L287.707 47.706L288.499 48.3639ZM284.355 53.3565V54.3865H284.839L285.148 54.0143L284.355 53.3565ZM277.266 53.3565L276.477 52.6942L275.056 54.3865H277.266V53.3565ZM287.451 41.2244V40.1944H286.971L286.662 40.5622L287.451 41.2244ZM293.891 41.2244H294.921V40.1944H293.891V41.2244ZM293.891 77.1711V78.2011H294.921V77.1711H293.891ZM288.499 77.1711H289.529V48.3639H288.499H287.469V77.1711H288.499ZM288.499 48.3639L287.707 47.706L283.563 52.6986L284.355 53.3565L285.148 54.0143L289.292 49.0217L288.499 48.3639ZM284.355 53.3565V52.3265H277.266V53.3565V54.3865H284.355V53.3565ZM277.266 53.3565L278.055 54.0187L288.24 41.8867L287.451 41.2244L286.662 40.5622L276.477 52.6942L277.266 53.3565ZM287.451 41.2244V42.2544H293.891V41.2244V40.1944H287.451V41.2244ZM293.891 41.2244H292.861V77.1711H293.891H294.921V41.2244H293.891ZM293.891 77.1711V76.1411H288.499V77.1711V78.2011H293.891V77.1711ZM299.564 77.1711H298.534V78.2011H299.564V77.1711ZM300.413 60.2462L299.538 59.7031L299.531 59.7141L299.524 59.7253L300.413 60.2462ZM302.759 57.9496L303.28 58.8383L303.289 58.8329L302.759 57.9496ZM329.719 56.7015L328.991 55.9732V55.9732L329.719 56.7015ZM329.719 47.0159L328.944 47.6941L328.99 47.7458L329.041 47.791L329.719 47.0159ZM305.306 47.0159L304.577 46.2875L304.577 46.2875L305.306 47.0159ZM304.956 49.8117V50.8417H305.986V49.8117H304.956ZM299.564 49.8117H298.534V50.8417H299.564V49.8117ZM300.413 44.4197L299.538 43.8765L299.531 43.8876L299.524 43.8988L300.413 44.4197ZM302.759 42.0732L302.23 41.19L302.223 41.194L302.216 41.1981L302.759 42.0732ZM332.216 42.0732L331.673 42.9483L331.679 42.9524L331.686 42.9564L332.216 42.0732ZM334.612 44.4197L335.487 43.8765V43.8765L334.612 44.4197ZM334.612 59.2477L335.487 59.7909L335.491 59.7843L335.495 59.7776L334.612 59.2477ZM332.216 61.5942L332.737 62.4829L332.746 62.4775L332.216 61.5942ZM305.306 62.8424L306.034 63.5707H306.034L305.306 62.8424ZM305.306 71.4297L304.531 72.1079L304.576 72.1596L304.627 72.2048L305.306 71.4297ZM335.511 71.7791H336.541V70.7491H335.511V71.7791ZM335.511 77.1711V78.2011H336.541V77.1711H335.511ZM299.564 77.1711H300.594V63.5414H299.564H298.534V77.1711H299.564ZM299.564 63.5414H300.594C300.594 62.474 300.837 61.5588 301.302 60.7671L300.413 60.2462L299.524 59.7253C298.857 60.8642 298.534 62.1457 298.534 63.5414H299.564ZM300.413 60.2462L301.288 60.7894C301.8 59.9641 302.462 59.3181 303.28 58.8382L302.759 57.9496L302.239 57.0611C301.127 57.7129 300.224 58.5979 299.538 59.7031L300.413 60.2462ZM302.759 57.9496L303.289 58.8329C304.123 58.3327 305.037 58.081 306.055 58.081V57.051V56.021C304.675 56.021 303.393 56.3684 302.23 57.0664L302.759 57.9496ZM306.055 57.051V58.081H328.871V57.051V56.021H306.055V57.051ZM328.871 57.051V58.081C329.474 58.081 330.019 57.8582 330.448 57.4298L329.719 56.7015L328.991 55.9732C328.963 56.001 328.947 56.0086 328.94 56.0112C328.934 56.0139 328.915 56.021 328.871 56.021V57.051ZM329.719 56.7015L330.448 57.4298C330.88 56.998 331.149 56.4456 331.149 55.8028H330.119H329.089C329.089 55.8257 329.092 55.8724 328.991 55.9732L329.719 56.7015ZM330.119 55.8028H331.149V47.8646H330.119H329.089V55.8028H330.119ZM330.119 47.8646H331.149C331.149 47.2142 330.872 46.6553 330.398 46.2407L329.719 47.0159L329.041 47.791C329.062 47.8092 329.074 47.8227 329.08 47.8305C329.083 47.8344 329.085 47.8372 329.086 47.8389C329.087 47.8405 329.087 47.8413 329.087 47.8414C329.087 47.8414 329.087 47.8413 329.087 47.8411C329.087 47.8408 329.087 47.8411 329.087 47.842C329.088 47.8435 329.089 47.8504 329.089 47.8646H330.119ZM329.719 47.0159L330.495 46.3376C330.08 45.8638 329.521 45.5865 328.871 45.5865V46.6164V47.6465C328.885 47.6465 328.892 47.6478 328.893 47.6481C328.894 47.6483 328.895 47.6485 328.894 47.6484C328.894 47.6483 328.894 47.6482 328.894 47.6483C328.894 47.6483 328.895 47.6487 328.896 47.6497C328.898 47.6507 328.901 47.6525 328.905 47.6556C328.913 47.6616 328.926 47.6733 328.944 47.6941L329.719 47.0159ZM328.871 46.6164V45.5865H306.204V46.6164V47.6465H328.871V46.6164ZM306.204 46.6164V45.5865C305.562 45.5865 305.009 45.8558 304.577 46.2875L305.306 47.0159L306.034 47.7442C306.135 47.6434 306.181 47.6465 306.204 47.6465V46.6164ZM305.306 47.0159L304.577 46.2875C304.149 46.7159 303.926 47.2617 303.926 47.8646H304.956H305.986C305.986 47.8208 305.993 47.8015 305.996 47.795C305.999 47.7887 306.006 47.772 306.034 47.7442L305.306 47.0159ZM304.956 47.8646H303.926V49.8117H304.956H305.986V47.8646H304.956ZM304.956 49.8117V48.7817H299.564V49.8117V50.8417H304.956V49.8117ZM299.564 49.8117H300.594V47.7148H299.564H298.534V49.8117H299.564ZM299.564 47.7148H300.594C300.594 46.6475 300.837 45.7323 301.302 44.9406L300.413 44.4197L299.524 43.8988C298.857 45.0376 298.534 46.3192 298.534 47.7148H299.564ZM300.413 44.4197L301.288 44.9629C301.804 44.1324 302.472 43.4638 303.303 42.9483L302.759 42.0732L302.216 41.1981C301.116 41.8808 300.221 42.7766 299.538 43.8765L300.413 44.4197ZM302.759 42.0732L303.289 42.9564C304.123 42.4562 305.037 42.2045 306.055 42.2045V41.1745V40.1445C304.675 40.1445 303.393 40.4919 302.23 41.19L302.759 42.0732ZM306.055 41.1745V42.2045H329.021V41.1745V40.1445H306.055V41.1745ZM329.021 41.1745V42.2045C329.999 42.2045 330.875 42.4531 331.673 42.9483L332.216 42.0732L332.759 41.1981C331.626 40.495 330.372 40.1445 329.021 40.1445V41.1745ZM332.216 42.0732L331.686 42.9564C332.548 43.4734 333.227 44.1404 333.737 44.9629L334.612 44.4197L335.487 43.8765C334.8 42.7685 333.881 41.8712 332.746 41.19L332.216 42.0732ZM334.612 44.4197L333.737 44.9629C334.226 45.7514 334.481 46.6585 334.481 47.7148H335.511H336.541C336.541 46.3081 336.196 45.0185 335.487 43.8765L334.612 44.4197ZM335.511 47.7148H334.481V55.9526H335.511H336.541V47.7148H335.511ZM335.511 55.9526H334.481C334.481 56.9698 334.229 57.8841 333.729 58.7178L334.612 59.2477L335.495 59.7776C336.193 58.6143 336.541 57.3318 336.541 55.9526H335.511ZM334.612 59.2477L333.737 58.7045C333.227 59.527 332.548 60.194 331.686 60.711L332.216 61.5942L332.746 62.4775C333.881 61.7963 334.8 60.8989 335.487 59.7909L334.612 59.2477ZM332.216 61.5942L331.695 60.7057C330.894 61.175 330.01 61.413 329.021 61.413V62.443V63.473C330.361 63.473 331.607 63.1452 332.737 62.4828L332.216 61.5942ZM329.021 62.443V61.413H306.204V62.443V63.473H329.021V62.443ZM306.204 62.443V61.413C305.562 61.413 305.009 61.6823 304.577 62.1141L305.306 62.8424L306.034 63.5707C306.135 63.4699 306.181 63.473 306.204 63.473V62.443ZM305.306 62.8424L304.577 62.1141C304.149 62.5424 303.926 63.0882 303.926 63.6911H304.956H305.986C305.986 63.6474 305.993 63.628 305.996 63.6215C305.999 63.6152 306.006 63.5985 306.034 63.5707L305.306 62.8424ZM304.956 63.6911H303.926V70.531H304.956H305.986V63.6911H304.956ZM304.956 70.531H303.926C303.926 71.1299 304.145 71.6667 304.531 72.1079L305.306 71.4297L306.081 70.7514C306.001 70.66 305.986 70.5978 305.986 70.531H304.956ZM305.306 71.4297L304.627 72.2048C305.069 72.5908 305.605 72.8091 306.204 72.8091V71.7791V70.7491C306.138 70.7491 306.075 70.7345 305.984 70.6545L305.306 71.4297ZM306.204 71.7791V72.8091H335.511V71.7791V70.7491H306.204V71.7791ZM335.511 71.7791H334.481V77.1711H335.511H336.541V71.7791H335.511ZM335.511 77.1711V76.1411H299.564V77.1711V78.2011H335.511V77.1711Z" fill="#111111" mask="url(#path-13-outside-1_159_1553)"/>
<mask id="path-15-outside-2_159_1553" maskUnits="userSpaceOnUse" x="126.104" y="63.7473" width="62" height="39" fill="black">
<rect fill="white" x="126.104" y="63.7473" width="62" height="39"/>
<path d="M139.817 100.747V71.94L135.674 76.9326H128.584L138.769 64.8006H145.209V100.747H139.817ZM157.373 100.747C156.174 100.747 155.076 100.448 154.077 99.8486C153.112 99.2163 152.33 98.4008 151.731 97.4023C151.165 96.3705 150.882 95.2721 150.882 94.1072V71.3908C150.882 70.1926 151.165 69.0943 151.731 68.0957C152.33 67.0972 153.112 66.2984 154.077 65.6993C155.076 65.1002 156.174 64.8006 157.373 64.8006H180.339C181.503 64.8006 182.569 65.1002 183.534 65.6993C184.532 66.2984 185.331 67.0972 185.93 68.0957C186.529 69.0943 186.829 70.1926 186.829 71.3908V94.1072C186.829 95.2721 186.529 96.3705 185.93 97.4023C185.331 98.4008 184.532 99.2163 183.534 99.8486C182.569 100.448 181.503 100.747 180.339 100.747H157.373ZM158.072 95.1556H180.189C180.522 95.1556 180.805 95.0391 181.037 94.8061C181.304 94.5731 181.437 94.2902 181.437 93.9574V75.8343L158.072 95.1556ZM156.274 89.6138L179.59 70.2925H157.522C157.19 70.2925 156.89 70.4256 156.624 70.6919C156.391 70.9249 156.274 71.2078 156.274 71.5406V89.6138Z"/>
</mask>
<path d="M139.817 100.747H138.787V101.777H139.817V100.747ZM139.817 71.94H140.847V69.0863L139.025 71.2822L139.817 71.94ZM135.674 76.9326V77.9626H136.157L136.466 77.5905L135.674 76.9326ZM128.584 76.9326L127.795 76.2704L126.374 77.9626H128.584V76.9326ZM138.769 64.8006V63.7706H138.289L137.98 64.1384L138.769 64.8006ZM145.209 64.8006H146.239V63.7706H145.209V64.8006ZM145.209 100.747V101.777H146.239V100.747H145.209ZM139.817 100.747H140.847V71.94H139.817H138.787V100.747H139.817ZM139.817 71.94L139.025 71.2822L134.881 76.2748L135.674 76.9326L136.466 77.5905L140.61 72.5979L139.817 71.94ZM135.674 76.9326V75.9026H128.584V76.9326V77.9626H135.674V76.9326ZM128.584 76.9326L129.373 77.5949L139.558 65.4629L138.769 64.8006L137.98 64.1384L127.795 76.2704L128.584 76.9326ZM138.769 64.8006V65.8306H145.209V64.8006V63.7706H138.769V64.8006ZM145.209 64.8006H144.179V100.747H145.209H146.239V64.8006H145.209ZM145.209 100.747V99.7173H139.817V100.747V101.777H145.209V100.747ZM154.077 99.8486L153.513 100.71L153.53 100.721L153.548 100.732L154.077 99.8486ZM151.731 97.4023L150.828 97.8975L150.837 97.9151L150.848 97.9322L151.731 97.4023ZM151.731 68.0957L150.848 67.5658L150.841 67.5768L150.835 67.5879L151.731 68.0957ZM154.077 65.6993L153.548 64.8161L153.541 64.8201L153.534 64.8242L154.077 65.6993ZM183.534 65.6993L182.991 66.5744L182.997 66.5785L183.004 66.5825L183.534 65.6993ZM185.93 68.0957L186.813 67.5658V67.5658L185.93 68.0957ZM185.93 97.4023L186.813 97.9322L186.817 97.9259L186.821 97.9195L185.93 97.4023ZM183.534 99.8486L184.077 100.724L184.085 100.719L183.534 99.8486ZM158.072 95.1556L157.415 94.3618L155.21 96.1856H158.072V95.1556ZM181.037 94.8061L180.359 94.031L180.333 94.0536L180.309 94.0778L181.037 94.8061ZM181.437 75.8343H182.467V73.646L180.781 75.0405L181.437 75.8343ZM156.274 89.6138H155.244V91.8051L156.931 90.4069L156.274 89.6138ZM179.59 70.2925L180.247 71.0856L182.447 69.2625H179.59V70.2925ZM156.624 70.6919L155.895 69.9636L155.895 69.9636L156.624 70.6919ZM157.373 100.747V99.7173C156.355 99.7173 155.441 99.4656 154.607 98.9654L154.077 99.8486L153.548 100.732C154.711 101.43 155.993 101.777 157.373 101.777V100.747ZM154.077 99.8486L154.642 98.9871C153.808 98.4406 153.134 97.739 152.614 96.8723L151.731 97.4023L150.848 97.9322C151.526 99.0626 152.417 99.9919 153.513 100.71L154.077 99.8486ZM151.731 97.4023L152.634 96.907C152.151 96.0254 151.912 95.0971 151.912 94.1072H150.882H149.852C149.852 95.4471 150.18 96.7155 150.828 97.8975L151.731 97.4023ZM150.882 94.1072H151.912V71.3908H150.882H149.852V94.1072H150.882ZM150.882 71.3908H151.912C151.912 70.3625 152.153 69.4403 152.627 68.6035L151.731 68.0957L150.835 67.5879C150.177 68.7482 149.852 70.0228 149.852 71.3908H150.882ZM151.731 68.0957L152.614 68.6257C153.131 67.764 153.798 67.0849 154.621 66.5744L154.077 65.6993L153.534 64.8242C152.426 65.5119 151.529 66.4305 150.848 67.5658L151.731 68.0957ZM154.077 65.6993L154.607 66.5825C155.441 66.0823 156.355 65.8306 157.373 65.8306V64.8006V63.7706C155.993 63.7706 154.711 64.118 153.548 64.8161L154.077 65.6993ZM157.373 64.8006V65.8306H180.339V64.8006V63.7706H157.373V64.8006ZM180.339 64.8006V65.8306C181.317 65.8306 182.193 66.0792 182.991 66.5744L183.534 65.6993L184.077 64.8242C182.944 64.1211 181.69 63.7706 180.339 63.7706V64.8006ZM183.534 65.6993L183.004 66.5825C183.857 67.0946 184.535 67.7721 185.047 68.6257L185.93 68.0957L186.813 67.5658C186.127 66.4223 185.207 65.5022 184.064 64.8161L183.534 65.6993ZM185.93 68.0957L185.047 68.6257C185.547 69.4593 185.799 70.3736 185.799 71.3908H186.829H187.859C187.859 70.0116 187.511 68.7292 186.813 67.5658L185.93 68.0957ZM186.829 71.3908H185.799V94.1072H186.829H187.859V71.3908H186.829ZM186.829 94.1072H185.799C185.799 95.0859 185.55 96.0064 185.04 96.8851L185.93 97.4023L186.821 97.9195C187.509 96.7346 187.859 95.4583 187.859 94.1072H186.829ZM185.93 97.4023L185.047 96.8723C184.532 97.731 183.848 98.4307 182.983 98.9785L183.534 99.8486L184.085 100.719C185.217 100.002 186.13 99.0706 186.813 97.9322L185.93 97.4023ZM183.534 99.8486L182.991 98.9735C182.193 99.4687 181.317 99.7173 180.339 99.7173V100.747V101.777C181.69 101.777 182.944 101.427 184.077 100.724L183.534 99.8486ZM180.339 100.747V99.7173H157.373V100.747V101.777H180.339V100.747ZM158.072 95.1556V96.1856H180.189V95.1556V94.1256H158.072V95.1556ZM180.189 95.1556V96.1856C180.792 96.1856 181.337 95.9628 181.766 95.5344L181.037 94.8061L180.309 94.0778C180.281 94.1056 180.265 94.1132 180.258 94.1158C180.252 94.1185 180.233 94.1256 180.189 94.1256V95.1556ZM181.037 94.8061L181.716 95.5813C182.19 95.1667 182.467 94.6078 182.467 93.9574H181.437H180.407C180.407 93.9715 180.406 93.9785 180.405 93.98C180.405 93.9809 180.405 93.9812 180.405 93.9809C180.405 93.9807 180.405 93.9805 180.405 93.9806C180.405 93.9807 180.405 93.9815 180.404 93.9831C180.403 93.9848 180.401 93.9875 180.398 93.9915C180.392 93.9993 180.38 94.0128 180.359 94.031L181.037 94.8061ZM181.437 93.9574H182.467V75.8343H181.437H180.407V93.9574H181.437ZM181.437 75.8343L180.781 75.0405L157.415 94.3618L158.072 95.1556L158.728 95.9494L182.093 76.628L181.437 75.8343ZM156.274 89.6138L156.931 90.4069L180.247 71.0856L179.59 70.2925L178.932 69.4994L155.617 88.8207L156.274 89.6138ZM179.59 70.2925V69.2625H157.522V70.2925V71.3225H179.59V70.2925ZM157.522 70.2925V69.2625C156.88 69.2625 156.327 69.5318 155.895 69.9636L156.624 70.6919L157.352 71.4202C157.453 71.3194 157.499 71.3225 157.522 71.3225V70.2925ZM156.624 70.6919L155.895 69.9636C155.467 70.3919 155.244 70.9377 155.244 71.5406H156.274H157.304C157.304 71.4968 157.311 71.4775 157.314 71.471C157.317 71.4647 157.324 71.448 157.352 71.4202L156.624 70.6919ZM156.274 71.5406H155.244V89.6138H156.274H157.304V71.5406H156.274Z" fill="#111111" mask="url(#path-15-outside-2_159_1553)"/>
<mask id="path-17-outside-3_159_1553" maskUnits="userSpaceOnUse" x="76.4043" y="153.585" width="39" height="40" fill="black">
<rect fill="white" x="76.4043" y="153.585" width="39" height="40"/>
<path d="M84.8683 191.585C83.8698 191.585 82.9378 191.352 82.0724 190.886C81.207 190.42 80.4582 189.788 79.8258 188.989C79.1934 188.157 78.744 187.225 78.4778 186.193H107.684C108.017 186.193 108.3 186.076 108.533 185.843C108.799 185.577 108.933 185.278 108.933 184.945V178.055C108.933 177.689 108.799 177.389 108.533 177.156C108.3 176.923 108.017 176.807 107.684 176.807H84.8683C83.6368 176.807 82.5384 176.507 81.5732 175.908C80.6079 175.309 79.8258 174.527 79.2266 173.562C78.6275 172.563 78.328 171.481 78.328 170.316V162.129C78.328 160.897 78.6275 159.799 79.2266 158.834C79.8258 157.868 80.6079 157.086 81.5732 156.487C82.5717 155.888 83.6701 155.588 84.8683 155.588H107.834C108.999 155.588 110.064 155.888 111.029 156.487C112.028 157.086 112.81 157.868 113.376 158.834C113.975 159.799 114.275 160.897 114.275 162.129V185.095C114.275 186.293 113.975 187.375 113.376 188.34C112.81 189.305 112.028 190.087 111.029 190.686C110.064 191.285 108.999 191.585 107.834 191.585H84.8683ZM85.0181 171.365H108.933V162.278C108.933 161.946 108.799 161.663 108.533 161.43C108.3 161.163 108.017 161.03 107.684 161.03H85.0181C84.6852 161.03 84.3857 161.163 84.1194 161.43C83.8864 161.663 83.7699 161.946 83.7699 162.278V170.167C83.7699 170.5 83.8864 170.782 84.1194 171.015C84.3857 171.248 84.6852 171.365 85.0181 171.365Z"/>
</mask>
<path d="M82.0724 190.886L81.5841 191.793V191.793L82.0724 190.886ZM79.8258 188.989L79.0057 189.612L79.0119 189.62L79.0182 189.628L79.8258 188.989ZM78.4778 186.193V185.163H77.1482L77.4804 186.45L78.4778 186.193ZM108.533 185.843L107.805 185.115L107.805 185.115L108.533 185.843ZM108.533 177.156L107.805 177.885L107.829 177.909L107.855 177.932L108.533 177.156ZM81.5732 175.908L81.03 176.783V176.783L81.5732 175.908ZM79.2266 173.562L78.3434 174.092L78.3474 174.098L78.3515 174.105L79.2266 173.562ZM79.2266 158.834L80.1018 159.377V159.377L79.2266 158.834ZM81.5732 156.487L81.0432 155.604L81.0366 155.608L81.03 155.612L81.5732 156.487ZM111.029 156.487L110.486 157.362L110.493 157.366L110.5 157.37L111.029 156.487ZM113.376 158.834L112.487 159.354L112.494 159.366L112.501 159.377L113.376 158.834ZM113.376 188.34L112.501 187.797L112.494 187.808L112.487 187.819L113.376 188.34ZM111.029 190.686L110.5 189.803L110.493 189.807L110.486 189.811L111.029 190.686ZM108.933 171.365V172.395H109.963V171.365H108.933ZM108.533 161.43L107.758 162.108L107.803 162.16L107.855 162.205L108.533 161.43ZM84.1194 161.43L83.3911 160.701L83.3911 160.701L84.1194 161.43ZM84.1194 171.015L83.3911 171.744L83.4153 171.768L83.4411 171.791L84.1194 171.015ZM84.8683 191.585V190.555C84.0374 190.555 83.2736 190.363 82.5607 189.979L82.0724 190.886L81.5841 191.793C82.602 192.341 83.7021 192.615 84.8683 192.615V191.585ZM82.0724 190.886L82.5607 189.979C81.8234 189.582 81.1819 189.042 80.6333 188.349L79.8258 188.989L79.0182 189.628C79.7344 190.533 80.5907 191.258 81.5841 191.793L82.0724 190.886ZM79.8258 188.989L80.6458 188.366C80.0979 187.645 79.7078 186.838 79.4751 185.936L78.4778 186.193L77.4804 186.45C77.7802 187.612 78.2889 188.669 79.0057 189.612L79.8258 188.989ZM78.4778 186.193V187.223H107.684V186.193V185.163H78.4778V186.193ZM107.684 186.193V187.223C108.287 187.223 108.833 187 109.262 186.572L108.533 185.843L107.805 185.115C107.777 185.143 107.76 185.151 107.754 185.153C107.748 185.156 107.728 185.163 107.684 185.163V186.193ZM108.533 185.843L109.262 186.572C109.693 186.14 109.963 185.588 109.963 184.945H108.933H107.903C107.903 184.968 107.906 185.014 107.805 185.115L108.533 185.843ZM108.933 184.945H109.963V178.055H108.933H107.903V184.945H108.933ZM108.933 178.055H109.963C109.963 177.404 109.71 176.817 109.211 176.381L108.533 177.156L107.855 177.932C107.885 177.957 107.89 177.972 107.892 177.974C107.893 177.978 107.903 177.999 107.903 178.055H108.933ZM108.533 177.156L109.262 176.428C108.833 176 108.287 175.777 107.684 175.777V176.807V177.837C107.728 177.837 107.748 177.844 107.754 177.847C107.76 177.849 107.777 177.857 107.805 177.885L108.533 177.156ZM107.684 176.807V175.777H84.8683V176.807V177.837H107.684V176.807ZM84.8683 176.807V175.777C83.812 175.777 82.9048 175.522 82.1163 175.033L81.5732 175.908L81.03 176.783C82.172 177.492 83.4616 177.837 84.8683 177.837V176.807ZM81.5732 175.908L82.1163 175.033C81.2858 174.518 80.6173 173.849 80.1018 173.019L79.2266 173.562L78.3515 174.105C79.0342 175.205 79.93 176.101 81.03 176.783L81.5732 175.908ZM79.2266 173.562L80.1099 173.032C79.6068 172.193 79.358 171.295 79.358 170.316H78.328H77.298C77.298 171.668 77.6482 172.933 78.3434 174.092L79.2266 173.562ZM78.328 170.316H79.358V162.129H78.328H77.298V170.316H78.328ZM78.328 162.129H79.358C79.358 161.072 79.6124 160.165 80.1018 159.377L79.2266 158.834L78.3515 158.29C77.6427 159.432 77.298 160.722 77.298 162.129H78.328ZM79.2266 158.834L80.1018 159.377C80.6173 158.546 81.2858 157.878 82.1163 157.362L81.5732 156.487L81.03 155.612C79.93 156.295 79.0342 157.19 78.3515 158.29L79.2266 158.834ZM81.5732 156.487L82.1031 157.37C82.9367 156.87 83.8511 156.618 84.8683 156.618V155.588V154.558C83.4891 154.558 82.2066 154.906 81.0432 155.604L81.5732 156.487ZM84.8683 155.588V156.618H107.834V155.588V154.558H84.8683V155.588ZM107.834 155.588V156.618C108.812 156.618 109.688 156.867 110.486 157.362L111.029 156.487L111.573 155.612C110.44 154.909 109.186 154.558 107.834 154.558V155.588ZM111.029 156.487L110.5 157.37C111.356 157.884 112.013 158.544 112.487 159.354L113.376 158.834L114.265 158.313C113.608 157.192 112.7 156.288 111.559 155.604L111.029 156.487ZM113.376 158.834L112.501 159.377C112.99 160.165 113.245 161.072 113.245 162.129H114.275H115.305C115.305 160.722 114.96 159.432 114.251 158.29L113.376 158.834ZM114.275 162.129H113.245V185.095H114.275H115.305V162.129H114.275ZM114.275 185.095H113.245C113.245 186.112 112.993 187.004 112.501 187.797L113.376 188.34L114.251 188.883C114.957 187.746 115.305 186.474 115.305 185.095H114.275ZM113.376 188.34L112.487 187.819C112.013 188.629 111.356 189.289 110.5 189.803L111.029 190.686L111.559 191.57C112.7 190.885 113.608 189.981 114.265 188.861L113.376 188.34ZM111.029 190.686L110.486 189.811C109.688 190.306 108.812 190.555 107.834 190.555V191.585V192.615C109.186 192.615 110.44 192.264 111.573 191.561L111.029 190.686ZM107.834 191.585V190.555H84.8683V191.585V192.615H107.834V191.585ZM85.0181 171.365V172.395H108.933V171.365V170.335H85.0181V171.365ZM108.933 171.365H109.963V162.278H108.933H107.903V171.365H108.933ZM108.933 162.278H109.963C109.963 161.628 109.685 161.069 109.211 160.655L108.533 161.43L107.855 162.205C107.876 162.223 107.887 162.237 107.893 162.244C107.897 162.248 107.898 162.251 107.899 162.253C107.9 162.254 107.901 162.255 107.901 162.255C107.901 162.255 107.901 162.255 107.901 162.255C107.901 162.255 107.901 162.255 107.901 162.256C107.901 162.257 107.903 162.264 107.903 162.278H108.933ZM108.533 161.43L109.308 160.751C108.894 160.278 108.335 160 107.684 160V161.03V162.06C107.699 162.06 107.706 162.062 107.707 162.062C107.708 162.062 107.708 162.062 107.708 162.062C107.708 162.062 107.708 162.062 107.708 162.062C107.708 162.062 107.709 162.063 107.71 162.063C107.712 162.064 107.715 162.066 107.719 162.069C107.726 162.075 107.74 162.087 107.758 162.108L108.533 161.43ZM107.684 161.03V160H85.0181V161.03V162.06H107.684V161.03ZM85.0181 161.03V160C84.3753 160 83.8228 160.27 83.3911 160.701L84.1194 161.43L84.8477 162.158C84.9485 162.057 84.9952 162.06 85.0181 162.06V161.03ZM84.1194 161.43L83.3911 160.701C82.9627 161.13 82.7399 161.676 82.7399 162.278H83.7699H84.7999C84.7999 162.235 84.807 162.215 84.8097 162.209C84.8123 162.202 84.8199 162.186 84.8477 162.158L84.1194 161.43ZM83.7699 162.278H82.7399V170.167H83.7699H84.7999V162.278H83.7699ZM83.7699 170.167H82.7399C82.7399 170.77 82.9627 171.315 83.3911 171.744L84.1194 171.015L84.8477 170.287C84.8199 170.259 84.8123 170.243 84.8097 170.236C84.807 170.23 84.7999 170.211 84.7999 170.167H83.7699ZM84.1194 171.015L83.4411 171.791C83.8823 172.177 84.4191 172.395 85.0181 172.395V171.365V170.335C84.9513 170.335 84.889 170.32 84.7976 170.24L84.1194 171.015Z" fill="#111111" mask="url(#path-17-outside-3_159_1553)"/>
<mask id="path-19-outside-4_159_1553" maskUnits="userSpaceOnUse" x="138.812" y="243.035" width="40" height="40" fill="black">
<rect fill="white" x="138.812" y="243.035" width="40" height="40"/>
<path d="M147.329 281.035C146.131 281.035 145.033 280.736 144.034 280.137C143.069 279.538 142.287 278.755 141.688 277.79C141.122 276.825 140.839 275.743 140.839 274.545V266.407C140.839 265.775 140.956 265.142 141.189 264.51C141.422 263.844 141.721 263.212 142.087 262.613C141.721 262.014 141.422 261.398 141.189 260.765C140.956 260.1 140.839 259.451 140.839 258.818V251.579C140.839 250.348 141.122 249.249 141.688 248.284C142.287 247.319 143.069 246.537 144.034 245.937C145.033 245.338 146.131 245.039 147.329 245.039H170.295C171.294 245.039 172.242 245.288 173.141 245.788C174.04 246.287 174.805 246.953 175.438 247.785C176.103 248.617 176.553 249.515 176.786 250.481V258.818C176.786 260.083 176.353 261.348 175.488 262.613C176.353 263.811 176.786 265.076 176.786 266.407V274.545C176.786 275.743 176.486 276.825 175.887 277.79C175.288 278.755 174.489 279.538 173.491 280.137C172.525 280.736 171.46 281.035 170.295 281.035H147.329ZM147.479 275.643H170.146C170.478 275.643 170.761 275.527 170.994 275.294C171.261 275.028 171.394 274.728 171.394 274.395V266.557C171.394 266.224 171.261 265.941 170.994 265.708C170.761 265.442 170.478 265.309 170.146 265.309H147.479C147.146 265.309 146.847 265.442 146.581 265.708C146.348 265.941 146.231 266.224 146.231 266.557V274.395C146.231 274.728 146.348 275.028 146.581 275.294C146.847 275.527 147.146 275.643 147.479 275.643ZM147.479 260.466H170.146C170.478 260.466 170.761 260.349 170.994 260.116C171.261 259.85 171.394 259.551 171.394 259.218V251.779C171.394 251.446 171.261 251.163 170.994 250.93C170.761 250.664 170.478 250.531 170.146 250.531H147.479C147.146 250.531 146.847 250.664 146.581 250.93C146.348 251.163 146.231 251.446 146.231 251.779V259.218C146.231 259.551 146.348 259.85 146.581 260.116C146.847 260.349 147.146 260.466 147.479 260.466Z"/>
</mask>
<path d="M144.034 280.137L143.491 281.012L143.498 281.016L143.504 281.02L144.034 280.137ZM141.688 277.79L140.799 278.311L140.806 278.322L140.813 278.333L141.688 277.79ZM141.189 264.51L142.155 264.866L142.158 264.858L142.161 264.85L141.189 264.51ZM142.087 262.613L142.966 263.15L143.294 262.613L142.966 262.076L142.087 262.613ZM141.189 260.765L140.216 261.106L140.219 261.114L140.222 261.122L141.189 260.765ZM141.688 248.284L140.813 247.741L140.806 247.752L140.799 247.763L141.688 248.284ZM144.034 245.937L143.504 245.054L143.498 245.058L143.491 245.062L144.034 245.937ZM173.141 245.788L173.641 244.887V244.887L173.141 245.788ZM175.438 247.785L174.618 248.408L174.625 248.418L174.633 248.428L175.438 247.785ZM176.786 250.481H177.816V250.358L177.787 250.239L176.786 250.481ZM175.488 262.613L174.638 262.031L174.229 262.629L174.653 263.216L175.488 262.613ZM175.887 277.79L176.762 278.333V278.333L175.887 277.79ZM173.491 280.137L172.961 279.254L172.954 279.258L172.947 279.262L173.491 280.137ZM170.994 275.294L170.266 274.566V274.566L170.994 275.294ZM170.994 265.708L170.219 266.386L170.264 266.438L170.316 266.483L170.994 265.708ZM146.581 265.708L147.309 266.436H147.309L146.581 265.708ZM146.581 275.294L145.805 275.972L145.851 276.024L145.902 276.069L146.581 275.294ZM170.994 260.116L170.266 259.388V259.388L170.994 260.116ZM170.994 250.93L170.219 251.608L170.264 251.66L170.316 251.705L170.994 250.93ZM146.581 250.93L145.852 250.202L145.852 250.202L146.581 250.93ZM146.581 260.116L145.805 260.795L145.851 260.846L145.902 260.892L146.581 260.116ZM147.329 281.035V280.005C146.312 280.005 145.398 279.754 144.564 279.254L144.034 280.137L143.504 281.02C144.668 281.718 145.95 282.065 147.329 282.065V281.035ZM144.034 280.137L144.578 279.262C143.747 278.746 143.078 278.078 142.563 277.247L141.688 277.79L140.813 278.333C141.495 279.433 142.391 280.329 143.491 281.012L144.034 280.137ZM141.688 277.79L142.576 277.269C142.11 276.473 141.869 275.574 141.869 274.545H140.839H139.809C139.809 275.913 140.134 277.177 140.799 278.311L141.688 277.79ZM140.839 274.545H141.869V266.407H140.839H139.809V274.545H140.839ZM140.839 266.407H141.869C141.869 265.904 141.961 265.392 142.155 264.866L141.189 264.51L140.222 264.154C139.95 264.893 139.809 265.645 139.809 266.407H140.839ZM141.189 264.51L142.161 264.85C142.37 264.253 142.638 263.687 142.966 263.15L142.087 262.613L141.208 262.076C140.804 262.737 140.473 263.436 140.216 264.17L141.189 264.51ZM142.087 262.613L142.966 262.076C142.634 261.531 142.364 260.976 142.155 260.409L141.189 260.765L140.222 261.122C140.479 261.82 140.809 262.496 141.208 263.15L142.087 262.613ZM141.189 260.765L142.161 260.425C141.962 259.856 141.869 259.322 141.869 258.818H140.839H139.809C139.809 259.579 139.949 260.343 140.216 261.106L141.189 260.765ZM140.839 258.818H141.869V251.579H140.839H139.809V258.818H140.839ZM140.839 251.579H141.869C141.869 250.512 142.112 249.597 142.576 248.805L141.688 248.284L140.799 247.763C140.132 248.902 139.809 250.183 139.809 251.579H140.839ZM141.688 248.284L142.563 248.827C143.078 247.997 143.747 247.328 144.577 246.813L144.034 245.937L143.491 245.062C142.391 245.745 141.495 246.641 140.813 247.741L141.688 248.284ZM144.034 245.937L144.564 246.821C145.398 246.32 146.312 246.069 147.329 246.069V245.039V244.009C145.95 244.009 144.668 244.356 143.504 245.054L144.034 245.937ZM147.329 245.039V246.069H170.295V245.039V244.009H147.329V245.039ZM170.295 245.039V246.069C171.114 246.069 171.891 246.271 172.641 246.688L173.141 245.788L173.641 244.887C172.594 244.306 171.474 244.009 170.295 244.009V245.039ZM173.141 245.788L172.641 246.688C173.413 247.117 174.07 247.687 174.618 248.408L175.438 247.785L176.258 247.161C175.541 246.218 174.667 245.457 173.641 244.887L173.141 245.788ZM175.438 247.785L174.633 248.428C175.212 249.151 175.589 249.914 175.785 250.722L176.786 250.481L177.787 250.239C177.516 249.117 176.995 248.082 176.242 247.141L175.438 247.785ZM176.786 250.481H175.756V258.818H176.786H177.816V250.481H176.786ZM176.786 258.818H175.756C175.756 259.835 175.411 260.901 174.638 262.031L175.488 262.613L176.338 263.194C177.295 261.795 177.816 260.331 177.816 258.818H176.786ZM175.488 262.613L174.653 263.216C175.406 264.259 175.756 265.316 175.756 266.407H176.786H177.816C177.816 264.835 177.3 263.363 176.323 262.01L175.488 262.613ZM176.786 266.407H175.756V274.545H176.786H177.816V266.407H176.786ZM176.786 274.545H175.756C175.756 275.562 175.504 276.454 175.012 277.247L175.887 277.79L176.762 278.333C177.468 277.196 177.816 275.924 177.816 274.545H176.786ZM175.887 277.79L175.012 277.247C174.501 278.07 173.822 278.736 172.961 279.254L173.491 280.137L174.021 281.02C175.156 280.339 176.075 279.441 176.762 278.333L175.887 277.79ZM173.491 280.137L172.947 279.262C172.15 279.757 171.274 280.005 170.295 280.005V281.035V282.065C171.647 282.065 172.901 281.715 174.034 281.012L173.491 280.137ZM170.295 281.035V280.005H147.329V281.035V282.065H170.295V281.035ZM147.479 275.643V276.673H170.146V275.643V274.613H147.479V275.643ZM170.146 275.643V276.673C170.748 276.673 171.294 276.451 171.723 276.022L170.994 275.294L170.266 274.566C170.238 274.593 170.222 274.601 170.215 274.604C170.209 274.606 170.189 274.613 170.146 274.613V275.643ZM170.994 275.294L171.723 276.022C172.154 275.59 172.424 275.038 172.424 274.395H171.394H170.364C170.364 274.418 170.367 274.465 170.266 274.566L170.994 275.294ZM171.394 274.395H172.424V266.557H171.394H170.364V274.395H171.394ZM171.394 266.557H172.424C172.424 265.906 172.146 265.348 171.673 264.933L170.994 265.708L170.316 266.483C170.337 266.501 170.349 266.515 170.355 266.523C170.358 266.527 170.36 266.529 170.361 266.531C170.362 266.533 170.362 266.534 170.362 266.534C170.362 266.534 170.362 266.534 170.362 266.533C170.362 266.533 170.362 266.533 170.362 266.534C170.362 266.536 170.364 266.543 170.364 266.557H171.394ZM170.994 265.708L171.769 265.03C171.355 264.556 170.796 264.279 170.146 264.279V265.309V266.339C170.16 266.339 170.167 266.34 170.168 266.34C170.169 266.341 170.169 266.341 170.169 266.341C170.169 266.341 170.169 266.34 170.169 266.341C170.169 266.341 170.17 266.341 170.171 266.342C170.173 266.343 170.176 266.345 170.18 266.348C170.188 266.354 170.201 266.366 170.219 266.386L170.994 265.708ZM170.146 265.309V264.279H147.479V265.309V266.339H170.146V265.309ZM147.479 265.309V264.279C146.836 264.279 146.284 264.548 145.852 264.98L146.581 265.708L147.309 266.436C147.41 266.336 147.456 266.339 147.479 266.339V265.309ZM146.581 265.708L145.852 264.98C145.424 265.408 145.201 265.954 145.201 266.557H146.231H147.261C147.261 266.513 147.268 266.494 147.271 266.487C147.273 266.481 147.281 266.464 147.309 266.436L146.581 265.708ZM146.231 266.557H145.201V274.395H146.231H147.261V266.557H146.231ZM146.231 274.395H145.201C145.201 274.994 145.419 275.531 145.805 275.972L146.581 275.294L147.356 274.616C147.276 274.524 147.261 274.462 147.261 274.395H146.231ZM146.581 275.294L145.902 276.069C146.343 276.455 146.88 276.673 147.479 276.673V275.643V274.613C147.412 274.613 147.35 274.599 147.259 274.519L146.581 275.294ZM147.479 260.466V261.496H170.146V260.466V259.436H147.479V260.466ZM170.146 260.466V261.496C170.748 261.496 171.294 261.273 171.723 260.845L170.994 260.116L170.266 259.388C170.238 259.416 170.222 259.424 170.215 259.426C170.209 259.429 170.189 259.436 170.146 259.436V260.466ZM170.994 260.116L171.723 260.845C172.154 260.413 172.424 259.861 172.424 259.218H171.394H170.364C170.364 259.241 170.367 259.287 170.266 259.388L170.994 260.116ZM171.394 259.218H172.424V251.779H171.394H170.364V259.218H171.394ZM171.394 251.779H172.424C172.424 251.128 172.146 250.569 171.673 250.155L170.994 250.93L170.316 251.705C170.337 251.723 170.349 251.737 170.355 251.745C170.358 251.749 170.36 251.751 170.361 251.753C170.362 251.755 170.362 251.755 170.362 251.756C170.362 251.756 170.362 251.755 170.362 251.755C170.362 251.755 170.362 251.755 170.362 251.756C170.362 251.758 170.364 251.765 170.364 251.779H171.394ZM170.994 250.93L171.769 250.252C171.355 249.778 170.796 249.501 170.146 249.501V250.531V251.561C170.16 251.561 170.167 251.562 170.168 251.562C170.169 251.563 170.169 251.563 170.169 251.563C170.169 251.562 170.169 251.562 170.169 251.562C170.169 251.562 170.17 251.563 170.171 251.564C170.173 251.565 170.176 251.567 170.18 251.57C170.188 251.576 170.201 251.588 170.219 251.608L170.994 250.93ZM170.146 250.531V249.501H147.479V250.531V251.561H170.146V250.531ZM147.479 250.531V249.501C146.836 249.501 146.284 249.77 145.852 250.202L146.581 250.93L147.309 251.658C147.41 251.558 147.456 251.561 147.479 251.561V250.531ZM146.581 250.93L145.852 250.202C145.424 250.63 145.201 251.176 145.201 251.779H146.231H147.261C147.261 251.735 147.268 251.716 147.271 251.709C147.273 251.703 147.281 251.686 147.309 251.658L146.581 250.93ZM146.231 251.779H145.201V259.218H146.231H147.261V251.779H146.231ZM146.231 259.218H145.201C145.201 259.817 145.419 260.354 145.805 260.795L146.581 260.116L147.356 259.438C147.276 259.347 147.261 259.285 147.261 259.218H146.231ZM146.581 260.116L145.902 260.892C146.343 261.278 146.88 261.496 147.479 261.496V260.466V259.436C147.412 259.436 147.35 259.421 147.259 259.341L146.581 260.116Z" fill="#111111" mask="url(#path-19-outside-4_159_1553)"/>
<mask id="path-21-outside-5_159_1553" maskUnits="userSpaceOnUse" x="432.433" y="62.7473" width="39" height="40" fill="black">
<rect fill="white" x="432.433" y="62.7473" width="39" height="40"/>
<path d="M433.558 100.747V87.1175C433.558 85.886 433.841 84.7876 434.406 83.8224C435.006 82.8572 435.788 82.0916 436.753 81.5258C437.751 80.9267 438.85 80.6271 440.048 80.6271H462.864C463.197 80.6271 463.48 80.5107 463.713 80.2777C463.979 80.0114 464.112 79.7118 464.112 79.379V71.4408C464.112 71.1079 463.979 70.825 463.713 70.592C463.48 70.3258 463.197 70.1926 462.864 70.1926H440.198C439.865 70.1926 439.565 70.3258 439.299 70.592C439.066 70.825 438.95 71.1079 438.95 71.4408V73.3879H433.558V71.291C433.558 70.0595 433.841 68.9611 434.406 67.9959C435.006 67.0306 435.788 66.2485 436.753 65.6494C437.751 65.0502 438.85 64.7507 440.048 64.7507H463.014C464.179 64.7507 465.244 65.0502 466.209 65.6494C467.208 66.2485 468.007 67.0306 468.606 67.9959C469.205 68.9611 469.504 70.0595 469.504 71.291V79.5288C469.504 80.727 469.205 81.8254 468.606 82.8239C468.007 83.7891 467.208 84.5713 466.209 85.1704C465.244 85.7362 464.179 86.0192 463.014 86.0192H440.198C439.865 86.0192 439.565 86.1523 439.299 86.4186C439.066 86.6516 438.95 86.9345 438.95 87.2673V94.1072C438.95 94.44 439.066 94.7396 439.299 95.0058C439.565 95.2388 439.865 95.3553 440.198 95.3553H469.504V100.747H433.558Z"/>
</mask>
<path d="M433.558 100.747H432.528V101.777H433.558V100.747ZM434.406 83.8224L433.531 83.2792L433.524 83.2903L433.518 83.3015L434.406 83.8224ZM436.753 81.5258L437.274 82.4144L437.283 82.409L436.753 81.5258ZM463.713 80.2777L462.985 79.5493V79.5493L463.713 80.2777ZM463.713 70.592L462.938 71.2703L462.983 71.322L463.035 71.3672L463.713 70.592ZM439.299 70.592L438.571 69.8637L438.571 69.8637L439.299 70.592ZM438.95 73.3879V74.4179H439.98V73.3879H438.95ZM433.558 73.3879H432.528V74.4179H433.558V73.3879ZM434.406 67.9959L433.531 67.4527L433.524 67.4638L433.518 67.475L434.406 67.9959ZM436.753 65.6494L436.223 64.7661L436.216 64.7701L436.21 64.7742L436.753 65.6494ZM466.209 65.6494L465.666 66.5245L465.673 66.5286L465.679 66.5326L466.209 65.6494ZM468.606 67.9959L469.481 67.4527V67.4527L468.606 67.9959ZM468.606 82.8239L469.481 83.3671L469.485 83.3605L469.489 83.3538L468.606 82.8239ZM466.209 85.1704L466.73 86.059L466.739 86.0536L466.209 85.1704ZM439.299 86.4186L440.027 87.1469H440.027L439.299 86.4186ZM439.299 95.0058L438.524 95.6841L438.569 95.7358L438.621 95.781L439.299 95.0058ZM469.504 95.3553H470.534V94.3253H469.504V95.3553ZM469.504 100.747V101.777H470.534V100.747H469.504ZM433.558 100.747H434.588V87.1175H433.558H432.528V100.747H433.558ZM433.558 87.1175H434.588C434.588 86.0502 434.831 85.135 435.295 84.3433L434.406 83.8224L433.518 83.3015C432.85 84.4403 432.528 85.7219 432.528 87.1175H433.558ZM434.406 83.8224L435.282 84.3656C435.794 83.5403 436.455 82.8942 437.274 82.4144L436.753 81.5258L436.232 80.6372C435.12 81.2891 434.217 82.1741 433.531 83.2792L434.406 83.8224ZM436.753 81.5258L437.283 82.409C438.116 81.9089 439.031 81.6572 440.048 81.6572V80.6271V79.5971C438.669 79.5971 437.386 79.9446 436.223 80.6426L436.753 81.5258ZM440.048 80.6271V81.6572H462.864V80.6271V79.5971H440.048V80.6271ZM462.864 80.6271V81.6572C463.467 81.6572 464.013 81.4343 464.441 81.006L463.713 80.2777L462.985 79.5493C462.957 79.5772 462.94 79.5848 462.934 79.5874C462.927 79.59 462.908 79.5971 462.864 79.5971V80.6271ZM463.713 80.2777L464.441 81.006C464.873 80.5742 465.142 80.0218 465.142 79.379H464.112H463.082C463.082 79.4019 463.085 79.4486 462.985 79.5493L463.713 80.2777ZM464.112 79.379H465.142V71.4408H464.112H463.082V79.379H464.112ZM464.112 71.4408H465.142C465.142 70.7903 464.865 70.2315 464.391 69.8169L463.713 70.592L463.035 71.3672C463.055 71.3854 463.067 71.3989 463.073 71.4067C463.076 71.4106 463.078 71.4134 463.079 71.415C463.08 71.4166 463.08 71.4174 463.081 71.4175C463.081 71.4176 463.081 71.4174 463.08 71.4172C463.08 71.417 463.08 71.4172 463.081 71.4182C463.081 71.4197 463.082 71.4266 463.082 71.4408H464.112ZM463.713 70.592L464.488 69.9138C464.074 69.4399 463.515 69.1626 462.864 69.1626V70.1926V71.2226C462.878 71.2226 462.885 71.224 462.887 71.2243C462.888 71.2245 462.888 71.2246 462.888 71.2245C462.888 71.2245 462.887 71.2244 462.887 71.2244C462.888 71.2245 462.888 71.2249 462.89 71.2258C462.892 71.2268 462.894 71.2287 462.898 71.2317C462.906 71.2378 462.92 71.2495 462.938 71.2703L463.713 70.592ZM462.864 70.1926V69.1626H440.198V70.1926V71.2226H462.864V70.1926ZM440.198 70.1926V69.1626C439.555 69.1626 439.003 69.4319 438.571 69.8637L439.299 70.592L440.027 71.3203C440.128 71.2196 440.175 71.2226 440.198 71.2226V70.1926ZM439.299 70.592L438.571 69.8637C438.142 70.2921 437.92 70.8379 437.92 71.4408H438.95H439.98C439.98 71.397 439.987 71.3776 439.989 71.3711C439.992 71.3648 440 71.3482 440.027 71.3203L439.299 70.592ZM438.95 71.4408H437.92V73.3879H438.95H439.98V71.4408H438.95ZM438.95 73.3879V72.3579H433.558V73.3879V74.4179H438.95V73.3879ZM433.558 73.3879H434.588V71.291H433.558H432.528V73.3879H433.558ZM433.558 71.291H434.588C434.588 70.2236 434.831 69.3084 435.295 68.5168L434.406 67.9959L433.518 67.475C432.85 68.6138 432.528 69.8953 432.528 71.291H433.558ZM434.406 67.9959L435.282 68.5391C435.797 67.7086 436.466 67.04 437.296 66.5245L436.753 65.6494L436.21 64.7742C435.11 65.457 434.214 66.3527 433.531 67.4527L434.406 67.9959ZM436.753 65.6494L437.283 66.5326C438.116 66.0324 439.031 65.7807 440.048 65.7807V64.7507V63.7207C438.669 63.7207 437.386 64.0681 436.223 64.7661L436.753 65.6494ZM440.048 64.7507V65.7807H463.014V64.7507V63.7207H440.048V64.7507ZM463.014 64.7507V65.7807C463.992 65.7807 464.868 66.0293 465.666 66.5245L466.209 65.6494L466.752 64.7742C465.62 64.0712 464.366 63.7207 463.014 63.7207V64.7507ZM466.209 65.6494L465.679 66.5326C466.541 67.0496 467.22 67.7166 467.731 68.5391L468.606 67.9959L469.481 67.4527C468.793 66.3447 467.875 65.4473 466.739 64.7661L466.209 65.6494ZM468.606 67.9959L467.731 68.5391C468.22 69.3275 468.474 70.2347 468.474 71.291H469.504H470.534C470.534 69.8843 470.19 68.5947 469.481 67.4527L468.606 67.9959ZM469.504 71.291H468.474V79.5288H469.504H470.534V71.291H469.504ZM469.504 79.5288H468.474C468.474 80.546 468.223 81.4603 467.722 82.294L468.606 82.8239L469.489 83.3538C470.187 82.1904 470.534 80.908 470.534 79.5288H469.504ZM468.606 82.8239L467.731 82.2807C467.22 83.1032 466.541 83.7702 465.679 84.2872L466.209 85.1704L466.739 86.0536C467.875 85.3724 468.793 84.4751 469.481 83.3671L468.606 82.8239ZM466.209 85.1704L465.688 84.2818C464.888 84.7512 464.004 84.9892 463.014 84.9892V86.0192V87.0492C464.354 87.0492 465.6 86.7213 466.73 86.059L466.209 85.1704ZM463.014 86.0192V84.9892H440.198V86.0192V87.0492H463.014V86.0192ZM440.198 86.0192V84.9892C439.555 84.9892 439.003 85.2585 438.571 85.6902L439.299 86.4186L440.027 87.1469C440.128 87.0461 440.175 87.0492 440.198 87.0492V86.0192ZM439.299 86.4186L438.571 85.6902C438.142 86.1186 437.92 86.6644 437.92 87.2673H438.95H439.98C439.98 87.2235 439.987 87.2042 439.989 87.1977C439.992 87.1914 440 87.1747 440.027 87.1469L439.299 86.4186ZM438.95 87.2673H437.92V94.1072H438.95H439.98V87.2673H438.95ZM438.95 94.1072H437.92C437.92 94.7061 438.138 95.2429 438.524 95.6841L439.299 95.0058L440.074 94.3276C439.994 94.2362 439.98 94.1739 439.98 94.1072H438.95ZM439.299 95.0058L438.621 95.781C439.062 96.167 439.599 96.3853 440.198 96.3853V95.3553V94.3253C440.131 94.3253 440.069 94.3106 439.977 94.2307L439.299 95.0058ZM440.198 95.3553V96.3853H469.504V95.3553V94.3253H440.198V95.3553ZM469.504 95.3553H468.474V100.747H469.504H470.534V95.3553H469.504ZM469.504 100.747V99.7173H433.558V100.747V101.777H469.504V100.747Z" fill="#111111" mask="url(#path-21-outside-5_159_1553)"/>
<mask id="path-23-outside-6_159_1553" maskUnits="userSpaceOnUse" x="493.841" y="153.585" width="39" height="40" fill="black">
<rect fill="white" x="493.841" y="153.585" width="39" height="40"/>
<path d="M502.404 191.585C501.172 191.585 500.074 191.285 499.109 190.686C498.144 190.087 497.361 189.305 496.762 188.34C496.163 187.375 495.864 186.293 495.864 185.095V183.597H501.306V184.945C501.306 185.278 501.422 185.577 501.655 185.843C501.888 186.076 502.171 186.193 502.504 186.193H525.22C525.553 186.193 525.836 186.076 526.069 185.843C526.302 185.577 526.418 185.278 526.418 184.945V177.256C526.418 176.923 526.302 176.64 526.069 176.407C525.836 176.141 525.553 176.008 525.22 176.008H502.404V170.616H523.672C524.039 170.616 524.338 170.5 524.571 170.267C524.804 170 524.921 169.701 524.921 169.368V162.278C524.921 161.946 524.804 161.663 524.571 161.43C524.338 161.163 524.039 161.03 523.672 161.03H502.504C502.171 161.03 501.888 161.163 501.655 161.43C501.422 161.663 501.306 161.946 501.306 162.278V164.126H495.864V162.129C495.864 160.897 496.147 159.799 496.712 158.834C497.312 157.868 498.11 157.086 499.109 156.487C500.107 155.888 501.206 155.588 502.404 155.588H523.822C525.054 155.588 526.152 155.888 527.117 156.487C528.116 157.086 528.898 157.868 529.464 158.834C530.03 159.799 530.313 160.897 530.313 162.129V169.518C530.313 169.95 530.263 170.383 530.163 170.816C530.096 171.248 529.98 171.648 529.813 172.014C530.546 172.746 531.061 173.562 531.361 174.46C531.661 175.359 531.81 176.241 531.81 177.106V185.095C531.81 186.293 531.511 187.375 530.912 188.34C530.346 189.305 529.564 190.087 528.565 190.686C527.6 191.285 526.535 191.585 525.37 191.585H502.404Z"/>
</mask>
<path d="M499.109 190.686L499.652 189.811H499.652L499.109 190.686ZM496.762 188.34L497.637 187.797V187.797L496.762 188.34ZM495.864 183.597V182.567H494.834V183.597H495.864ZM501.306 183.597H502.336V182.567H501.306V183.597ZM501.655 185.843L500.88 186.522L500.903 186.548L500.927 186.572L501.655 185.843ZM526.069 185.843L526.797 186.572L526.821 186.548L526.844 186.522L526.069 185.843ZM526.069 176.407L525.294 177.086L525.316 177.112L525.341 177.136L526.069 176.407ZM502.404 176.008H501.374V177.038H502.404V176.008ZM502.404 170.616V169.586H501.374V170.616H502.404ZM524.571 170.267L525.299 170.995L525.324 170.971L525.346 170.945L524.571 170.267ZM524.571 161.43L523.796 162.108L523.819 162.134L523.843 162.158L524.571 161.43ZM501.655 161.43L502.383 162.158L502.408 162.134L502.43 162.108L501.655 161.43ZM501.306 164.126V165.156H502.336V164.126H501.306ZM495.864 164.126H494.834V165.156H495.864V164.126ZM496.712 158.834L495.837 158.29L495.83 158.301L495.824 158.313L496.712 158.834ZM499.109 156.487L499.639 157.37L499.639 157.37L499.109 156.487ZM527.117 156.487L526.574 157.362L526.581 157.366L526.587 157.37L527.117 156.487ZM529.464 158.834L528.575 159.354L528.575 159.354L529.464 158.834ZM530.163 170.816L529.159 170.584L529.151 170.621L529.145 170.659L530.163 170.816ZM529.813 172.014L528.876 171.588L528.58 172.238L529.085 172.742L529.813 172.014ZM531.361 174.46L532.338 174.135V174.135L531.361 174.46ZM530.912 188.34L530.037 187.797L530.03 187.808L530.023 187.819L530.912 188.34ZM528.565 190.686L528.035 189.803L528.029 189.807L528.022 189.811L528.565 190.686ZM502.404 191.585V190.555C501.348 190.555 500.441 190.301 499.652 189.811L499.109 190.686L498.566 191.561C499.708 192.27 500.997 192.615 502.404 192.615V191.585ZM499.109 190.686L499.652 189.811C498.822 189.296 498.153 188.627 497.637 187.797L496.762 188.34L495.887 188.883C496.57 189.983 497.466 190.879 498.566 191.561L499.109 190.686ZM496.762 188.34L497.637 187.797C497.145 187.004 496.894 186.112 496.894 185.095H495.864H494.834C494.834 186.474 495.181 187.746 495.887 188.883L496.762 188.34ZM495.864 185.095H496.894V183.597H495.864H494.834V185.095H495.864ZM495.864 183.597V184.627H501.306V183.597V182.567H495.864V183.597ZM501.306 183.597H500.276V184.945H501.306H502.336V183.597H501.306ZM501.306 184.945H500.276C500.276 185.544 500.494 186.081 500.88 186.522L501.655 185.843L502.43 185.165C502.35 185.074 502.336 185.012 502.336 184.945H501.306ZM501.655 185.843L500.927 186.572C501.355 187 501.901 187.223 502.504 187.223V186.193V185.163C502.46 185.163 502.441 185.156 502.434 185.153C502.428 185.151 502.411 185.143 502.383 185.115L501.655 185.843ZM502.504 186.193V187.223H525.22V186.193V185.163H502.504V186.193ZM525.22 186.193V187.223C525.823 187.223 526.369 187 526.797 186.572L526.069 185.843L525.341 185.115C525.313 185.143 525.296 185.151 525.29 185.153C525.283 185.156 525.264 185.163 525.22 185.163V186.193ZM526.069 185.843L526.844 186.522C527.23 186.081 527.448 185.544 527.448 184.945H526.418H525.388C525.388 185.012 525.374 185.074 525.294 185.165L526.069 185.843ZM526.418 184.945H527.448V177.256H526.418H525.388V184.945H526.418ZM526.418 177.256H527.448C527.448 176.653 527.226 176.107 526.797 175.679L526.069 176.407L525.341 177.136C525.368 177.164 525.376 177.18 525.379 177.187C525.381 177.193 525.388 177.212 525.388 177.256H526.418ZM526.069 176.407L526.844 175.729C526.429 175.255 525.871 174.978 525.22 174.978V176.008V177.038C525.234 177.038 525.241 177.039 525.243 177.04C525.244 177.04 525.244 177.04 525.244 177.04C525.243 177.04 525.243 177.04 525.243 177.04C525.243 177.04 525.244 177.04 525.246 177.041C525.248 177.042 525.25 177.044 525.254 177.047C525.262 177.053 525.276 177.065 525.294 177.086L526.069 176.407ZM525.22 176.008V174.978H502.404V176.008V177.038H525.22V176.008ZM502.404 176.008H503.434V170.616H502.404H501.374V176.008H502.404ZM502.404 170.616V171.646H523.672V170.616V169.586H502.404V170.616ZM523.672 170.616V171.646C524.278 171.646 524.851 171.443 525.299 170.995L524.571 170.267L523.843 169.538C523.825 169.556 523.799 169.586 523.672 169.586V170.616ZM524.571 170.267L525.346 170.945C525.732 170.504 525.951 169.967 525.951 169.368H524.921H523.891C523.891 169.435 523.876 169.497 523.796 169.588L524.571 170.267ZM524.921 169.368H525.951V162.278H524.921H523.891V169.368H524.921ZM524.921 162.278H525.951C525.951 161.676 525.728 161.13 525.299 160.701L524.571 161.43L523.843 162.158C523.871 162.186 523.878 162.202 523.881 162.209C523.883 162.215 523.891 162.235 523.891 162.278H524.921ZM524.571 161.43L525.346 160.751C524.91 160.253 524.324 160 523.672 160V161.03V162.06C523.728 162.06 523.75 162.07 523.753 162.071C523.756 162.072 523.77 162.078 523.796 162.108L524.571 161.43ZM523.672 161.03V160H502.504V161.03V162.06H523.672V161.03ZM502.504 161.03V160C501.853 160 501.295 160.278 500.88 160.751L501.655 161.43L502.43 162.108C502.448 162.087 502.462 162.075 502.47 162.069C502.474 162.066 502.476 162.064 502.478 162.063C502.48 162.063 502.48 162.062 502.481 162.062C502.481 162.062 502.481 162.062 502.48 162.062C502.48 162.062 502.48 162.062 502.481 162.062C502.483 162.062 502.49 162.06 502.504 162.06V161.03ZM501.655 161.43L500.927 160.701C500.498 161.13 500.276 161.676 500.276 162.278H501.306H502.336C502.336 162.235 502.343 162.215 502.345 162.209C502.348 162.202 502.356 162.186 502.383 162.158L501.655 161.43ZM501.306 162.278H500.276V164.126H501.306H502.336V162.278H501.306ZM501.306 164.126V163.096H495.864V164.126V165.156H501.306V164.126ZM495.864 164.126H496.894V162.129H495.864H494.834V164.126H495.864ZM495.864 162.129H496.894C496.894 161.061 497.137 160.146 497.601 159.354L496.712 158.834L495.824 158.313C495.156 159.451 494.834 160.733 494.834 162.129H495.864ZM496.712 158.834L497.588 159.377C498.098 158.554 498.777 157.887 499.639 157.37L499.109 156.487L498.579 155.604C497.444 156.285 496.525 157.182 495.837 158.29L496.712 158.834ZM499.109 156.487L499.639 157.37C500.472 156.87 501.387 156.618 502.404 156.618V155.588V154.558C501.025 154.558 499.742 154.906 498.579 155.604L499.109 156.487ZM502.404 155.588V156.618H523.822V155.588V154.558H502.404V155.588ZM523.822 155.588V156.618C524.879 156.618 525.786 156.873 526.574 157.362L527.117 156.487L527.661 155.612C526.519 154.903 525.229 154.558 523.822 154.558V155.588ZM527.117 156.487L526.587 157.37C527.444 157.884 528.1 158.544 528.575 159.354L529.464 158.834L530.352 158.313C529.696 157.192 528.788 156.288 527.647 155.604L527.117 156.487ZM529.464 158.834L528.575 159.354C529.039 160.146 529.283 161.061 529.283 162.129H530.313H531.343C531.343 160.733 531.02 159.451 530.352 158.313L529.464 158.834ZM530.313 162.129H529.283V169.518H530.313H531.343V162.129H530.313ZM530.313 169.518H529.283C529.283 169.87 529.242 170.225 529.159 170.584L530.163 170.816L531.166 171.047C531.283 170.541 531.343 170.03 531.343 169.518H530.313ZM530.163 170.816L529.145 170.659C529.091 171.007 529 171.315 528.876 171.588L529.813 172.014L530.751 172.44C530.96 171.981 531.101 171.49 531.181 170.972L530.163 170.816ZM529.813 172.014L529.085 172.742C529.715 173.372 530.139 174.053 530.384 174.786L531.361 174.46L532.338 174.135C531.983 173.071 531.376 172.12 530.542 171.286L529.813 172.014ZM531.361 174.46L530.384 174.786C530.652 175.59 530.78 176.362 530.78 177.106H531.81H532.84C532.84 176.12 532.669 175.128 532.338 174.135L531.361 174.46ZM531.81 177.106H530.78V185.095H531.81H532.84V177.106H531.81ZM531.81 185.095H530.78C530.78 186.112 530.529 187.004 530.037 187.797L530.912 188.34L531.787 188.883C532.493 187.746 532.84 186.474 532.84 185.095H531.81ZM530.912 188.34L530.023 187.819C529.548 188.629 528.892 189.289 528.035 189.803L528.565 190.686L529.095 191.57C530.235 190.885 531.144 189.981 531.8 188.861L530.912 188.34ZM528.565 190.686L528.022 189.811C527.224 190.306 526.348 190.555 525.37 190.555V191.585V192.615C526.722 192.615 527.976 192.264 529.108 191.561L528.565 190.686ZM525.37 191.585V190.555H502.404V191.585V192.615H525.37V191.585Z" fill="#111111" mask="url(#path-23-outside-6_159_1553)"/>
<mask id="path-25-outside-7_159_1553" maskUnits="userSpaceOnUse" x="432.207" y="243.035" width="38" height="40" fill="black">
<rect fill="white" x="432.207" y="243.035" width="38" height="40"/>
<path d="M457.537 281.035V271.899H433.772V266.457L457.537 245.039H462.929V266.457H468.221V271.899H462.929V281.035H457.537ZM441.66 266.457H457.537V252.927L441.66 266.457Z"/>
</mask>
<path d="M457.537 281.035H456.507V282.065H457.537V281.035ZM457.537 271.899H458.567V270.869H457.537V271.899ZM433.772 271.899H432.742V272.929H433.772V271.899ZM433.772 266.457L433.082 265.692L432.742 265.999V266.457H433.772ZM457.537 245.039V244.009H457.141L456.847 244.274L457.537 245.039ZM462.929 245.039H463.959V244.009H462.929V245.039ZM462.929 266.457H461.899V267.487H462.929V266.457ZM468.221 266.457H469.251V265.427H468.221V266.457ZM468.221 271.899V272.929H469.251V271.899H468.221ZM462.929 271.899V270.869H461.899V271.899H462.929ZM462.929 281.035V282.065H463.959V281.035H462.929ZM441.66 266.457L440.992 265.673L438.864 267.487H441.66V266.457ZM457.537 266.457V267.487H458.567V266.457H457.537ZM457.537 252.927H458.567V250.696L456.869 252.143L457.537 252.927ZM457.537 281.035H458.567V271.899H457.537H456.507V281.035H457.537ZM457.537 271.899V270.869H433.772V271.899V272.929H457.537V271.899ZM433.772 271.899H434.802V266.457H433.772H432.742V271.899H433.772ZM433.772 266.457L434.461 267.222L458.226 245.804L457.537 245.039L456.847 244.274L433.082 265.692L433.772 266.457ZM457.537 245.039V246.069H462.929V245.039V244.009H457.537V245.039ZM462.929 245.039H461.899V266.457H462.929H463.959V245.039H462.929ZM462.929 266.457V267.487H468.221V266.457V265.427H462.929V266.457ZM468.221 266.457H467.191V271.899H468.221H469.251V266.457H468.221ZM468.221 271.899V270.869H462.929V271.899V272.929H468.221V271.899ZM462.929 271.899H461.899V281.035H462.929H463.959V271.899H462.929ZM462.929 281.035V280.005H457.537V281.035V282.065H462.929V281.035ZM441.66 266.457V267.487H457.537V266.457V265.427H441.66V266.457ZM457.537 266.457H458.567V252.927H457.537H456.507V266.457H457.537ZM457.537 252.927L456.869 252.143L440.992 265.673L441.66 266.457L442.328 267.241L458.205 253.711L457.537 252.927Z" fill="#111111" mask="url(#path-25-outside-7_159_1553)"/>
<mask id="path-27-outside-8_159_1553" maskUnits="userSpaceOnUse" x="287.896" y="266.612" width="39" height="40" fill="black">
<rect fill="white" x="287.896" y="266.612" width="39" height="40"/>
<path d="M296.255 304.612C295.056 304.612 293.958 304.312 292.96 303.713C291.994 303.114 291.212 302.332 290.613 301.366C290.047 300.401 289.764 299.319 289.764 298.121V275.155C289.764 273.924 290.047 272.825 290.613 271.86C291.212 270.895 291.994 270.113 292.96 269.514C293.958 268.915 295.056 268.615 296.255 268.615H319.72V274.057H296.404C296.072 274.057 295.772 274.19 295.506 274.456C295.273 274.689 295.156 274.972 295.156 275.305V282.145C295.156 282.478 295.273 282.777 295.506 283.044C295.772 283.277 296.072 283.393 296.404 283.393H319.221C320.386 283.393 321.451 283.693 322.416 284.292C323.414 284.858 324.213 285.64 324.812 286.638C325.411 287.603 325.711 288.685 325.711 289.883V298.121C325.711 299.319 325.411 300.401 324.812 301.366C324.213 302.332 323.414 303.114 322.416 303.713C321.451 304.312 320.386 304.612 319.221 304.612H296.255ZM296.404 299.22H319.071C319.404 299.22 319.687 299.103 319.92 298.87C320.186 298.604 320.319 298.304 320.319 297.971V290.033C320.319 289.7 320.186 289.417 319.92 289.184C319.687 288.918 319.404 288.785 319.071 288.785H295.156V297.971C295.156 298.304 295.273 298.604 295.506 298.87C295.772 299.103 296.072 299.22 296.404 299.22Z"/>
</mask>
<path d="M292.96 303.713L292.416 304.588L292.423 304.592L292.43 304.596L292.96 303.713ZM290.613 301.366L289.724 301.887L289.731 301.899L289.738 301.91L290.613 301.366ZM290.613 271.86L289.738 271.317L289.731 271.328L289.724 271.339L290.613 271.86ZM292.96 269.514L292.43 268.63L292.423 268.634L292.416 268.638L292.96 269.514ZM319.72 268.615H320.75V267.585H319.72V268.615ZM319.72 274.057V275.087H320.75V274.057H319.72ZM295.506 274.456L294.777 273.728L294.777 273.728L295.506 274.456ZM295.506 283.044L294.731 283.722L294.776 283.773L294.828 283.819L295.506 283.044ZM322.416 284.292L321.873 285.167L321.89 285.178L321.908 285.188L322.416 284.292ZM324.812 286.638L323.929 287.168L323.933 287.175L323.937 287.181L324.812 286.638ZM324.812 301.366L325.687 301.91V301.91L324.812 301.366ZM322.416 303.713L321.886 302.83L321.879 302.834L321.873 302.838L322.416 303.713ZM319.92 298.87L319.191 298.142V298.142L319.92 298.87ZM319.92 289.184L319.144 289.863L319.19 289.914L319.241 289.96L319.92 289.184ZM295.156 288.785V287.755H294.126V288.785H295.156ZM295.506 298.87L294.731 299.548L294.776 299.6L294.828 299.645L295.506 298.87ZM296.255 304.612V303.582C295.237 303.582 294.323 303.33 293.49 302.83L292.96 303.713L292.43 304.596C293.593 305.294 294.875 305.642 296.255 305.642V304.612ZM292.96 303.713L293.503 302.838C292.672 302.322 292.004 301.654 291.488 300.823L290.613 301.366L289.738 301.91C290.421 303.01 291.316 303.905 292.416 304.588L292.96 303.713ZM290.613 301.366L291.502 300.845C291.035 300.049 290.794 299.15 290.794 298.121H289.764H288.734C288.734 299.489 289.059 300.753 289.724 301.887L290.613 301.366ZM289.764 298.121H290.794V275.155H289.764H288.734V298.121H289.764ZM289.764 275.155H290.794C290.794 274.088 291.038 273.173 291.502 272.381L290.613 271.86L289.724 271.339C289.057 272.478 288.734 273.76 288.734 275.155H289.764ZM290.613 271.86L291.488 272.403C292.004 271.573 292.672 270.904 293.503 270.389L292.96 269.514L292.416 268.638C291.316 269.321 290.421 270.217 289.738 271.317L290.613 271.86ZM292.96 269.514L293.49 270.397C294.323 269.897 295.237 269.645 296.255 269.645V268.615V267.585C294.875 267.585 293.593 267.932 292.43 268.63L292.96 269.514ZM296.255 268.615V269.645H319.72V268.615V267.585H296.255V268.615ZM319.72 268.615H318.69V274.057H319.72H320.75V268.615H319.72ZM319.72 274.057V273.027H296.404V274.057V275.087H319.72V274.057ZM296.404 274.057V273.027C295.762 273.027 295.209 273.296 294.777 273.728L295.506 274.456L296.234 275.185C296.335 275.084 296.382 275.087 296.404 275.087V274.057ZM295.506 274.456L294.777 273.728C294.349 274.156 294.126 274.702 294.126 275.305H295.156H296.186C296.186 275.261 296.193 275.242 296.196 275.235C296.199 275.229 296.206 275.212 296.234 275.185L295.506 274.456ZM295.156 275.305H294.126V282.145H295.156H296.186V275.305H295.156ZM295.156 282.145H294.126C294.126 282.744 294.345 283.281 294.731 283.722L295.506 283.044L296.281 282.365C296.201 282.274 296.186 282.212 296.186 282.145H295.156ZM295.506 283.044L294.828 283.819C295.269 284.205 295.806 284.423 296.404 284.423V283.393V282.363C296.338 282.363 296.275 282.348 296.184 282.268L295.506 283.044ZM296.404 283.393V284.423H319.221V283.393V282.363H296.404V283.393ZM319.221 283.393V284.423C320.199 284.423 321.075 284.672 321.873 285.167L322.416 284.292L322.959 283.417C321.826 282.714 320.572 282.363 319.221 282.363V283.393ZM322.416 284.292L321.908 285.188C322.75 285.665 323.42 286.32 323.929 287.168L324.812 286.638L325.696 286.108C325.006 284.96 324.079 284.05 322.924 283.396L322.416 284.292ZM324.812 286.638L323.937 287.181C324.429 287.974 324.681 288.866 324.681 289.883H325.711H326.741C326.741 288.504 326.393 287.232 325.687 286.095L324.812 286.638ZM325.711 289.883H324.681V298.121H325.711H326.741V289.883H325.711ZM325.711 298.121H324.681C324.681 299.138 324.429 300.03 323.937 300.823L324.812 301.366L325.687 301.91C326.393 300.772 326.741 299.5 326.741 298.121H325.711ZM324.812 301.366L323.937 300.823C323.427 301.646 322.748 302.313 321.886 302.83L322.416 303.713L322.946 304.596C324.081 303.915 325 303.018 325.687 301.91L324.812 301.366ZM322.416 303.713L321.873 302.838C321.075 303.333 320.199 303.582 319.221 303.582V304.612V305.642C320.572 305.642 321.826 305.291 322.959 304.588L322.416 303.713ZM319.221 304.612V303.582H296.255V304.612V305.642H319.221V304.612ZM296.404 299.22V300.25H319.071V299.22V298.19H296.404V299.22ZM319.071 299.22V300.25C319.674 300.25 320.22 300.027 320.648 299.598L319.92 298.87L319.191 298.142C319.163 298.17 319.147 298.177 319.141 298.18C319.134 298.182 319.115 298.19 319.071 298.19V299.22ZM319.92 298.87L320.648 299.598C321.08 299.167 321.349 298.614 321.349 297.971H320.319H319.289C319.289 297.994 319.292 298.041 319.191 298.142L319.92 298.87ZM320.319 297.971H321.349V290.033H320.319H319.289V297.971H320.319ZM320.319 290.033H321.349C321.349 289.383 321.072 288.824 320.598 288.409L319.92 289.184L319.241 289.96C319.262 289.978 319.274 289.991 319.28 289.999C319.283 290.003 319.285 290.006 319.286 290.007C319.287 290.009 319.287 290.01 319.287 290.01C319.287 290.01 319.287 290.01 319.287 290.01C319.287 290.009 319.287 290.01 319.287 290.011C319.288 290.012 319.289 290.019 319.289 290.033H320.319ZM319.92 289.184L320.695 288.506C320.28 288.032 319.721 287.755 319.071 287.755V288.785V289.815C319.085 289.815 319.092 289.816 319.093 289.817C319.094 289.817 319.095 289.817 319.094 289.817C319.094 289.817 319.094 289.817 319.094 289.817C319.094 289.817 319.095 289.817 319.097 289.818C319.098 289.819 319.101 289.821 319.105 289.824C319.113 289.83 319.126 289.842 319.144 289.863L319.92 289.184ZM319.071 288.785V287.755H295.156V288.785V289.815H319.071V288.785ZM295.156 288.785H294.126V297.971H295.156H296.186V288.785H295.156ZM295.156 297.971H294.126C294.126 298.57 294.345 299.107 294.731 299.548L295.506 298.87L296.281 298.192C296.201 298.1 296.186 298.038 296.186 297.971H295.156ZM295.506 298.87L294.828 299.645C295.269 300.031 295.806 300.25 296.404 300.25V299.22V298.19C296.338 298.19 296.275 298.175 296.184 298.095L295.506 298.87Z" fill="#111111" mask="url(#path-27-outside-8_159_1553)"/>
<rect x="26.8647" y="0.514893" width="561.667" height="342.548" stroke="#111111" stroke-width="1.03"/>
<rect x="43.5073" y="19.2371" width="522.836" height="305.103" rx="20.8025" stroke="#111111" stroke-width="1.03"/>
<rect x="47.5474" y="22.8621" width="514.897" height="297.962" rx="18.54" stroke="#111111" stroke-width="1.03"/>
<mask id="path-32-outside-9_159_1553" maskUnits="userSpaceOnUse" x="600.203" y="146.906" width="12" height="48" fill="black">
<rect fill="white" x="600.203" y="146.906" width="12" height="48"/>
<path d="M610.203 192.934L601.994 192.934L601.994 186.551C601.994 186.192 602.083 185.867 602.263 185.574C602.442 185.272 602.678 185.036 602.97 184.866C603.263 184.687 603.588 184.598 603.947 184.598L610.203 184.598L610.203 186.452L604.018 186.452C603.97 186.452 603.933 186.471 603.904 186.508C603.867 186.537 603.848 186.574 603.848 186.621L603.848 190.91C603.848 190.957 603.867 191 603.904 191.037C603.933 191.066 603.97 191.08 604.018 191.08L610.203 191.08L610.203 192.934ZM610.203 180.326C610.203 180.685 610.113 181.01 609.934 181.303C609.754 181.595 609.519 181.831 609.226 182.011C608.934 182.19 608.608 182.28 608.249 182.28L603.947 182.28C603.588 182.28 603.263 182.19 602.97 182.011C602.678 181.831 602.442 181.595 602.263 181.303C602.083 181.01 601.994 180.685 601.994 180.326L601.994 175.896C601.994 175.538 602.083 175.212 602.263 174.92C602.442 174.618 602.678 174.382 602.97 174.212C603.263 174.033 603.588 173.943 603.947 173.943L607.032 173.943L607.032 180.425L608.179 180.425C608.226 180.425 608.268 180.411 608.306 180.383C608.334 180.345 608.349 180.303 608.349 180.256L608.349 173.943L610.203 173.943L610.203 180.326ZM605.362 180.425L605.362 175.797L604.018 175.797C603.97 175.797 603.933 175.816 603.904 175.854C603.867 175.882 603.848 175.92 603.848 175.967L603.848 180.256C603.848 180.303 603.867 180.345 603.904 180.383C603.933 180.411 603.97 180.425 604.018 180.425L605.362 180.425ZM610.203 167.893L601.994 172.408L601.994 170.271L607.952 167.03L601.994 163.803L601.994 161.666L610.203 166.195L610.203 167.893ZM610.203 155.482L601.994 159.997L601.994 157.86L607.952 154.619L601.994 151.392L601.994 149.255L610.203 153.784L610.203 155.482Z"/>
</mask>
<path d="M610.203 192.934L610.203 193.964L611.233 193.964L611.233 192.934L610.203 192.934ZM601.994 192.934L600.964 192.934L600.964 193.964L601.994 193.964L601.994 192.934ZM602.263 185.574L603.141 186.112L603.145 186.106L603.148 186.1L602.263 185.574ZM602.97 184.866L603.487 185.757L603.498 185.751L603.509 185.745L602.97 184.866ZM610.203 184.598L611.233 184.598L611.233 183.568L610.203 183.568L610.203 184.598ZM610.203 186.452L610.203 187.482L611.233 187.482L611.233 186.452L610.203 186.452ZM603.904 186.508L604.522 187.332L604.64 187.244L604.728 187.126L603.904 186.508ZM603.904 191.037L604.633 190.309L604.633 190.309L603.904 191.037ZM610.203 191.08L611.233 191.08L611.233 190.05L610.203 190.05L610.203 191.08ZM610.203 192.934L610.203 191.904L601.994 191.904L601.994 192.934L601.994 193.964L610.203 193.964L610.203 192.934ZM601.994 192.934L603.024 192.934L603.024 186.551L601.994 186.551L600.964 186.551L600.964 192.934L601.994 192.934ZM601.994 186.551L603.024 186.551C603.024 186.373 603.065 186.235 603.141 186.112L602.263 185.574L601.384 185.036C601.101 185.498 600.964 186.011 600.964 186.551L601.994 186.551ZM602.263 185.574L603.148 186.1C603.241 185.943 603.353 185.835 603.487 185.757L602.97 184.866L602.453 183.976C602.003 184.237 601.642 184.601 601.377 185.048L602.263 185.574ZM602.97 184.866L603.509 185.745C603.632 185.669 603.769 185.628 603.947 185.628L603.947 184.598L603.947 183.568C603.407 183.568 602.894 183.705 602.432 183.988L602.97 184.866ZM603.947 184.598L603.947 185.628L610.203 185.628L610.203 184.598L610.203 183.568L603.947 183.568L603.947 184.598ZM610.203 184.598L609.173 184.598L609.173 186.452L610.203 186.452L611.233 186.452L611.233 184.598L610.203 184.598ZM610.203 186.452L610.203 185.422L604.018 185.422L604.018 186.452L604.018 187.482L610.203 187.482L610.203 186.452ZM604.018 186.452L604.018 185.422C603.646 185.422 603.303 185.593 603.08 185.89L603.904 186.508L604.728 187.126C604.658 187.22 604.555 187.317 604.415 187.387C604.274 187.457 604.135 187.482 604.018 187.482L604.018 186.452ZM603.904 186.508L603.286 185.684C602.989 185.907 602.818 186.25 602.818 186.621L603.848 186.621L604.878 186.621C604.878 186.739 604.853 186.878 604.783 187.018C604.713 187.159 604.616 187.262 604.522 187.332L603.904 186.508ZM603.848 186.621L602.818 186.621L602.818 190.91L603.848 190.91L604.878 190.91L604.878 186.621L603.848 186.621ZM603.848 190.91L602.818 190.91C602.818 191.267 602.973 191.562 603.176 191.766L603.904 191.037L604.633 190.309C604.69 190.366 604.754 190.449 604.803 190.559C604.853 190.671 604.878 190.792 604.878 190.91L603.848 190.91ZM603.904 191.037L603.176 191.766C603.432 192.021 603.75 192.11 604.018 192.11L604.018 191.08L604.018 190.05C604.097 190.05 604.201 190.062 604.316 190.105C604.433 190.149 604.542 190.218 604.633 190.309L603.904 191.037ZM604.018 191.08L604.018 192.11L610.203 192.11L610.203 191.08L610.203 190.05L604.018 190.05L604.018 191.08ZM610.203 191.08L609.173 191.08L609.173 192.934L610.203 192.934L611.233 192.934L611.233 191.08L610.203 191.08ZM609.226 182.011L608.688 181.132V181.132L609.226 182.011ZM602.97 182.011L602.432 182.889V182.889L602.97 182.011ZM602.263 174.92L603.141 175.458L603.145 175.452L603.148 175.446L602.263 174.92ZM602.97 174.212L603.487 175.103L603.498 175.097L603.509 175.09L602.97 174.212ZM607.032 173.943L608.062 173.943L608.062 172.913L607.032 172.913L607.032 173.943ZM607.032 180.425L606.002 180.425L606.002 181.455L607.032 181.455L607.032 180.425ZM608.306 180.383L608.924 181.207L609.042 181.119L609.13 181.001L608.306 180.383ZM608.349 173.943L608.349 172.913L607.319 172.913L607.319 173.943L608.349 173.943ZM610.203 173.943L611.233 173.943L611.233 172.913L610.203 172.913L610.203 173.943ZM605.362 180.425L605.362 181.455L606.392 181.455L606.392 180.425L605.362 180.425ZM605.362 175.797L606.392 175.797L606.392 174.767L605.362 174.767L605.362 175.797ZM603.904 175.854L604.522 176.678L604.64 176.59L604.728 176.472L603.904 175.854ZM603.904 180.383L604.633 179.655L603.904 180.383ZM610.203 180.326L609.173 180.326C609.173 180.504 609.131 180.642 609.056 180.765L609.934 181.303L610.812 181.841C611.095 181.379 611.233 180.866 611.233 180.326L610.203 180.326ZM609.934 181.303L609.056 180.765C608.961 180.919 608.842 181.038 608.688 181.132L609.226 182.011L609.764 182.889C610.195 182.625 610.548 182.272 610.812 181.841L609.934 181.303ZM609.226 182.011L608.688 181.132C608.565 181.208 608.427 181.25 608.249 181.25L608.249 182.28L608.249 183.31C608.789 183.31 609.302 183.172 609.764 182.889L609.226 182.011ZM608.249 182.28L608.249 181.25L603.947 181.25L603.947 182.28L603.947 183.31L608.249 183.31L608.249 182.28ZM603.947 182.28L603.947 181.25C603.769 181.25 603.632 181.208 603.509 181.132L602.97 182.011L602.432 182.889C602.894 183.172 603.407 183.31 603.947 183.31L603.947 182.28ZM602.97 182.011L603.509 181.132C603.355 181.038 603.235 180.919 603.141 180.765L602.263 181.303L601.384 181.841C601.649 182.272 602.001 182.625 602.432 182.889L602.97 182.011ZM602.263 181.303L603.141 180.765C603.065 180.642 603.024 180.504 603.024 180.326L601.994 180.326L600.964 180.326C600.964 180.866 601.101 181.379 601.384 181.841L602.263 181.303ZM601.994 180.326L603.024 180.326L603.024 175.896L601.994 175.896L600.964 175.896L600.964 180.326L601.994 180.326ZM601.994 175.896L603.024 175.896C603.024 175.719 603.065 175.581 603.141 175.458L602.263 174.92L601.384 174.382C601.101 174.843 600.964 175.357 600.964 175.896L601.994 175.896ZM602.263 174.92L603.148 175.446C603.241 175.289 603.353 175.181 603.487 175.103L602.97 174.212L602.453 173.321C602.003 173.583 601.642 173.947 601.377 174.394L602.263 174.92ZM602.97 174.212L603.509 175.09C603.632 175.015 603.769 174.973 603.947 174.973L603.947 173.943L603.947 172.913C603.407 172.913 602.894 173.051 602.432 173.334L602.97 174.212ZM603.947 173.943L603.947 174.973L607.032 174.973L607.032 173.943L607.032 172.913L603.947 172.913L603.947 173.943ZM607.032 173.943L606.002 173.943L606.002 180.425L607.032 180.425L608.062 180.425L608.062 173.943L607.032 173.943ZM607.032 180.425L607.032 181.455L608.179 181.455L608.179 180.425L608.179 179.395L607.032 179.395L607.032 180.425ZM608.179 180.425L608.179 181.455C608.449 181.455 608.708 181.369 608.924 181.207L608.306 180.383L607.688 179.559C607.829 179.454 608.003 179.395 608.179 179.395L608.179 180.425ZM608.306 180.383L609.13 181.001C609.292 180.785 609.379 180.526 609.379 180.256L608.349 180.256L607.319 180.256C607.319 180.08 607.377 179.906 607.482 179.765L608.306 180.383ZM608.349 180.256L609.379 180.256L609.379 173.943L608.349 173.943L607.319 173.943L607.319 180.256L608.349 180.256ZM608.349 173.943L608.349 174.973L610.203 174.973L610.203 173.943L610.203 172.913L608.349 172.913L608.349 173.943ZM610.203 173.943L609.173 173.943L609.173 180.326L610.203 180.326L611.233 180.326L611.233 173.943L610.203 173.943ZM605.362 180.425L606.392 180.425L606.392 175.797L605.362 175.797L604.332 175.797L604.332 180.425L605.362 180.425ZM605.362 175.797L605.362 174.767L604.018 174.767L604.018 175.797L604.018 176.827L605.362 176.827L605.362 175.797ZM604.018 175.797L604.018 174.767C603.646 174.767 603.303 174.939 603.08 175.236L603.904 175.854L604.728 176.472C604.658 176.566 604.555 176.663 604.415 176.733C604.274 176.803 604.135 176.827 604.018 176.827L604.018 175.797ZM603.904 175.854L603.286 175.03C602.989 175.253 602.818 175.596 602.818 175.967L603.848 175.967L604.878 175.967C604.878 176.084 604.853 176.224 604.783 176.364C604.713 176.504 604.616 176.608 604.522 176.678L603.904 175.854ZM603.848 175.967L602.818 175.967L602.818 180.256L603.848 180.256L604.878 180.256L604.878 175.967L603.848 175.967ZM603.848 180.256L602.818 180.256C602.818 180.613 602.973 180.908 603.176 181.111L603.904 180.383L604.633 179.655C604.69 179.712 604.754 179.794 604.803 179.904C604.853 180.017 604.878 180.137 604.878 180.256L603.848 180.256ZM603.904 180.383L603.176 181.111C603.432 181.367 603.75 181.455 604.018 181.455L604.018 180.425L604.018 179.395C604.097 179.395 604.201 179.407 604.316 179.45C604.433 179.495 604.542 179.564 604.633 179.655L603.904 180.383ZM604.018 180.425L604.018 181.455L605.362 181.455L605.362 180.425L605.362 179.395L604.018 179.395L604.018 180.425ZM610.203 167.893L610.699 168.796L611.233 168.502L611.233 167.893L610.203 167.893ZM601.994 172.408L600.964 172.408L600.964 174.15L602.49 173.311L601.994 172.408ZM601.994 170.271L601.502 169.366L600.964 169.659L600.964 170.271L601.994 170.271ZM607.952 167.03L608.444 167.935L610.111 167.028L608.443 166.124L607.952 167.03ZM601.994 163.803L600.964 163.803L600.964 164.416L601.503 164.709L601.994 163.803ZM601.994 161.666L602.491 160.764L600.964 159.921L600.964 161.666L601.994 161.666ZM610.203 166.195L611.233 166.195L611.233 165.587L610.7 165.293L610.203 166.195ZM610.203 167.893L609.706 166.991L601.497 171.506L601.994 172.408L602.49 173.311L610.699 168.796L610.203 167.893ZM601.994 172.408L603.024 172.408L603.024 170.271L601.994 170.271L600.964 170.271L600.964 172.408L601.994 172.408ZM601.994 170.271L602.486 171.176L608.444 167.935L607.952 167.03L607.46 166.125L601.502 169.366L601.994 170.271ZM607.952 167.03L608.443 166.124L602.484 162.897L601.994 163.803L601.503 164.709L607.462 167.936L607.952 167.03ZM601.994 163.803L603.024 163.803L603.024 161.666L601.994 161.666L600.964 161.666L600.964 163.803L601.994 163.803ZM601.994 161.666L601.496 162.568L609.705 167.097L610.203 166.195L610.7 165.293L602.491 160.764L601.994 161.666ZM610.203 166.195L609.173 166.195L609.173 167.893L610.203 167.893L611.233 167.893L611.233 166.195L610.203 166.195ZM610.203 155.482L610.699 156.385L611.233 156.091L611.233 155.482L610.203 155.482ZM601.994 159.997L600.964 159.997L600.964 161.739L602.49 160.9L601.994 159.997ZM601.994 157.86L601.502 156.955L600.964 157.248L600.964 157.86L601.994 157.86ZM607.952 154.619L608.444 155.524L610.111 154.617L608.443 153.713L607.952 154.619ZM601.994 151.392L600.964 151.392L600.964 152.006L601.503 152.298L601.994 151.392ZM601.994 149.255L602.491 148.353L600.964 147.51L600.964 149.255L601.994 149.255ZM610.203 153.784L611.233 153.784L611.233 153.176L610.7 152.882L610.203 153.784ZM610.203 155.482L609.706 154.58L601.497 159.095L601.994 159.997L602.49 160.9L610.699 156.385L610.203 155.482ZM601.994 159.997L603.024 159.997L603.024 157.86L601.994 157.86L600.964 157.86L600.964 159.997L601.994 159.997ZM601.994 157.86L602.486 158.765L608.444 155.524L607.952 154.619L607.46 153.714L601.502 156.955L601.994 157.86ZM607.952 154.619L608.443 153.713L602.484 150.486L601.994 151.392L601.503 152.298L607.462 155.525L607.952 154.619ZM601.994 151.392L603.024 151.392L603.024 149.255L601.994 149.255L600.964 149.255L600.964 151.392L601.994 151.392ZM601.994 149.255L601.496 150.157L609.705 154.686L610.203 153.784L610.7 152.882L602.491 148.353L601.994 149.255ZM610.203 153.784L609.173 153.784L609.173 155.482L610.203 155.482L611.233 155.482L611.233 153.784L610.203 153.784Z" fill="#111111" mask="url(#path-32-outside-9_159_1553)"/>
<rect x="597.374" y="207.226" width="70.766" height="17.6915" rx="8.84576" transform="rotate(-90 597.374 207.226)" stroke="#111111" stroke-width="1.03"/>
<rect x="8.896" y="177.203" width="10.5237" height="10.2425" rx="5.12123" transform="rotate(-90 8.896 177.203)" stroke="#111111" stroke-width="1.03"/>
<rect x="0.515137" y="0.514893" width="623.859" height="342.657" stroke="#111111" stroke-width="1.03"/>
<circle cx="304.926" cy="87.1919" r="2.77367" stroke="#111111" stroke-width="1.03"/>
<circle cx="304.926" cy="255.692" r="2.77367" stroke="#111111" stroke-width="1.03"/>
<circle cx="261.524" cy="93.1647" r="2.77367" transform="rotate(-28 261.524 93.1647)" stroke="#111111" stroke-width="1.03"/>
<circle cx="348.768" cy="250.314" r="2.77367" transform="rotate(-28 348.768 250.314)" stroke="#111111" stroke-width="1.03"/>
<circle cx="348.769" cy="93.1652" r="2.77367" transform="rotate(28 348.769 93.1652)" stroke="#111111" stroke-width="1.03"/>
<circle cx="261.524" cy="250.314" r="2.77367" transform="rotate(28 261.524 250.314)" stroke="#111111" stroke-width="1.03"/>
<circle cx="432.514" cy="171.789" r="2.77367" transform="rotate(90 432.514 171.789)" stroke="#111111" stroke-width="1.03"/>
<circle cx="177.337" cy="171.789" r="2.77367" transform="rotate(90 177.337 171.789)" stroke="#111111" stroke-width="1.03"/>
<circle cx="403.073" cy="236.152" r="2.77367" transform="rotate(123 403.073 236.152)" stroke="#111111" stroke-width="1.03"/>
<circle cx="212.326" cy="112.279" r="2.77367" transform="rotate(123 212.326 112.279)" stroke="#111111" stroke-width="1.03"/>
<circle cx="403.073" cy="112.279" r="2.77366" transform="rotate(57 403.073 112.279)" stroke="#111111" stroke-width="1.03"/>
<circle cx="212.326" cy="236.152" r="2.77366" transform="rotate(57 212.326 236.152)" stroke="#111111" stroke-width="1.03"/>
</svg>
