<svg width="605" height="605" viewBox="0 0 605 605" fill="none" xmlns="http://www.w3.org/2000/svg">
<mask id="path-1-inside-1_159_855" fill="white">
<path d="M289.8 553.958H287.146V487.917H289.8V553.958ZM319.277 553.958H316.439L305.502 491.944H305.364L294.426 553.958H291.634L303.671 487.917H307.24L319.277 553.958ZM219.108 468.618L196.513 531.829L194.055 530.41L215.589 471.236L215.47 471.167L174.99 519.403L172.572 518.007L216.018 466.833L219.108 468.618ZM440.146 513.091L437.689 514.51L397.21 466.274L397.091 466.342L418.625 525.517L416.207 526.914L393.61 463.702L396.702 461.917L440.146 513.091ZM204.005 459.897L170.984 517.09L168.686 515.763L201.706 458.57L204.005 459.897ZM197.739 456.28L164.719 513.473L162.42 512.146L195.44 454.953L197.739 456.28ZM148.206 406.342L97.0312 449.787L95.6123 447.33L143.849 406.85L143.78 406.731L84.6055 428.265L83.21 425.847L146.422 403.25L148.206 406.342ZM524.464 419.838L523.045 422.295L463.871 400.761L463.802 400.88L512.038 441.36L510.643 443.778L459.468 400.333L461.253 397.242L524.464 419.838ZM139.486 391.238L82.293 424.258L80.9658 421.959L138.159 388.939L139.486 391.238ZM526.663 416.03L525.336 418.329L468.143 385.308L469.47 383.009L526.663 416.03ZM135.869 384.972L78.6748 417.994L77.3477 415.695L134.541 382.673L135.869 384.972ZM132.251 378.708L75.0576 411.728L73.7305 409.429L130.924 376.409L132.251 378.708ZM117.121 317.042H51.0801V314.387H117.121V317.042ZM84.0781 297.724H84.4668L117.121 286.603V289.487L86.2285 299.372V299.445L117.121 309.669V312.416L84.3691 301.203H83.9863L51.0801 312.37V309.532L81.9727 299.509V299.393L51.0801 289.303V286.465L84.0781 297.724ZM553.125 310.06H487.084V307.405H553.125V310.06ZM553.125 302.825H487.084V300.17H553.125V302.825ZM553.125 295.59H487.084V292.936H553.125V295.59ZM114.242 192.269L114.58 192.463L148.42 199.16L146.978 201.657L115.281 194.772L115.244 194.835L136.887 219.136L135.514 221.514L112.756 195.427L112.424 195.236L78.3428 188.454L79.7617 185.997L111.526 192.762L111.584 192.662L89.876 168.478L91.2949 166.02L114.242 192.269ZM521.306 180.561L464.112 213.582L462.785 211.283L519.979 178.262L521.306 180.561ZM517.688 174.295L460.494 207.317L459.167 205.018L516.36 171.997L517.688 174.295ZM191.338 115.132L191.532 115.469L217.491 138.188L214.994 139.63L190.986 117.819L190.922 117.855L197.515 149.721L195.137 151.094L188.471 117.124L188.28 116.792L162.156 93.8784L164.613 92.4595L188.739 114.202L188.838 114.144L182.132 82.3452L184.59 80.9263L191.338 115.132ZM428.64 86.1362L395.619 143.33L393.32 142.002L426.341 84.8091L428.64 86.1362ZM221.577 135.83L219.278 137.157L186.257 79.9634L188.557 78.6362L221.577 135.83ZM295.591 82.8062H295.706L305.797 51.9136H308.634L297.376 84.9116V85.3003L308.497 117.955H305.613L295.729 87.062H295.654L285.431 117.955H282.685L293.897 85.2026V84.8198L282.73 51.9136H285.568L295.591 82.8062ZM313.215 117.955H310.561V51.9136H313.215V117.955ZM320.449 117.955H317.795V51.9136H320.449V117.955Z"/>
</mask>
<path d="M289.8 553.958H287.146V487.917H289.8V553.958ZM319.277 553.958H316.439L305.502 491.944H305.364L294.426 553.958H291.634L303.671 487.917H307.24L319.277 553.958ZM219.108 468.618L196.513 531.829L194.055 530.41L215.589 471.236L215.47 471.167L174.99 519.403L172.572 518.007L216.018 466.833L219.108 468.618ZM440.146 513.091L437.689 514.51L397.21 466.274L397.091 466.342L418.625 525.517L416.207 526.914L393.61 463.702L396.702 461.917L440.146 513.091ZM204.005 459.897L170.984 517.09L168.686 515.763L201.706 458.57L204.005 459.897ZM197.739 456.28L164.719 513.473L162.42 512.146L195.44 454.953L197.739 456.28ZM148.206 406.342L97.0312 449.787L95.6123 447.33L143.849 406.85L143.78 406.731L84.6055 428.265L83.21 425.847L146.422 403.25L148.206 406.342ZM524.464 419.838L523.045 422.295L463.871 400.761L463.802 400.88L512.038 441.36L510.643 443.778L459.468 400.333L461.253 397.242L524.464 419.838ZM139.486 391.238L82.293 424.258L80.9658 421.959L138.159 388.939L139.486 391.238ZM526.663 416.03L525.336 418.329L468.143 385.308L469.47 383.009L526.663 416.03ZM135.869 384.972L78.6748 417.994L77.3477 415.695L134.541 382.673L135.869 384.972ZM132.251 378.708L75.0576 411.728L73.7305 409.429L130.924 376.409L132.251 378.708ZM117.121 317.042H51.0801V314.387H117.121V317.042ZM84.0781 297.724H84.4668L117.121 286.603V289.487L86.2285 299.372V299.445L117.121 309.669V312.416L84.3691 301.203H83.9863L51.0801 312.37V309.532L81.9727 299.509V299.393L51.0801 289.303V286.465L84.0781 297.724ZM553.125 310.06H487.084V307.405H553.125V310.06ZM553.125 302.825H487.084V300.17H553.125V302.825ZM553.125 295.59H487.084V292.936H553.125V295.59ZM114.242 192.269L114.58 192.463L148.42 199.16L146.978 201.657L115.281 194.772L115.244 194.835L136.887 219.136L135.514 221.514L112.756 195.427L112.424 195.236L78.3428 188.454L79.7617 185.997L111.526 192.762L111.584 192.662L89.876 168.478L91.2949 166.02L114.242 192.269ZM521.306 180.561L464.112 213.582L462.785 211.283L519.979 178.262L521.306 180.561ZM517.688 174.295L460.494 207.317L459.167 205.018L516.36 171.997L517.688 174.295ZM191.338 115.132L191.532 115.469L217.491 138.188L214.994 139.63L190.986 117.819L190.922 117.855L197.515 149.721L195.137 151.094L188.471 117.124L188.28 116.792L162.156 93.8784L164.613 92.4595L188.739 114.202L188.838 114.144L182.132 82.3452L184.59 80.9263L191.338 115.132ZM428.64 86.1362L395.619 143.33L393.32 142.002L426.341 84.8091L428.64 86.1362ZM221.577 135.83L219.278 137.157L186.257 79.9634L188.557 78.6362L221.577 135.83ZM295.591 82.8062H295.706L305.797 51.9136H308.634L297.376 84.9116V85.3003L308.497 117.955H305.613L295.729 87.062H295.654L285.431 117.955H282.685L293.897 85.2026V84.8198L282.73 51.9136H285.568L295.591 82.8062ZM313.215 117.955H310.561V51.9136H313.215V117.955ZM320.449 117.955H317.795V51.9136H320.449V117.955Z" fill="#111111"/>
<path d="M289.8 553.958V554.576H290.418V553.958H289.8ZM287.146 553.958H286.528V554.576H287.146V553.958ZM287.146 487.917V487.298H286.528V487.917H287.146ZM289.8 487.917H290.418V487.298H289.8V487.917ZM319.277 553.958V554.576H320.018L319.885 553.847L319.277 553.958ZM316.439 553.958L315.831 554.065L315.921 554.576H316.439V553.958ZM305.502 491.944L306.111 491.837L306.02 491.326H305.502V491.944ZM305.364 491.944V491.326H304.846L304.756 491.836L305.364 491.944ZM294.426 553.958V554.576H294.944L295.034 554.065L294.426 553.958ZM291.634 553.958L291.026 553.847L290.893 554.576H291.634V553.958ZM303.671 487.917V487.298H303.155L303.063 487.806L303.671 487.917ZM307.24 487.917L307.848 487.806L307.756 487.298H307.24V487.917ZM219.108 468.618L219.69 468.826L219.864 468.34L219.417 468.083L219.108 468.618ZM196.513 531.829L196.204 532.364L196.845 532.734L197.095 532.037L196.513 531.829ZM194.055 530.41L193.474 530.198L193.297 530.686L193.746 530.945L194.055 530.41ZM215.589 471.236L216.17 471.447L216.346 470.962L215.9 470.702L215.589 471.236ZM215.47 471.167L215.781 470.632L215.331 470.371L214.996 470.769L215.47 471.167ZM174.99 519.403L174.681 519.938L175.13 520.197L175.464 519.8L174.99 519.403ZM172.572 518.007L172.101 517.607L171.622 518.172L172.263 518.543L172.572 518.007ZM216.018 466.833L216.327 466.297L215.88 466.039L215.546 466.433L216.018 466.833ZM440.146 513.091L440.456 513.626L441.097 513.256L440.618 512.691L440.146 513.091ZM437.689 514.51L437.216 514.908L437.549 515.305L437.999 515.045L437.689 514.51ZM397.21 466.274L397.683 465.877L397.351 465.481L396.902 465.738L397.21 466.274ZM397.091 466.342L396.783 465.806L396.332 466.065L396.51 466.554L397.091 466.342ZM418.625 525.517L418.934 526.052L419.383 525.793L419.206 525.306L418.625 525.517ZM416.207 526.914L415.625 527.122L415.875 527.819L416.516 527.449L416.207 526.914ZM393.61 463.702L393.301 463.166L392.855 463.424L393.028 463.91L393.61 463.702ZM396.702 461.917L397.173 461.517L396.84 461.124L396.393 461.381L396.702 461.917ZM204.005 459.897L204.54 460.206L204.849 459.671L204.314 459.362L204.005 459.897ZM170.984 517.09L170.675 517.626L171.211 517.935L171.52 517.399L170.984 517.09ZM168.686 515.763L168.15 515.454L167.841 515.989L168.377 516.298L168.686 515.763ZM201.706 458.57L202.015 458.035L201.48 457.726L201.171 458.261L201.706 458.57ZM197.739 456.28L198.274 456.589L198.583 456.054L198.048 455.745L197.739 456.28ZM164.719 513.473L164.41 514.008L164.945 514.317L165.254 513.782L164.719 513.473ZM162.42 512.146L161.885 511.837L161.576 512.372L162.111 512.681L162.42 512.146ZM195.44 454.953L195.749 454.417L195.214 454.108L194.905 454.644L195.44 454.953ZM148.206 406.342L148.606 406.813L148.999 406.48L148.741 406.033L148.206 406.342ZM97.0312 449.787L96.4961 450.096L96.8665 450.737L97.4312 450.258L97.0312 449.787ZM95.6123 447.33L95.215 446.856L94.8178 447.19L95.0771 447.639L95.6123 447.33ZM143.849 406.85L144.246 407.323L144.642 406.991L144.385 406.543L143.849 406.85ZM143.78 406.731L144.316 406.423L144.058 405.972L143.569 406.15L143.78 406.731ZM84.6055 428.265L84.0702 428.574L84.3295 429.023L84.8168 428.846L84.6055 428.265ZM83.21 425.847L83.0019 425.265L82.3045 425.515L82.6747 426.156L83.21 425.847ZM146.422 403.25L146.957 402.942L146.699 402.495L146.214 402.669L146.422 403.25ZM524.464 419.838L524.999 420.147L525.37 419.506L524.672 419.256L524.464 419.838ZM523.045 422.295L522.834 422.876L523.321 423.053L523.58 422.604L523.045 422.295ZM463.871 400.761L464.082 400.18L463.597 400.004L463.337 400.45L463.871 400.761ZM463.802 400.88L463.268 400.57L463.006 401.019L463.404 401.354L463.802 400.88ZM512.038 441.36L512.573 441.669L512.832 441.22L512.435 440.886L512.038 441.36ZM510.643 443.778L510.243 444.249L510.807 444.728L511.178 444.087L510.643 443.778ZM459.468 400.333L458.933 400.024L458.675 400.471L459.068 400.805L459.468 400.333ZM461.253 397.242L461.461 396.66L460.976 396.486L460.718 396.933L461.253 397.242ZM139.486 391.238L139.795 391.773L140.331 391.464L140.022 390.929L139.486 391.238ZM82.293 424.258L81.7578 424.567L82.0668 425.103L82.602 424.794L82.293 424.258ZM80.9658 421.959L80.6568 421.424L80.1216 421.733L80.4306 422.268L80.9658 421.959ZM138.159 388.939L138.694 388.63L138.385 388.095L137.85 388.404L138.159 388.939ZM526.663 416.03L527.198 416.339L527.507 415.804L526.972 415.495L526.663 416.03ZM525.336 418.329L525.027 418.864L525.562 419.173L525.871 418.638L525.336 418.329ZM468.143 385.308L467.607 384.999L467.298 385.534L467.834 385.843L468.143 385.308ZM469.47 383.009L469.779 382.474L469.243 382.165L468.935 382.7L469.47 383.009ZM135.869 384.972L136.178 385.507L136.714 385.198L136.404 384.663L135.869 384.972ZM78.6748 417.994L78.1396 418.303L78.4486 418.838L78.9838 418.529L78.6748 417.994ZM77.3477 415.695L77.0387 415.16L76.5035 415.469L76.8124 416.004L77.3477 415.695ZM134.541 382.673L135.076 382.364L134.767 381.829L134.232 382.138L134.541 382.673ZM132.251 378.708L132.56 379.243L133.095 378.934L132.786 378.399L132.251 378.708ZM75.0576 411.728L74.5224 412.037L74.8314 412.572L75.3666 412.263L75.0576 411.728ZM73.7305 409.429L73.4215 408.894L72.8863 409.203L73.1953 409.738L73.7305 409.429ZM130.924 376.409L131.459 376.1L131.15 375.564L130.615 375.873L130.924 376.409ZM117.121 317.042V317.66H117.739V317.042H117.121ZM51.0801 317.042H50.4621V317.66H51.0801V317.042ZM51.0801 314.387V313.769H50.4621V314.387H51.0801ZM117.121 314.387H117.739V313.769H117.121V314.387ZM84.0781 297.724L83.8786 298.309L83.9756 298.342H84.0781V297.724ZM84.4668 297.724V298.342H84.5691L84.666 298.309L84.4668 297.724ZM117.121 286.603H117.739V285.74L116.922 286.018L117.121 286.603ZM117.121 289.487L117.309 290.075L117.739 289.938V289.487H117.121ZM86.2285 299.372L86.0402 298.783L85.6105 298.92V299.372H86.2285ZM86.2285 299.445H85.6105V299.891L86.0343 300.032L86.2285 299.445ZM117.121 309.669H117.739V309.223L117.315 309.083L117.121 309.669ZM117.121 312.416L116.921 313L117.739 313.28V312.416H117.121ZM84.3691 301.203L84.5693 300.618L84.472 300.585H84.3691V301.203ZM83.9863 301.203V300.585H83.8843L83.7877 300.617L83.9863 301.203ZM51.0801 312.37H50.4621V313.232L51.2787 312.955L51.0801 312.37ZM51.0801 309.532L50.8894 308.944L50.4621 309.083V309.532H51.0801ZM81.9727 299.509L82.1634 300.097L82.5907 299.958V299.509H81.9727ZM81.9727 299.393H82.5907V298.945L82.1645 298.806L81.9727 299.393ZM51.0801 289.303H50.4621V289.752L50.8882 289.891L51.0801 289.303ZM51.0801 286.465L51.2796 285.88L50.4621 285.601V286.465H51.0801ZM553.125 310.06V310.678H553.743V310.06H553.125ZM487.084 310.06H486.466V310.678H487.084V310.06ZM487.084 307.405V306.787H486.466V307.405H487.084ZM553.125 307.405H553.743V306.787H553.125V307.405ZM553.125 302.825V303.443H553.743V302.825H553.125ZM487.084 302.825H486.466V303.443H487.084V302.825ZM487.084 300.17V299.552H486.466V300.17H487.084ZM553.125 300.17H553.743V299.552H553.125V300.17ZM553.125 295.59V296.208H553.743V295.59H553.125ZM487.084 295.59H486.466V296.208H487.084V295.59ZM487.084 292.936V292.318H486.466V292.936H487.084ZM553.125 292.936H553.743V292.318H553.125V292.936ZM114.242 192.269L113.777 192.676L113.845 192.753L113.934 192.805L114.242 192.269ZM114.58 192.463L114.272 192.999L114.36 193.05L114.46 193.07L114.58 192.463ZM148.42 199.16L148.955 199.469L149.387 198.721L148.54 198.553L148.42 199.16ZM146.978 201.657L146.846 202.261L147.287 202.356L147.513 201.966L146.978 201.657ZM115.281 194.772L115.412 194.168L114.974 194.073L114.748 194.46L115.281 194.772ZM115.244 194.835L114.711 194.524L114.484 194.911L114.783 195.246L115.244 194.835ZM136.887 219.136L137.422 219.445L137.645 219.059L137.348 218.725L136.887 219.136ZM135.514 221.514L135.048 221.92L135.616 222.572L136.049 221.823L135.514 221.514ZM112.756 195.427L113.222 195.021L113.154 194.943L113.065 194.892L112.756 195.427ZM112.424 195.236L112.732 194.7L112.644 194.65L112.544 194.63L112.424 195.236ZM78.3428 188.454L77.8076 188.145L77.3763 188.891L78.2222 189.06L78.3428 188.454ZM79.7617 185.997L79.8905 185.392L79.4512 185.299L79.2266 185.688L79.7617 185.997ZM111.526 192.762L111.398 193.367L111.839 193.461L112.063 193.069L111.526 192.762ZM111.584 192.662L112.12 192.969L112.342 192.581L112.044 192.249L111.584 192.662ZM89.876 168.478L89.3408 168.169L89.1166 168.557L89.4161 168.891L89.876 168.478ZM91.2949 166.02L91.7602 165.613L91.1916 164.963L90.7597 165.711L91.2949 166.02ZM521.306 180.561L521.615 181.096L522.15 180.787L521.841 180.252L521.306 180.561ZM464.112 213.582L463.577 213.891L463.886 214.426L464.421 214.117L464.112 213.582ZM462.785 211.283L462.476 210.748L461.941 211.057L462.25 211.592L462.785 211.283ZM519.979 178.262L520.514 177.953L520.205 177.418L519.67 177.727L519.979 178.262ZM517.688 174.295L517.997 174.831L518.532 174.522L518.223 173.986L517.688 174.295ZM460.494 207.317L459.959 207.626L460.268 208.161L460.803 207.852L460.494 207.317ZM459.167 205.018L458.858 204.483L458.323 204.792L458.632 205.327L459.167 205.018ZM516.36 171.997L516.896 171.688L516.587 171.152L516.051 171.461L516.36 171.997ZM191.338 115.132L190.732 115.252L190.751 115.352L190.803 115.441L191.338 115.132ZM191.532 115.469L190.997 115.778L191.048 115.867L191.125 115.934L191.532 115.469ZM217.491 138.188L217.8 138.723L218.548 138.291L217.898 137.723L217.491 138.188ZM214.994 139.63L214.579 140.088L214.913 140.391L215.303 140.166L214.994 139.63ZM190.986 117.819L191.402 117.361L191.072 117.062L190.684 117.28L190.986 117.819ZM190.922 117.855L190.62 117.316L190.225 117.537L190.317 117.98L190.922 117.855ZM197.515 149.721L197.824 150.256L198.21 150.033L198.12 149.596L197.515 149.721ZM195.137 151.094L194.53 151.213L194.697 152.062L195.446 151.629L195.137 151.094ZM188.471 117.124L189.077 117.005L189.057 116.904L189.006 116.815L188.471 117.124ZM188.28 116.792L188.816 116.484L188.765 116.395L188.688 116.328L188.28 116.792ZM162.156 93.8784L161.847 93.3433L161.101 93.7745L161.749 94.343L162.156 93.8784ZM164.613 92.4595L165.027 92.0004L164.693 91.6996L164.304 91.9243L164.613 92.4595ZM188.739 114.202L188.326 114.661L188.661 114.963L189.051 114.735L188.739 114.202ZM188.838 114.144L189.15 114.678L189.535 114.453L189.443 114.017L188.838 114.144ZM182.132 82.3452L181.823 81.81L181.435 82.0341L181.527 82.4727L182.132 82.3452ZM184.59 80.9263L185.196 80.8067L185.029 79.9592L184.281 80.391L184.59 80.9263ZM428.64 86.1362L429.175 86.4452L429.484 85.91L428.949 85.601L428.64 86.1362ZM395.619 143.33L395.31 143.865L395.845 144.174L396.154 143.639L395.619 143.33ZM393.32 142.002L392.785 141.693L392.476 142.229L393.011 142.538L393.32 142.002ZM426.341 84.8091L426.65 84.2739L426.115 83.9649L425.806 84.5001L426.341 84.8091ZM221.577 135.83L221.886 136.365L222.421 136.056L222.112 135.521L221.577 135.83ZM219.278 137.157L218.743 137.466L219.052 138.001L219.587 137.692L219.278 137.157ZM186.257 79.9634L185.948 79.4281L185.413 79.7371L185.722 80.2724L186.257 79.9634ZM188.557 78.6362L189.092 78.3272L188.783 77.7921L188.248 78.101L188.557 78.6362ZM295.591 82.8062L295.003 82.9969L295.142 83.4242H295.591V82.8062ZM295.706 82.8062V83.4242H296.154L296.294 82.998L295.706 82.8062ZM305.797 51.9136V51.2956H305.349L305.209 51.7217L305.797 51.9136ZM308.634 51.9136L309.219 52.1131L309.498 51.2956H308.634V51.9136ZM297.376 84.9116L296.791 84.7121L296.758 84.8091V84.9116H297.376ZM297.376 85.3003H296.758V85.4026L296.791 85.4995L297.376 85.3003ZM308.497 117.955V118.573H309.36L309.082 117.755L308.497 117.955ZM305.613 117.955L305.025 118.143L305.162 118.573H305.613V117.955ZM295.729 87.062L296.317 86.8737L296.18 86.444H295.729V87.062ZM295.654 87.062V86.444H295.208L295.068 86.8678L295.654 87.062ZM285.431 117.955V118.573H285.877L286.017 118.149L285.431 117.955ZM282.685 117.955L282.1 117.754L281.82 118.573H282.685V117.955ZM293.897 85.2026L294.482 85.4028L294.515 85.3055V85.2026H293.897ZM293.897 84.8198H294.515V84.7178L294.483 84.6212L293.897 84.8198ZM282.73 51.9136V51.2956H281.868L282.145 52.1122L282.73 51.9136ZM285.568 51.9136L286.156 51.7229L286.018 51.2956H285.568V51.9136ZM313.215 117.955V118.573H313.833V117.955H313.215ZM310.561 117.955H309.943V118.573H310.561V117.955ZM310.561 51.9136V51.2956H309.943V51.9136H310.561ZM313.215 51.9136H313.833V51.2956H313.215V51.9136ZM320.449 117.955V118.573H321.067V117.955H320.449ZM317.795 117.955H317.177V118.573H317.795V117.955ZM317.795 51.9136V51.2956H317.177V51.9136H317.795ZM320.449 51.9136H321.067V51.2956H320.449V51.9136ZM289.8 553.958V553.34H287.146V553.958V554.576H289.8V553.958ZM287.146 553.958H287.764V487.917H287.146H286.528V553.958H287.146ZM287.146 487.917V488.535H289.8V487.917V487.298H287.146V487.917ZM289.8 487.917H289.182V553.958H289.8H290.418V487.917H289.8ZM319.277 553.958V553.34H316.439V553.958V554.576H319.277V553.958ZM316.439 553.958L317.048 553.85L306.111 491.837L305.502 491.944L304.893 492.051L315.831 554.065L316.439 553.958ZM305.502 491.944V491.326H305.364V491.944V492.562H305.502V491.944ZM305.364 491.944L304.756 491.836L293.817 553.85L294.426 553.958L295.034 554.065L305.973 492.051L305.364 491.944ZM294.426 553.958V553.34H291.634V553.958V554.576H294.426V553.958ZM291.634 553.958L292.242 554.068L304.279 488.027L303.671 487.917L303.063 487.806L291.026 553.847L291.634 553.958ZM303.671 487.917V488.535H307.24V487.917V487.298H303.671V487.917ZM307.24 487.917L306.632 488.027L318.669 554.068L319.277 553.958L319.885 553.847L307.848 487.806L307.24 487.917ZM219.108 468.618L218.526 468.41L195.931 531.621L196.513 531.829L197.095 532.037L219.69 468.826L219.108 468.618ZM196.513 531.829L196.822 531.293L194.364 529.874L194.055 530.41L193.746 530.945L196.204 532.364L196.513 531.829ZM194.055 530.41L194.635 530.621L216.17 471.447L215.589 471.236L215.008 471.025L193.474 530.198L194.055 530.41ZM215.589 471.236L215.9 470.702L215.781 470.632L215.47 471.167L215.159 471.701L215.278 471.77L215.589 471.236ZM215.47 471.167L214.996 470.769L174.517 519.006L174.99 519.403L175.464 519.8L215.943 471.564L215.47 471.167ZM174.99 519.403L175.299 518.868L172.881 517.472L172.572 518.007L172.263 518.543L174.681 519.938L174.99 519.403ZM172.572 518.007L173.043 518.407L216.489 467.232L216.018 466.833L215.546 466.433L172.101 517.607L172.572 518.007ZM216.018 466.833L215.708 467.368L218.799 469.153L219.108 468.618L219.417 468.083L216.327 466.297L216.018 466.833ZM440.146 513.091L439.837 512.556L437.38 513.975L437.689 514.51L437.999 515.045L440.456 513.626L440.146 513.091ZM437.689 514.51L438.163 514.113L397.683 465.877L397.21 466.274L396.737 466.671L437.216 514.908L437.689 514.51ZM397.21 466.274L396.902 465.738L396.783 465.806L397.091 466.342L397.398 466.878L397.518 466.81L397.21 466.274ZM397.091 466.342L396.51 466.554L418.044 525.728L418.625 525.517L419.206 525.306L397.672 466.131L397.091 466.342ZM418.625 525.517L418.316 524.982L415.898 526.378L416.207 526.914L416.516 527.449L418.934 526.052L418.625 525.517ZM416.207 526.914L416.789 526.706L394.192 463.494L393.61 463.702L393.028 463.91L415.625 527.122L416.207 526.914ZM393.61 463.702L393.919 464.237L397.011 462.452L396.702 461.917L396.393 461.381L393.301 463.166L393.61 463.702ZM396.702 461.917L396.231 462.316L439.675 513.491L440.146 513.091L440.618 512.691L397.173 461.517L396.702 461.917ZM204.005 459.897L203.47 459.588L170.449 516.781L170.984 517.09L171.52 517.399L204.54 460.206L204.005 459.897ZM170.984 517.09L171.293 516.555L168.995 515.228L168.686 515.763L168.377 516.298L170.675 517.626L170.984 517.09ZM168.686 515.763L169.221 516.072L202.241 458.879L201.706 458.57L201.171 458.261L168.15 515.454L168.686 515.763ZM201.706 458.57L201.397 459.105L203.696 460.432L204.005 459.897L204.314 459.362L202.015 458.035L201.706 458.57ZM197.739 456.28L197.204 455.971L164.184 513.164L164.719 513.473L165.254 513.782L198.274 456.589L197.739 456.28ZM164.719 513.473L165.028 512.938L162.729 511.611L162.42 512.146L162.111 512.681L164.41 514.008L164.719 513.473ZM162.42 512.146L162.955 512.455L195.976 455.262L195.44 454.953L194.905 454.644L161.885 511.837L162.42 512.146ZM195.44 454.953L195.131 455.488L197.43 456.815L197.739 456.28L198.048 455.745L195.749 454.417L195.44 454.953ZM148.206 406.342L147.806 405.871L96.6313 449.315L97.0312 449.787L97.4312 450.258L148.606 406.813L148.206 406.342ZM97.0312 449.787L97.5664 449.478L96.1475 447.021L95.6123 447.33L95.0771 447.639L96.4961 450.096L97.0312 449.787ZM95.6123 447.33L96.0096 447.803L144.246 407.323L143.849 406.85L143.451 406.377L95.215 446.856L95.6123 447.33ZM143.849 406.85L144.385 406.543L144.316 406.423L143.78 406.731L143.244 407.039L143.313 407.158L143.849 406.85ZM143.78 406.731L143.569 406.15L84.3941 427.684L84.6055 428.265L84.8168 428.846L143.992 407.312L143.78 406.731ZM84.6055 428.265L85.1407 427.956L83.7452 425.538L83.21 425.847L82.6747 426.156L84.0702 428.574L84.6055 428.265ZM83.21 425.847L83.418 426.429L146.63 403.832L146.422 403.25L146.214 402.669L83.0019 425.265L83.21 425.847ZM146.422 403.25L145.887 403.559L147.671 406.651L148.206 406.342L148.741 406.033L146.957 402.942L146.422 403.25ZM524.464 419.838L523.929 419.529L522.51 421.986L523.045 422.295L523.58 422.604L524.999 420.147L524.464 419.838ZM523.045 422.295L523.256 421.715L464.082 400.18L463.871 400.761L463.66 401.342L522.834 422.876L523.045 422.295ZM463.871 400.761L463.337 400.45L463.268 400.57L463.802 400.88L464.336 401.191L464.405 401.072L463.871 400.761ZM463.802 400.88L463.404 401.354L511.641 441.833L512.038 441.36L512.435 440.886L464.199 400.407L463.802 400.88ZM512.038 441.36L511.503 441.051L510.107 443.469L510.643 443.778L511.178 444.087L512.573 441.669L512.038 441.36ZM510.643 443.778L511.043 443.307L459.868 399.862L459.468 400.333L459.068 400.805L510.243 444.249L510.643 443.778ZM459.468 400.333L460.003 400.643L461.788 397.551L461.253 397.242L460.718 396.933L458.933 400.024L459.468 400.333ZM461.253 397.242L461.045 397.824L524.256 420.42L524.464 419.838L524.672 419.256L461.461 396.66L461.253 397.242ZM139.486 391.238L139.177 390.703L81.984 423.723L82.293 424.258L82.602 424.794L139.795 391.773L139.486 391.238ZM82.293 424.258L82.8282 423.949L81.501 421.65L80.9658 421.959L80.4306 422.268L81.7578 424.567L82.293 424.258ZM80.9658 421.959L81.2748 422.495L138.468 389.474L138.159 388.939L137.85 388.404L80.6568 421.424L80.9658 421.959ZM138.159 388.939L137.624 389.248L138.951 391.547L139.486 391.238L140.022 390.929L138.694 388.63L138.159 388.939ZM526.663 416.03L526.128 415.721L524.801 418.02L525.336 418.329L525.871 418.638L527.198 416.339L526.663 416.03ZM525.336 418.329L525.645 417.793L468.452 384.773L468.143 385.308L467.834 385.843L525.027 418.864L525.336 418.329ZM468.143 385.308L468.678 385.617L470.005 383.318L469.47 383.009L468.935 382.7L467.607 384.999L468.143 385.308ZM469.47 383.009L469.161 383.544L526.354 416.565L526.663 416.03L526.972 415.495L469.779 382.474L469.47 383.009ZM135.869 384.972L135.56 384.437L78.3658 417.458L78.6748 417.994L78.9838 418.529L136.178 385.507L135.869 384.972ZM78.6748 417.994L79.21 417.685L77.8829 415.386L77.3477 415.695L76.8124 416.004L78.1396 418.303L78.6748 417.994ZM77.3477 415.695L77.6567 416.23L134.85 383.209L134.541 382.673L134.232 382.138L77.0387 415.16L77.3477 415.695ZM134.541 382.673L134.006 382.982L135.334 385.281L135.869 384.972L136.404 384.663L135.076 382.364L134.541 382.673ZM132.251 378.708L131.942 378.172L74.7486 411.193L75.0576 411.728L75.3666 412.263L132.56 379.243L132.251 378.708ZM75.0576 411.728L75.5928 411.419L74.2657 409.12L73.7305 409.429L73.1953 409.738L74.5224 412.037L75.0576 411.728ZM73.7305 409.429L74.0395 409.964L131.233 376.944L130.924 376.409L130.615 375.873L73.4215 408.894L73.7305 409.429ZM130.924 376.409L130.389 376.718L131.716 379.017L132.251 378.708L132.786 378.399L131.459 376.1L130.924 376.409ZM117.121 317.042V316.423H51.0801V317.042V317.66H117.121V317.042ZM51.0801 317.042H51.6981V314.387H51.0801H50.4621V317.042H51.0801ZM51.0801 314.387V315.005H117.121V314.387V313.769H51.0801V314.387ZM117.121 314.387H116.503V317.042H117.121H117.739V314.387H117.121ZM84.0781 297.724V298.342H84.4668V297.724V297.106H84.0781V297.724ZM84.4668 297.724L84.666 298.309L117.32 287.188L117.121 286.603L116.922 286.018L84.2676 297.139L84.4668 297.724ZM117.121 286.603H116.503V289.487H117.121H117.739V286.603H117.121ZM117.121 289.487L116.933 288.898L86.0402 298.783L86.2285 299.372L86.4169 299.96L117.309 290.075L117.121 289.487ZM86.2285 299.372H85.6105V299.445H86.2285H86.8465V299.372H86.2285ZM86.2285 299.445L86.0343 300.032L116.927 310.256L117.121 309.669L117.315 309.083L86.4227 298.858L86.2285 299.445ZM117.121 309.669H116.503V312.416H117.121H117.739V309.669H117.121ZM117.121 312.416L117.321 311.831L84.5693 300.618L84.3691 301.203L84.169 301.787L116.921 313L117.121 312.416ZM84.3691 301.203V300.585H83.9863V301.203V301.821H84.3691V301.203ZM83.9863 301.203L83.7877 300.617L50.8815 311.784L51.0801 312.37L51.2787 312.955L84.1849 301.788L83.9863 301.203ZM51.0801 312.37H51.6981V309.532H51.0801H50.4621V312.37H51.0801ZM51.0801 309.532L51.2708 310.12L82.1634 300.097L81.9727 299.509L81.7819 298.921L50.8894 308.944L51.0801 309.532ZM81.9727 299.509H82.5907V299.393H81.9727H81.3547V299.509H81.9727ZM81.9727 299.393L82.1645 298.806L51.2719 288.716L51.0801 289.303L50.8882 289.891L81.7808 299.981L81.9727 299.393ZM51.0801 289.303H51.6981V286.465H51.0801H50.4621V289.303H51.0801ZM51.0801 286.465L50.8805 287.05L83.8786 298.309L84.0781 297.724L84.2777 297.139L51.2796 285.88L51.0801 286.465ZM553.125 310.06V309.442H487.084V310.06V310.678H553.125V310.06ZM487.084 310.06H487.702V307.405H487.084H486.466V310.06H487.084ZM487.084 307.405V308.023H553.125V307.405V306.787H487.084V307.405ZM553.125 307.405H552.507V310.06H553.125H553.743V307.405H553.125ZM553.125 302.825V302.207H487.084V302.825V303.443H553.125V302.825ZM487.084 302.825H487.702V300.17H487.084H486.466V302.825H487.084ZM487.084 300.17V300.788H553.125V300.17V299.552H487.084V300.17ZM553.125 300.17H552.507V302.825H553.125H553.743V300.17H553.125ZM553.125 295.59V294.972H487.084V295.59V296.208H553.125V295.59ZM487.084 295.59H487.702V292.936H487.084H486.466V295.59H487.084ZM487.084 292.936V293.554H553.125V292.936V292.318H487.084V292.936ZM553.125 292.936H552.507V295.59H553.125H553.743V292.936H553.125ZM114.242 192.269L113.934 192.805L114.272 192.999L114.58 192.463L114.888 191.928L114.55 191.733L114.242 192.269ZM114.58 192.463L114.46 193.07L148.3 199.766L148.42 199.16L148.54 198.553L114.7 191.857L114.58 192.463ZM148.42 199.16L147.885 198.851L146.442 201.348L146.978 201.657L147.513 201.966L148.955 199.469L148.42 199.16ZM146.978 201.657L147.109 201.053L115.412 194.168L115.281 194.772L115.15 195.376L146.846 202.261L146.978 201.657ZM115.281 194.772L114.748 194.46L114.711 194.524L115.244 194.835L115.778 195.147L115.815 195.084L115.281 194.772ZM115.244 194.835L114.783 195.246L136.425 219.547L136.887 219.136L137.348 218.725L115.706 194.424L115.244 194.835ZM136.887 219.136L136.352 218.827L134.978 221.205L135.514 221.514L136.049 221.823L137.422 219.445L136.887 219.136ZM135.514 221.514L135.979 221.108L113.222 195.021L112.756 195.427L112.29 195.834L135.048 221.92L135.514 221.514ZM112.756 195.427L113.065 194.892L112.732 194.7L112.424 195.236L112.115 195.771L112.447 195.963L112.756 195.427ZM112.424 195.236L112.544 194.63L78.4634 187.848L78.3428 188.454L78.2222 189.06L112.303 195.842L112.424 195.236ZM78.3428 188.454L78.8779 188.763L80.2969 186.306L79.7617 185.997L79.2266 185.688L77.8076 188.145L78.3428 188.454ZM79.7617 185.997L79.633 186.601L111.398 193.367L111.526 192.762L111.655 192.158L79.8905 185.392L79.7617 185.997ZM111.526 192.762L112.063 193.069L112.12 192.969L111.584 192.662L111.048 192.354L110.99 192.455L111.526 192.762ZM111.584 192.662L112.044 192.249L90.3359 168.065L89.876 168.478L89.4161 168.891L111.124 193.074L111.584 192.662ZM89.876 168.478L90.4112 168.787L91.8301 166.329L91.2949 166.02L90.7597 165.711L89.3408 168.169L89.876 168.478ZM91.2949 166.02L90.8296 166.427L113.777 192.676L114.242 192.269L114.707 191.862L91.7602 165.613L91.2949 166.02ZM521.306 180.561L520.997 180.026L463.803 213.046L464.112 213.582L464.421 214.117L521.615 181.096L521.306 180.561ZM464.112 213.582L464.648 213.273L463.32 210.974L462.785 211.283L462.25 211.592L463.577 213.891L464.112 213.582ZM462.785 211.283L463.094 211.818L520.288 178.797L519.979 178.262L519.67 177.727L462.476 210.748L462.785 211.283ZM519.979 178.262L519.443 178.571L520.77 180.87L521.306 180.561L521.841 180.252L520.514 177.953L519.979 178.262ZM517.688 174.295L517.378 173.76L460.185 206.782L460.494 207.317L460.803 207.852L517.997 174.831L517.688 174.295ZM460.494 207.317L461.029 207.008L459.702 204.709L459.167 205.018L458.632 205.327L459.959 207.626L460.494 207.317ZM459.167 205.018L459.476 205.553L516.669 172.532L516.36 171.997L516.051 171.461L458.858 204.483L459.167 205.018ZM516.36 171.997L515.825 172.306L517.152 174.604L517.688 174.295L518.223 173.986L516.896 171.688L516.36 171.997ZM191.338 115.132L190.803 115.441L190.997 115.778L191.532 115.469L192.068 115.16L191.873 114.824L191.338 115.132ZM191.532 115.469L191.125 115.934L217.084 138.653L217.491 138.188L217.898 137.723L191.939 115.004L191.532 115.469ZM217.491 138.188L217.182 137.653L214.685 139.095L214.994 139.63L215.303 140.166L217.8 138.723L217.491 138.188ZM214.994 139.63L215.41 139.173L191.402 117.361L190.986 117.819L190.571 118.276L214.579 140.088L214.994 139.63ZM190.986 117.819L190.684 117.28L190.62 117.316L190.922 117.855L191.224 118.394L191.289 118.358L190.986 117.819ZM190.922 117.855L190.317 117.98L196.909 149.846L197.515 149.721L198.12 149.596L191.527 117.73L190.922 117.855ZM197.515 149.721L197.206 149.186L194.828 150.559L195.137 151.094L195.446 151.629L197.824 150.256L197.515 149.721ZM195.137 151.094L195.743 150.975L189.077 117.005L188.471 117.124L187.864 117.243L194.53 151.213L195.137 151.094ZM188.471 117.124L189.006 116.815L188.816 116.484L188.28 116.792L187.745 117.101L187.935 117.432L188.471 117.124ZM188.28 116.792L188.688 116.328L162.564 93.4138L162.156 93.8784L161.749 94.343L187.873 117.257L188.28 116.792ZM162.156 93.8784L162.465 94.4136L164.922 92.9946L164.613 92.4595L164.304 91.9243L161.847 93.3433L162.156 93.8784ZM164.613 92.4595L164.2 92.9186L188.326 114.661L188.739 114.202L189.153 113.743L165.027 92.0004L164.613 92.4595ZM188.739 114.202L189.051 114.735L189.15 114.678L188.838 114.144L188.526 113.61L188.428 113.668L188.739 114.202ZM188.838 114.144L189.443 114.017L182.737 82.2177L182.132 82.3452L181.527 82.4727L188.233 114.272L188.838 114.144ZM182.132 82.3452L182.441 82.8804L184.899 81.4615L184.59 80.9263L184.281 80.391L181.823 81.81L182.132 82.3452ZM184.59 80.9263L183.984 81.0459L190.732 115.252L191.338 115.132L191.944 115.013L185.196 80.8067L184.59 80.9263ZM428.64 86.1362L428.104 85.8272L395.084 143.021L395.619 143.33L396.154 143.639L429.175 86.4452L428.64 86.1362ZM395.619 143.33L395.928 142.794L393.629 141.467L393.32 142.002L393.011 142.538L395.31 143.865L395.619 143.33ZM393.32 142.002L393.856 142.311L426.876 85.1181L426.341 84.8091L425.806 84.5001L392.785 141.693L393.32 142.002ZM426.341 84.8091L426.032 85.3443L428.331 86.6714L428.64 86.1362L428.949 85.601L426.65 84.2739L426.341 84.8091ZM221.577 135.83L221.268 135.294L218.969 136.622L219.278 137.157L219.587 137.692L221.886 136.365L221.577 135.83ZM219.278 137.157L219.814 136.848L186.792 79.6544L186.257 79.9634L185.722 80.2724L218.743 137.466L219.278 137.157ZM186.257 79.9634L186.566 80.4986L188.866 79.1715L188.557 78.6362L188.248 78.101L185.948 79.4281L186.257 79.9634ZM188.557 78.6362L188.021 78.9452L221.042 136.139L221.577 135.83L222.112 135.521L189.092 78.3272L188.557 78.6362ZM295.591 82.8062V83.4242H295.706V82.8062V82.1882H295.591V82.8062ZM295.706 82.8062L296.294 82.998L306.384 52.1055L305.797 51.9136L305.209 51.7217L295.119 82.6143L295.706 82.8062ZM305.797 51.9136V52.5316H308.634V51.9136V51.2956H305.797V51.9136ZM308.634 51.9136L308.049 51.714L296.791 84.7121L297.376 84.9116L297.961 85.1112L309.219 52.1131L308.634 51.9136ZM297.376 84.9116H296.758V85.3003H297.376H297.994V84.9116H297.376ZM297.376 85.3003L296.791 85.4995L307.912 118.154L308.497 117.955L309.082 117.755L297.961 85.1011L297.376 85.3003ZM308.497 117.955V117.337H305.613V117.955V118.573H308.497V117.955ZM305.613 117.955L306.202 117.766L296.317 86.8737L295.729 87.062L295.14 87.2503L305.025 118.143L305.613 117.955ZM295.729 87.062V86.444H295.654V87.062V87.68H295.729V87.062ZM295.654 87.062L295.068 86.8678L284.844 117.76L285.431 117.955L286.017 118.149L296.241 87.2562L295.654 87.062ZM285.431 117.955V117.337H282.685V117.955V118.573H285.431V117.955ZM282.685 117.955L283.269 118.155L294.482 85.4028L293.897 85.2026L293.313 85.0025L282.1 117.754L282.685 117.955ZM293.897 85.2026H294.515V84.8198H293.897H293.279V85.2026H293.897ZM293.897 84.8198L294.483 84.6212L283.316 51.715L282.73 51.9136L282.145 52.1122L293.312 85.0184L293.897 84.8198ZM282.73 51.9136V52.5316H285.568V51.9136V51.2956H282.73V51.9136ZM285.568 51.9136L284.981 52.1043L295.003 82.9969L295.591 82.8062L296.179 82.6154L286.156 51.7229L285.568 51.9136ZM313.215 117.955V117.337H310.561V117.955V118.573H313.215V117.955ZM310.561 117.955H311.179V51.9136H310.561H309.943V117.955H310.561ZM310.561 51.9136V52.5316H313.215V51.9136V51.2956H310.561V51.9136ZM313.215 51.9136H312.597V117.955H313.215H313.833V51.9136H313.215ZM320.449 117.955V117.337H317.795V117.955V118.573H320.449V117.955ZM317.795 117.955H318.413V51.9136H317.795H317.177V117.955H317.795ZM317.795 51.9136V52.5316H320.449V51.9136V51.2956H317.795V51.9136ZM320.449 51.9136H319.831V117.955H320.449H321.067V51.9136H320.449Z" fill="#EEEEEE" mask="url(#path-1-inside-1_159_855)"/>
<circle cx="302.305" cy="302.305" r="301.79" stroke="#111111" stroke-width="1.03"/>
<circle cx="301.818" cy="301.818" r="289.128" stroke="#111111" stroke-width="1.03"/>
<circle cx="302.571" cy="302.571" r="251.142" stroke="#111111" stroke-width="1.03"/>
<path d="M302.571 117.124C404.844 117.124 487.752 200.032 487.752 302.305C487.752 373.932 447.086 436.057 387.583 466.86C379.399 471.096 373.794 479.292 373.794 488.507C373.794 495.82 370.24 502.669 363.511 505.534C352.733 510.121 333.273 515.976 304.154 515.976C274.468 515.976 254.822 509.891 244.178 505.267C237.864 502.525 234.513 496.075 234.513 489.191C234.513 480.372 229.069 472.554 221.151 468.672C159.698 438.54 117.389 375.364 117.389 302.305C117.389 200.032 200.298 117.124 302.571 117.124Z" fill="#EEEEEE"/>
<path d="M302.571 117.124V116.609V116.609V117.124ZM487.752 302.305H488.267V302.305H487.752ZM304.154 515.976V516.491V516.491V515.976ZM117.389 302.305H116.874V302.305H117.389ZM221.151 468.672L221.377 468.209L221.151 468.672ZM244.178 505.267L244.383 504.795L244.178 505.267ZM387.583 466.86L387.346 466.402L387.583 466.86ZM302.571 117.124V117.639C404.559 117.639 487.237 200.317 487.237 302.305H487.752H488.267C488.267 199.748 405.128 116.609 302.571 116.609V117.124ZM487.752 302.305H487.237C487.237 373.732 446.685 435.685 387.346 466.402L387.583 466.86L387.82 467.317C447.487 436.43 488.267 374.132 488.267 302.305H487.752ZM363.511 505.534L363.309 505.06C352.593 509.621 333.202 515.461 304.154 515.461V515.976V516.491C333.345 516.491 352.872 510.622 363.713 506.008L363.511 505.534ZM304.154 515.976V515.461C274.54 515.461 254.964 509.392 244.383 504.795L244.178 505.267L243.972 505.74C254.679 510.391 274.395 516.491 304.154 516.491V515.976ZM221.151 468.672L221.377 468.209C160.094 438.161 117.904 375.16 117.904 302.305H117.389H116.874C116.874 375.568 159.302 438.919 220.924 469.134L221.151 468.672ZM117.389 302.305H117.904C117.904 200.317 200.582 117.639 302.571 117.639V117.124V116.609C200.013 116.609 116.874 199.748 116.874 302.305H117.389ZM234.513 489.191H235.028C235.028 480.153 229.451 472.168 221.377 468.209L221.151 468.672L220.924 469.134C228.687 472.94 233.998 480.591 233.998 489.191H234.513ZM244.178 505.267L244.383 504.795C238.298 502.152 235.028 495.918 235.028 489.191H234.513H233.998C233.998 496.231 237.43 502.897 243.972 505.74L244.178 505.267ZM373.794 488.507H373.279C373.279 495.664 369.806 502.295 363.309 505.06L363.511 505.534L363.713 506.008C370.674 503.044 374.309 495.976 374.309 488.507H373.794ZM387.583 466.86L387.346 466.402C379.013 470.716 373.279 479.076 373.279 488.507H373.794H374.309C374.309 479.508 379.785 471.476 387.82 467.317L387.583 466.86Z" fill="#111111"/>
<ellipse cx="303.231" cy="464.315" rx="25.75" ry="16.48" stroke="#111111" stroke-width="1.03"/>
<ellipse cx="303.231" cy="464.315" rx="14.42" ry="16.48" stroke="#111111" stroke-width="1.03"/>
<path d="M303.231 447.835V480.795" stroke="#111111" stroke-width="1.03"/>
<path d="M328.981 464.31H277.481" stroke="#111111" stroke-width="1.03"/>
<path d="M282.454 497.7H281.162L277.276 491.82V497.7H275.984V489.815H277.276L281.162 495.683V489.815H282.454V497.7ZM285.101 490.868V493.18H287.821V494.233H285.101V496.647H288.16V497.7H283.81V489.815H288.16V490.868H285.101ZM299.665 489.826L297.331 497.7H295.87L294.215 491.741L292.459 497.7L291.009 497.712L288.777 489.826H290.148L291.779 496.239L293.547 489.826H294.997L296.64 496.205L298.283 489.826H299.665ZM300.3 493.746C300.3 492.976 300.477 492.284 300.832 491.673C301.195 491.061 301.682 490.585 302.294 490.245C302.913 489.898 303.589 489.724 304.322 489.724C305.16 489.724 305.904 489.932 306.554 490.347C307.211 490.755 307.687 491.337 307.982 492.092H306.429C306.225 491.676 305.942 491.367 305.58 491.163C305.217 490.959 304.798 490.857 304.322 490.857C303.801 490.857 303.336 490.974 302.928 491.208C302.521 491.442 302.2 491.778 301.965 492.216C301.739 492.655 301.625 493.164 301.625 493.746C301.625 494.328 301.739 494.837 301.965 495.276C302.2 495.714 302.521 496.054 302.928 496.295C303.336 496.529 303.801 496.647 304.322 496.647C304.798 496.647 305.217 496.545 305.58 496.341C305.942 496.137 306.225 495.827 306.429 495.412H307.982C307.687 496.167 307.211 496.748 306.554 497.156C305.904 497.564 305.16 497.768 304.322 497.768C303.582 497.768 302.906 497.598 302.294 497.258C301.682 496.911 301.195 496.431 300.832 495.819C300.477 495.208 300.3 494.516 300.3 493.746ZM315.442 489.826V497.7H314.15V494.256H310.445V497.7H309.154V489.826H310.445V493.202H314.15V489.826H315.442ZM321.549 496.091H318.252L317.686 497.7H316.338L319.159 489.815H320.654L323.476 497.7H322.116L321.549 496.091ZM321.187 495.038L319.907 491.378L318.615 495.038H321.187ZM330.832 497.7H329.54L325.654 491.82V497.7H324.362V489.815H325.654L329.54 495.683V489.815H330.832V497.7Z" fill="#111111"/>
</svg>
