<svg width="39" height="38" viewBox="0 0 39 38" fill="none" xmlns="http://www.w3.org/2000/svg">
<g opacity="0.5">
<rect x="6.09375" y="5.9375" width="26.8125" height="26.125" fill="#EEEEEE"/>
<path d="M19.5 22.325C17.6719 22.325 16.0875 20.9 16.0875 19C16.0875 17.2187 17.55 15.675 19.5 15.675C21.3281 15.675 22.9125 17.1 22.9125 19C22.9125 20.7812 21.3281 22.325 19.5 22.325Z" fill="#111111"/>
<path fill-rule="evenodd" clip-rule="evenodd" d="M23.6437 10.925H15.3563C14.3813 11.0437 13.8938 11.1625 13.5281 11.2812C13.0406 11.4 12.675 11.6375 12.3094 11.9937C12.0201 12.2756 11.8834 12.5575 11.7181 12.8983C11.6746 12.9881 11.629 13.0822 11.5781 13.1812C11.5593 13.2364 11.5375 13.2943 11.5142 13.3564C11.3867 13.6958 11.2125 14.1595 11.2125 14.9625V23.0375C11.3344 23.9875 11.4562 24.4625 11.5781 24.8187C11.7 25.2937 11.9438 25.65 12.3094 26.0062C12.5987 26.2881 12.888 26.4213 13.2377 26.5823C13.3299 26.6248 13.4264 26.6692 13.5281 26.7187C13.5847 26.7371 13.6442 26.7583 13.7079 26.7811C14.0562 26.9053 14.5321 27.075 15.3563 27.075H23.6437C24.6187 26.9562 25.1063 26.8375 25.4719 26.7187C25.9594 26.6 26.325 26.3625 26.6906 26.0062C26.9799 25.7244 27.1166 25.4425 27.2819 25.1017C27.3254 25.0119 27.371 24.9179 27.4219 24.8187C27.4407 24.7636 27.4625 24.7057 27.4858 24.6436C27.6133 24.3042 27.7875 23.8405 27.7875 23.0375V14.9625C27.6656 14.0125 27.5438 13.5375 27.4219 13.1812C27.3 12.7062 27.0562 12.35 26.6906 11.9937C26.4013 11.7119 26.112 11.5787 25.7623 11.4177C25.6702 11.3753 25.5734 11.3307 25.4719 11.2812C25.4153 11.2629 25.3558 11.2417 25.2921 11.2189C24.9438 11.0947 24.4679 10.925 23.6437 10.925ZM19.5 13.8937C16.575 13.8937 14.2594 16.15 14.2594 19C14.2594 21.85 16.575 24.1062 19.5 24.1062C22.425 24.1062 24.7406 21.85 24.7406 19C24.7406 16.15 22.425 13.8937 19.5 13.8937ZM26.0812 13.775C26.0812 14.4308 25.5356 14.9625 24.8625 14.9625C24.1894 14.9625 23.6437 14.4308 23.6437 13.775C23.6437 13.1192 24.1894 12.5875 24.8625 12.5875C25.5356 12.5875 26.0812 13.1192 26.0812 13.775Z" fill="#111111"/>
<path fill-rule="evenodd" clip-rule="evenodd" d="M0 0H39V38H0V0ZM15.3563 9.14375H23.6437C24.7406 9.2625 25.4719 9.38125 26.0812 9.61875C26.8125 9.975 27.3 10.2125 27.9094 10.8062C28.5187 11.4 28.8844 11.9937 29.1281 12.5875C29.3719 13.1812 29.6156 13.8937 29.6156 14.9625V23.0375C29.4937 24.1062 29.3719 24.8187 29.1281 25.4125C28.7625 26.125 28.5187 26.6 27.9094 27.1937C27.3 27.7875 26.6906 28.1437 26.0812 28.3812C25.4719 28.6187 24.7406 28.8562 23.6437 28.8562H15.3563C14.2594 28.7375 13.5281 28.6187 12.9188 28.3812C12.1875 28.025 11.7 27.7875 11.0906 27.1937C10.4813 26.6 10.1156 26.0062 9.87188 25.4125C9.62813 24.8187 9.38437 24.1062 9.38437 23.0375V14.9625C9.50625 13.8937 9.62813 13.1812 9.87188 12.5875C10.2375 11.875 10.4813 11.4 11.0906 10.8062C11.7 10.2125 12.3094 9.85625 12.9188 9.61875C13.5281 9.38125 14.2594 9.14375 15.3563 9.14375Z" fill="#111111"/>
</g>
</svg>
