<svg width="139" height="35" viewBox="0 0 139 35" fill="none" xmlns="http://www.w3.org/2000/svg">
<path d="M10.9821 0.531956C12.0208 0.531956 12.9961 0.734623 13.9081 1.13996C14.8454 1.54529 15.6561 2.08996 16.3401 2.77396C17.0241 3.45796 17.5561 4.26862 17.9361 5.20596C18.3414 6.11796 18.5441 7.09329 18.5441 8.13196C18.5441 9.17062 18.3414 10.1586 17.9361 11.096C17.5561 12.008 17.0241 12.806 16.3401 13.49C15.6561 14.174 14.8454 14.7186 13.9081 15.124C12.9961 15.504 12.0208 15.694 10.9821 15.694H3.6101V27.132H9.76846e-05V0.531956H10.9821ZM10.9821 12.084C11.5141 12.084 12.0208 11.9826 12.5021 11.78C12.9834 11.5773 13.4014 11.2986 13.7561 10.944C14.1361 10.564 14.4274 10.1333 14.6301 9.65196C14.8328 9.17062 14.9341 8.66396 14.9341 8.13196C14.9341 7.57462 14.8328 7.05529 14.6301 6.57396C14.4274 6.09262 14.1361 5.67462 13.7561 5.31996C13.4014 4.93996 12.9834 4.64862 12.5021 4.44596C12.0208 4.24329 11.5141 4.14196 10.9821 4.14196H3.6101V12.084H10.9821ZM20.4949 0.531956H24.0669V27.132H20.4949V0.531956ZM36.9892 15.124V11.894H26.7292V8.28396H40.5612V23.56H43.1072V27.132H37.4832L37.1032 25.118H36.9892C36.6852 25.6753 36.0772 26.1566 35.1652 26.562C34.2532 26.9673 33.1132 27.17 31.7452 27.17C29.5159 27.17 27.8059 26.5873 26.6152 25.422C25.4246 24.2313 24.8292 22.724 24.8292 20.9C24.8292 19 25.5386 17.5686 26.9572 16.606C28.3759 15.618 30.2759 15.124 32.6572 15.124H36.9892ZM36.9892 18.354H33.1892C32.3786 18.354 31.6819 18.4426 31.0992 18.62C30.5166 18.7973 30.0352 19.0253 29.6552 19.304C29.3006 19.5573 29.0346 19.8613 28.8572 20.216C28.7052 20.5453 28.6292 20.8746 28.6292 21.204C28.6292 21.8626 28.8319 22.4073 29.2372 22.838C29.6679 23.2686 30.1492 23.56 30.6812 23.712C31.2132 23.864 31.7326 23.94 32.2392 23.94C32.4166 23.94 32.7332 23.9273 33.1892 23.902C33.6706 23.8513 34.2152 23.6866 34.8232 23.408C35.4312 23.104 35.9379 22.686 36.3432 22.154C36.7739 21.622 36.9892 20.9886 36.9892 20.254V18.354ZM47.2774 8.20796V17.366C47.2774 18.6073 47.3788 19.6333 47.5814 20.444C47.7841 21.2293 48.0881 21.85 48.4934 22.306C48.9241 22.762 49.4561 23.0786 50.0894 23.256C50.7481 23.4333 51.5081 23.522 52.3694 23.522C53.2561 23.522 54.0414 23.4333 54.7254 23.256C55.4094 23.0786 55.9794 22.762 56.4354 22.306C56.8914 21.85 57.2334 21.2546 57.4614 20.52C57.7148 19.76 57.8414 18.81 57.8414 17.67V8.20796H61.4514V34.846H45.3394V31.236H57.7274V24.928H57.6514C57.2714 25.5106 56.5874 26.0173 55.5994 26.448C54.6368 26.8786 53.5474 27.094 52.3314 27.094C51.3181 27.094 50.2794 26.9926 49.2154 26.79C48.1768 26.5873 47.2268 26.1566 46.3654 25.498C45.5041 24.8393 44.8074 23.8893 44.2754 22.648C43.7434 21.3813 43.4774 19.7093 43.4774 17.632V8.20796H47.2774ZM70.1336 23.56H77.9236V27.132H66.5616V11.856H63.3696V8.28396H66.5616V0.531956H70.1336V8.28396H76.4796V11.856H70.1336V23.56ZM83.6319 0.531956V4.10396H80.0599V0.531956H83.6319ZM80.0599 8.13196H83.6319V27.132H80.0599V8.13196ZM111.574 8.28396V27.132H108.002V11.856H100.744V27.132H97.1717V11.856H89.9137V27.132H86.3417V8.28396H111.574ZM122.391 8.39796C124.038 8.39796 125.431 8.67662 126.571 9.23396C127.737 9.79129 128.661 10.5766 129.345 11.59C130.055 12.578 130.523 13.6546 130.751 14.82C130.979 15.96 131.093 17.0366 131.093 18.05C131.093 18.5566 131.068 19.0633 131.017 19.57H117.071C117.071 20.4566 117.211 21.1786 117.489 21.736C117.768 22.2933 118.148 22.724 118.629 23.028C119.111 23.332 119.655 23.5473 120.263 23.674C120.871 23.7753 121.517 23.826 122.201 23.826C122.683 23.826 123.177 23.8133 123.683 23.788C124.19 23.7373 124.659 23.6486 125.089 23.522C125.52 23.37 125.9 23.1546 126.229 22.876C126.584 22.5973 126.825 22.2173 126.951 21.736H130.599C130.346 22.7493 129.953 23.6106 129.421 24.32C128.915 25.004 128.294 25.5613 127.559 25.992C126.85 26.4226 126.039 26.7393 125.127 26.942C124.241 27.1446 123.291 27.246 122.277 27.246C119.212 27.246 116.97 26.448 115.551 24.852C114.158 23.256 113.461 20.9126 113.461 17.822C113.461 16.454 113.639 15.2 113.993 14.06C114.373 12.8946 114.931 11.894 115.665 11.058C116.4 10.222 117.325 9.57596 118.439 9.11996C119.554 8.63862 120.871 8.39796 122.391 8.39796ZM127.483 16.226C127.458 15.922 127.395 15.5166 127.293 15.01C127.192 14.478 126.964 13.9713 126.609 13.49C126.28 12.9833 125.786 12.5526 125.127 12.198C124.469 11.8433 123.569 11.666 122.429 11.666C121.391 11.666 120.529 11.818 119.845 12.122C119.161 12.426 118.604 12.806 118.173 13.262C117.768 13.718 117.477 14.212 117.299 14.744C117.147 15.276 117.071 15.77 117.071 16.226H127.483ZM137.303 19.494H135.137L134.187 -4.37498e-05H138.253L137.303 19.494ZM133.845 25.08C133.845 24.1426 134.073 23.484 134.529 23.104C134.985 22.724 135.542 22.534 136.201 22.534C136.834 22.534 137.379 22.724 137.835 23.104C138.316 23.484 138.557 24.1426 138.557 25.08C138.557 25.992 138.316 26.6506 137.835 27.056C137.379 27.4613 136.834 27.664 136.201 27.664C135.542 27.664 134.985 27.4613 134.529 27.056C134.073 26.6506 133.845 25.992 133.845 25.08Z" fill="#111111"/>
</svg>
